<?xml version="1.0" encoding="UTF-8" standalone="no"?>
<!DOCTYPE svg PUBLIC "-//W3C//DTD SVG 1.1//EN" 
  "http://www.w3.org/Graphics/SVG/1.1/DTD/svg11.dtd">
<svg width="640" height="360"
     xmlns="http://www.w3.org/2000/svg" version="1.1">
 <path d="  M 0,264  L 4,264  L 4,265  L 6,265  L 6,266  L 8,266  L 8,267  L 10,267  L 10,268  L 12,268  L 12,269  L 14,269  L 14,270  L 16,270  L 16,271  L 17,271  L 17,273  L 18,273  L 18,274  L 19,274  L 19,276  L 20,276  L 20,277  L 21,277  L 21,279  L 22,279  L 22,280  L 23,280  L 23,281  L 24,281  L 24,282  L 25,282  L 25,283  L 26,283  L 26,285  L 27,285  L 27,287  L 28,287  L 28,290  L 29,290  L 29,293  L 30,293  L 30,295  L 31,295  L 31,296  L 32,296  L 32,297  L 33,297  L 33,298  L 35,298  L 35,299  L 39,299  L 39,300  L 54,300  L 54,301  L 60,301  L 60,302  L 61,302  L 61,303  L 62,303  L 62,304  L 64,304  L 64,305  L 65,305  L 65,307  L 66,307  L 66,311  L 67,311  L 67,316  L 66,316  L 66,320  L 65,320  L 65,322  L 64,322  L 64,324  L 63,324  L 63,329  L 64,329  L 64,331  L 65,331  L 65,332  L 66,332  L 66,333  L 67,333  L 67,335  L 68,335  L 68,338  L 69,338  L 69,343  L 70,343  L 70,348  L 71,348  L 71,356  L 70,356  L 70,357  L 59,357  L 59,356  L 57,356  L 57,357  L 52,357  L 52,356  L 50,356  L 50,357  L 47,357  L 47,358  L 43,358  L 43,359  L 39,359  L 39,358  L 28,358  L 28,357  L 27,357  L 27,358  L 26,358  L 26,359  L 21,359  L 21,358  L 14,358  L 14,359  L 8,359  L 8,360  L 640,360  L 640,0  L 0,0  L 0,3  L 1,3  L 1,2  L 2,2  L 2,3  L 3,3  L 3,4  L 4,4  L 4,5  L 5,5  L 5,8  L 4,8  L 4,9  L 5,9  L 5,11  L 7,11  L 7,12  L 8,12  L 8,14  L 9,14  L 9,15  L 10,15  L 10,22  L 9,22  L 9,26  L 8,26  L 8,31  L 7,31  L 7,38  L 6,38  L 6,42  L 5,42  L 5,43  L 4,43  L 4,44  L 3,44  L 3,45  L 0,45  Z  M 383,269  L 383,268  L 393,268  L 393,269  L 398,269  L 398,270  L 399,270  L 399,271  L 401,271  L 401,272  L 402,272  L 402,273  L 403,273  L 403,274  L 404,274  L 404,275  L 405,275  L 405,276  L 406,276  L 406,277  L 407,277  L 407,279  L 408,279  L 408,281  L 409,281  L 409,283  L 410,283  L 410,284  L 411,284  L 411,286  L 412,286  L 412,288  L 413,288  L 413,294  L 414,294  L 414,296  L 415,296  L 415,297  L 416,297  L 416,298  L 417,298  L 417,299  L 418,299  L 418,300  L 419,300  L 419,301  L 420,301  L 420,302  L 421,302  L 421,303  L 422,303  L 422,304  L 423,304  L 423,306  L 424,306  L 424,307  L 425,307  L 425,308  L 426,308  L 426,309  L 427,309  L 427,310  L 429,310  L 429,311  L 430,311  L 430,312  L 432,312  L 432,313  L 433,313  L 433,315  L 434,315  L 434,316  L 435,316  L 435,317  L 436,317  L 436,318  L 437,318  L 437,320  L 438,320  L 438,321  L 439,321  L 439,323  L 440,323  L 440,325  L 441,325  L 441,327  L 442,327  L 442,330  L 443,330  L 443,333  L 444,333  L 444,339  L 445,339  L 445,344  L 446,344  L 446,349  L 447,349  L 447,356  L 412,356  L 412,355  L 408,355  L 408,354  L 392,354  L 392,355  L 386,355  L 386,356  L 382,356  L 382,357  L 372,357  L 372,358  L 369,358  L 369,357  L 353,357  L 353,356  L 351,356  L 351,354  L 350,354  L 350,349  L 351,349  L 351,346  L 352,346  L 352,344  L 353,344  L 353,342  L 354,342  L 354,340  L 355,340  L 355,335  L 356,335  L 356,332  L 357,332  L 357,329  L 358,329  L 358,326  L 359,326  L 359,323  L 360,323  L 360,321  L 361,321  L 361,319  L 362,319  L 362,318  L 363,318  L 363,316  L 364,316  L 364,315  L 365,315  L 365,313  L 367,313  L 367,312  L 368,312  L 368,311  L 370,311  L 370,310  L 371,310  L 371,309  L 373,309  L 373,308  L 375,308  L 375,307  L 377,307  L 377,306  L 378,306  L 378,305  L 379,305  L 379,302  L 378,302  L 378,301  L 377,301  L 377,300  L 376,300  L 376,299  L 375,299  L 375,298  L 374,298  L 374,297  L 373,297  L 373,294  L 372,294  L 372,284  L 371,284  L 371,282  L 372,282  L 372,276  L 373,276  L 373,274  L 374,274  L 374,273  L 375,273  L 375,272  L 376,272  L 376,271  L 378,271  L 378,270  L 380,270  L 380,269  Z  " style="fill:rgb(255, 255, 255); fill-opacity:0.000; stroke:none;" />
 <path d="  M 0,43  L 2,43  L 2,42  L 3,42  L 3,41  L 4,41  L 4,38  L 5,38  L 5,34  L 6,34  L 6,27  L 7,27  L 7,22  L 8,22  L 8,19  L 9,19  L 9,17  L 8,17  L 8,16  L 7,16  L 7,15  L 6,15  L 6,13  L 4,13  L 4,12  L 3,12  L 3,6  L 2,6  L 2,5  L 1,5  L 1,4  L 0,4  Z  " style="fill:rgb(255, 255, 255); fill-opacity:0.000; stroke:none;" />
 <path d="  M 69,355  L 69,352  L 70,352  L 70,350  L 69,350  L 69,345  L 68,345  L 68,342  L 67,342  L 67,338  L 66,338  L 66,335  L 65,335  L 65,334  L 64,334  L 64,333  L 63,333  L 63,331  L 62,331  L 62,328  L 61,328  L 61,325  L 62,325  L 62,322  L 63,322  L 63,319  L 64,319  L 64,316  L 65,316  L 65,310  L 64,310  L 64,307  L 63,307  L 63,306  L 62,306  L 62,305  L 60,305  L 60,304  L 59,304  L 59,303  L 57,303  L 57,302  L 49,302  L 49,301  L 35,301  L 35,300  L 32,300  L 32,299  L 31,299  L 31,298  L 30,298  L 30,297  L 29,297  L 29,296  L 28,296  L 28,294  L 27,294  L 27,290  L 26,290  L 26,288  L 25,288  L 25,285  L 24,285  L 24,284  L 23,284  L 23,283  L 22,283  L 22,282  L 21,282  L 21,281  L 20,281  L 20,279  L 19,279  L 19,278  L 18,278  L 18,277  L 17,277  L 17,275  L 16,275  L 16,273  L 15,273  L 15,272  L 13,272  L 13,271  L 12,271  L 12,270  L 9,270  L 9,269  L 8,269  L 8,268  L 6,268  L 6,267  L 4,267  L 4,266  L 2,266  L 2,265  L 0,265  L 0,358  L 11,358  L 11,357  L 14,357  L 14,356  L 18,356  L 18,357  L 25,357  L 25,356  L 39,356  L 39,357  L 44,357  L 44,356  L 47,356  L 47,355  L 54,355  L 54,356  L 55,356  L 55,355  L 64,355  L 64,356  L 65,356  L 65,355  Z  " style="fill:rgb(255, 255, 255); fill-opacity:0.000; stroke:none;" />
 <path d="  M 0,359  L 0,360  L 2,360  L 2,359  Z  " style="fill:rgb(255, 255, 255); fill-opacity:0.000; stroke:none;" />
 <path d="  M 411,288  L 410,288  L 410,287  L 409,287  L 409,285  L 408,285  L 408,283  L 407,283  L 407,282  L 406,282  L 406,280  L 405,280  L 405,278  L 404,278  L 404,277  L 403,277  L 403,276  L 402,276  L 402,275  L 401,275  L 401,274  L 400,274  L 400,273  L 399,273  L 399,272  L 397,272  L 397,271  L 394,271  L 394,270  L 383,270  L 383,271  L 380,271  L 380,272  L 378,272  L 378,273  L 377,273  L 377,274  L 376,274  L 376,275  L 375,275  L 375,277  L 374,277  L 374,279  L 373,279  L 373,288  L 374,288  L 374,295  L 375,295  L 375,296  L 376,296  L 376,297  L 377,297  L 377,298  L 378,298  L 378,299  L 379,299  L 379,300  L 380,300  L 380,301  L 381,301  L 381,306  L 380,306  L 380,307  L 379,307  L 379,308  L 378,308  L 378,309  L 376,309  L 376,310  L 374,310  L 374,311  L 372,311  L 372,312  L 370,312  L 370,313  L 369,313  L 369,314  L 367,314  L 367,315  L 366,315  L 366,317  L 365,317  L 365,318  L 364,318  L 364,320  L 363,320  L 363,322  L 362,322  L 362,323  L 361,323  L 361,326  L 360,326  L 360,329  L 359,329  L 359,332  L 358,332  L 358,335  L 357,335  L 357,338  L 356,338  L 356,342  L 355,342  L 355,344  L 354,344  L 354,347  L 353,347  L 353,349  L 352,349  L 352,354  L 353,354  L 353,355  L 357,355  L 357,356  L 377,356  L 377,355  L 382,355  L 382,354  L 388,354  L 388,353  L 411,353  L 411,354  L 417,354  L 417,355  L 422,355  L 422,354  L 440,354  L 440,355  L 444,355  L 444,354  L 446,354  L 446,352  L 445,352  L 445,349  L 444,349  L 444,343  L 443,343  L 443,339  L 442,339  L 442,333  L 441,333  L 441,330  L 440,330  L 440,328  L 439,328  L 439,326  L 438,326  L 438,324  L 437,324  L 437,322  L 436,322  L 436,320  L 435,320  L 435,319  L 434,319  L 434,318  L 433,318  L 433,317  L 432,317  L 432,315  L 431,315  L 431,314  L 430,314  L 430,313  L 428,313  L 428,312  L 426,312  L 426,311  L 425,311  L 425,310  L 424,310  L 424,309  L 423,309  L 423,308  L 422,308  L 422,306  L 421,306  L 421,305  L 420,305  L 420,304  L 419,304  L 419,303  L 418,303  L 418,302  L 417,302  L 417,301  L 416,301  L 416,300  L 415,300  L 415,299  L 414,299  L 414,298  L 413,298  L 413,297  L 412,297  L 412,293  L 411,293  Z  " style="fill:rgb(255, 255, 255); fill-opacity:0.000; stroke:none;" />
 <path d="  M 1,3  L 0,3  L 0,4  L 1,4  Z  " style="fill:rgb(128, 128, 128); fill-opacity:1.000; stroke:none;" />
 <path d="  M 1,4  L 1,5  L 2,5  L 2,4  Z  " style="fill:rgb(128, 128, 128); fill-opacity:1.000; stroke:none;" />
 <path d="  M 2,44  L 1,44  L 1,45  L 2,45  Z  " style="fill:rgb(128, 128, 128); fill-opacity:1.000; stroke:none;" />
 <path d="  M 2,3  L 2,4  L 3,4  L 3,3  Z  " style="fill:rgb(128, 128, 128); fill-opacity:1.000; stroke:none;" />
 <path d="  M 7,358  L 3,358  L 3,359  L 2,359  L 2,360  L 8,360  L 8,359  L 7,359  Z  " style="fill:rgb(128, 128, 128); fill-opacity:1.000; stroke:none;" />
 <path d="  M 4,8  L 5,8  L 5,6  L 4,6  Z  " style="fill:rgb(128, 128, 128); fill-opacity:1.000; stroke:none;" />
 <path d="  M 5,40  L 5,39  L 4,39  L 4,41  L 5,41  L 5,42  L 6,42  L 6,40  Z  " style="fill:rgb(128, 128, 128); fill-opacity:1.000; stroke:none;" />
 <path d="  M 7,35  L 6,35  L 6,34  L 5,34  L 5,36  L 6,36  L 6,37  L 7,37  Z  " style="fill:rgb(128, 128, 128); fill-opacity:1.000; stroke:none;" />
 <path d="  M 7,29  L 7,28  L 6,28  L 6,30  L 7,30  L 7,31  L 8,31  L 8,29  Z  " style="fill:rgb(128, 128, 128); fill-opacity:1.000; stroke:none;" />
 <path d="  M 7,267  L 6,267  L 6,268  L 7,268  Z  " style="fill:rgb(128, 128, 128); fill-opacity:1.000; stroke:none;" />
 <path d="  M 7,16  L 8,16  L 8,15  L 7,15  Z  " style="fill:rgb(128, 128, 128); fill-opacity:1.000; stroke:none;" />
 <path d="  M 8,25  L 8,26  L 9,26  L 9,24  L 8,24  L 8,23  L 7,23  L 7,25  Z  " style="fill:rgb(128, 128, 128); fill-opacity:1.000; stroke:none;" />
 <path d="  M 7,267  L 8,267  L 8,266  L 7,266  Z  " style="fill:rgb(128, 128, 128); fill-opacity:1.000; stroke:none;" />
 <path d="  M 8,14  L 8,15  L 9,15  L 9,14  Z  " style="fill:rgb(128, 128, 128); fill-opacity:1.000; stroke:none;" />
 <path d="  M 8,19  L 8,20  L 9,20  L 9,19  Z  " style="fill:rgb(128, 128, 128); fill-opacity:1.000; stroke:none;" />
 <path d="  M 10,21  L 10,20  L 9,20  L 9,21  Z  " style="fill:rgb(128, 128, 128); fill-opacity:1.000; stroke:none;" />
 <path d="  M 13,270  L 12,270  L 12,271  L 13,271  Z  " style="fill:rgb(128, 128, 128); fill-opacity:1.000; stroke:none;" />
 <path d="  M 12,358  L 13,358  L 13,357  L 12,357  Z  " style="fill:rgb(128, 128, 128); fill-opacity:1.000; stroke:none;" />
 <path d="  M 14,270  L 14,269  L 13,269  L 13,270  Z  " style="fill:rgb(128, 128, 128); fill-opacity:1.000; stroke:none;" />
 <path d="  M 13,358  L 13,359  L 14,359  L 14,358  Z  " style="fill:rgb(128, 128, 128); fill-opacity:1.000; stroke:none;" />
 <path d="  M 17,357  L 18,357  L 18,356  L 15,356  L 15,357  L 16,357  L 16,358  L 17,358  Z  " style="fill:rgb(128, 128, 128); fill-opacity:1.000; stroke:none;" />
 <path d="  M 24,358  L 24,357  L 23,357  L 23,358  L 22,358  L 22,359  L 25,359  L 25,358  Z  " style="fill:rgb(128, 128, 128); fill-opacity:1.000; stroke:none;" />
 <path d="  M 26,287  L 26,286  L 25,286  L 25,287  Z  " style="fill:rgb(128, 128, 128); fill-opacity:1.000; stroke:none;" />
 <path d="  M 25,357  L 26,357  L 26,356  L 25,356  Z  " style="fill:rgb(128, 128, 128); fill-opacity:1.000; stroke:none;" />
 <path d="  M 27,285  L 26,285  L 26,286  L 27,286  Z  " style="fill:rgb(128, 128, 128); fill-opacity:1.000; stroke:none;" />
 <path d="  M 26,289  L 26,290  L 27,290  L 27,289  Z  " style="fill:rgb(128, 128, 128); fill-opacity:1.000; stroke:none;" />
 <path d="  M 26,358  L 27,358  L 27,357  L 26,357  Z  " style="fill:rgb(128, 128, 128); fill-opacity:1.000; stroke:none;" />
 <path d="  M 27,288  L 27,289  L 28,289  L 28,288  Z  " style="fill:rgb(128, 128, 128); fill-opacity:1.000; stroke:none;" />
 <path d="  M 27,292  L 27,293  L 28,293  L 28,292  Z  " style="fill:rgb(128, 128, 128); fill-opacity:1.000; stroke:none;" />
 <path d="  M 28,291  L 28,292  L 29,292  L 29,291  Z  " style="fill:rgb(128, 128, 128); fill-opacity:1.000; stroke:none;" />
 <path d="  M 37,358  L 37,357  L 38,357  L 38,356  L 29,356  L 29,357  L 28,357  L 28,358  Z  " style="fill:rgb(128, 128, 128); fill-opacity:1.000; stroke:none;" />
 <path d="  M 29,296  L 29,297  L 30,297  L 30,296  Z  " style="fill:rgb(128, 128, 128); fill-opacity:1.000; stroke:none;" />
 <path d="  M 31,296  L 31,295  L 30,295  L 30,296  Z  " style="fill:rgb(128, 128, 128); fill-opacity:1.000; stroke:none;" />
 <path d="  M 37,301  L 37,300  L 36,300  L 36,301  Z  " style="fill:rgb(128, 128, 128); fill-opacity:1.000; stroke:none;" />
 <path d="  M 38,299  L 37,299  L 37,300  L 38,300  Z  " style="fill:rgb(128, 128, 128); fill-opacity:1.000; stroke:none;" />
 <path d="  M 42,358  L 42,357  L 40,357  L 40,358  L 39,358  L 39,359  L 43,359  L 43,358  Z  " style="fill:rgb(128, 128, 128); fill-opacity:1.000; stroke:none;" />
 <path d="  M 44,356  L 44,357  L 45,357  L 45,356  Z  " style="fill:rgb(128, 128, 128); fill-opacity:1.000; stroke:none;" />
 <path d="  M 45,357  L 45,358  L 46,358  L 46,357  Z  " style="fill:rgb(128, 128, 128); fill-opacity:1.000; stroke:none;" />
 <path d="  M 49,355  L 47,355  L 47,356  L 48,356  L 48,357  L 50,357  L 50,356  L 49,356  Z  " style="fill:rgb(128, 128, 128); fill-opacity:1.000; stroke:none;" />
 <path d="  M 53,302  L 53,301  L 54,301  L 54,300  L 50,300  L 50,301  L 49,301  L 49,302  Z  " style="fill:rgb(128, 128, 128); fill-opacity:1.000; stroke:none;" />
 <path d="  M 55,355  L 55,356  L 56,356  L 56,355  Z  " style="fill:rgb(128, 128, 128); fill-opacity:1.000; stroke:none;" />
 <path d="  M 56,357  L 57,357  L 57,356  L 56,356  Z  " style="fill:rgb(128, 128, 128); fill-opacity:1.000; stroke:none;" />
 <path d="  M 57,302  L 57,303  L 58,303  L 58,302  Z  " style="fill:rgb(128, 128, 128); fill-opacity:1.000; stroke:none;" />
 <path d="  M 58,302  L 59,302  L 59,301  L 58,301  Z  " style="fill:rgb(128, 128, 128); fill-opacity:1.000; stroke:none;" />
 <path d="  M 61,355  L 61,356  L 60,356  L 60,357  L 63,357  L 63,356  L 64,356  L 64,355  Z  " style="fill:rgb(128, 128, 128); fill-opacity:1.000; stroke:none;" />
 <path d="  M 61,328  L 62,328  L 62,327  L 63,327  L 63,326  L 62,326  L 62,325  L 61,325  Z  " style="fill:rgb(128, 128, 128); fill-opacity:1.000; stroke:none;" />
 <path d="  M 63,322  L 62,322  L 62,323  L 63,323  Z  " style="fill:rgb(128, 128, 128); fill-opacity:1.000; stroke:none;" />
 <path d="  M 63,330  L 62,330  L 62,331  L 63,331  Z  " style="fill:rgb(128, 128, 128); fill-opacity:1.000; stroke:none;" />
 <path d="  M 64,320  L 63,320  L 63,321  L 64,321  Z  " style="fill:rgb(128, 128, 128); fill-opacity:1.000; stroke:none;" />
 <path d="  M 63,323  L 63,324  L 64,324  L 64,323  Z  " style="fill:rgb(128, 128, 128); fill-opacity:1.000; stroke:none;" />
 <path d="  M 64,329  L 63,329  L 63,330  L 64,330  Z  " style="fill:rgb(128, 128, 128); fill-opacity:1.000; stroke:none;" />
 <path d="  M 64,310  L 65,310  L 65,309  L 64,309  Z  " style="fill:rgb(128, 128, 128); fill-opacity:1.000; stroke:none;" />
 <path d="  M 65,317  L 64,317  L 64,318  L 65,318  Z  " style="fill:rgb(128, 128, 128); fill-opacity:1.000; stroke:none;" />
 <path d="  M 64,321  L 64,322  L 65,322  L 65,321  Z  " style="fill:rgb(128, 128, 128); fill-opacity:1.000; stroke:none;" />
 <path d="  M 66,308  L 65,308  L 65,309  L 66,309  Z  " style="fill:rgb(128, 128, 128); fill-opacity:1.000; stroke:none;" />
 <path d="  M 65,314  L 66,314  L 66,315  L 67,315  L 67,311  L 66,311  L 66,312  L 65,312  Z  " style="fill:rgb(128, 128, 128); fill-opacity:1.000; stroke:none;" />
 <path d="  M 66,318  L 65,318  L 65,319  L 66,319  Z  " style="fill:rgb(128, 128, 128); fill-opacity:1.000; stroke:none;" />
 <path d="  M 69,357  L 69,356  L 68,356  L 68,355  L 65,355  L 65,356  L 66,356  L 66,357  Z  " style="fill:rgb(128, 128, 128); fill-opacity:1.000; stroke:none;" />
 <path d="  M 66,336  L 66,337  L 67,337  L 67,336  Z  " style="fill:rgb(128, 128, 128); fill-opacity:1.000; stroke:none;" />
 <path d="  M 67,335  L 67,336  L 68,336  L 68,335  Z  " style="fill:rgb(128, 128, 128); fill-opacity:1.000; stroke:none;" />
 <path d="  M 67,342  L 68,342  L 68,341  L 69,341  L 69,338  L 68,338  L 68,339  L 67,339  Z  " style="fill:rgb(128, 128, 128); fill-opacity:1.000; stroke:none;" />
 <path d="  M 69,353  L 69,354  L 70,354  L 70,353  Z  " style="fill:rgb(128, 128, 128); fill-opacity:1.000; stroke:none;" />
 <path d="  M 71,355  L 71,354  L 70,354  L 70,355  Z  " style="fill:rgb(128, 128, 128); fill-opacity:1.000; stroke:none;" />
 <path d="  M 352,350  L 351,350  L 351,349  L 350,349  L 350,354  L 351,354  L 351,353  L 352,353  Z  " style="fill:rgb(128, 128, 128); fill-opacity:1.000; stroke:none;" />
 <path d="  M 353,354  L 352,354  L 352,355  L 353,355  Z  " style="fill:rgb(128, 128, 128); fill-opacity:1.000; stroke:none;" />
 <path d="  M 355,340  L 354,340  L 354,341  L 355,341  Z  " style="fill:rgb(128, 128, 128); fill-opacity:1.000; stroke:none;" />
 <path d="  M 356,356  L 357,356  L 357,355  L 355,355  L 355,356  L 354,356  L 354,357  L 356,357  Z  " style="fill:rgb(128, 128, 128); fill-opacity:1.000; stroke:none;" />
 <path d="  M 355,337  L 356,337  L 356,336  L 355,336  Z  " style="fill:rgb(128, 128, 128); fill-opacity:1.000; stroke:none;" />
 <path d="  M 356,342  L 356,341  L 355,341  L 355,342  Z  " style="fill:rgb(128, 128, 128); fill-opacity:1.000; stroke:none;" />
 <path d="  M 356,332  L 356,333  L 357,333  L 357,332  Z  " style="fill:rgb(128, 128, 128); fill-opacity:1.000; stroke:none;" />
 <path d="  M 357,337  L 356,337  L 356,338  L 357,338  Z  " style="fill:rgb(128, 128, 128); fill-opacity:1.000; stroke:none;" />
 <path d="  M 357,329  L 357,330  L 358,330  L 358,329  Z  " style="fill:rgb(128, 128, 128); fill-opacity:1.000; stroke:none;" />
 <path d="  M 358,333  L 357,333  L 357,334  L 358,334  Z  " style="fill:rgb(128, 128, 128); fill-opacity:1.000; stroke:none;" />
 <path d="  M 359,326  L 358,326  L 358,327  L 359,327  Z  " style="fill:rgb(128, 128, 128); fill-opacity:1.000; stroke:none;" />
 <path d="  M 359,330  L 358,330  L 358,331  L 359,331  Z  " style="fill:rgb(128, 128, 128); fill-opacity:1.000; stroke:none;" />
 <path d="  M 360,328  L 360,327  L 359,327  L 359,328  Z  " style="fill:rgb(128, 128, 128); fill-opacity:1.000; stroke:none;" />
 <path d="  M 360,322  L 361,322  L 361,321  L 360,321  Z  " style="fill:rgb(128, 128, 128); fill-opacity:1.000; stroke:none;" />
 <path d="  M 362,323  L 362,322  L 361,322  L 361,323  Z  " style="fill:rgb(128, 128, 128); fill-opacity:1.000; stroke:none;" />
 <path d="  M 363,319  L 363,318  L 362,318  L 362,319  Z  " style="fill:rgb(128, 128, 128); fill-opacity:1.000; stroke:none;" />
 <path d="  M 363,316  L 363,317  L 364,317  L 364,316  Z  " style="fill:rgb(128, 128, 128); fill-opacity:1.000; stroke:none;" />
 <path d="  M 364,319  L 363,319  L 363,320  L 364,320  Z  " style="fill:rgb(128, 128, 128); fill-opacity:1.000; stroke:none;" />
 <path d="  M 365,318  L 365,317  L 364,317  L 364,318  Z  " style="fill:rgb(128, 128, 128); fill-opacity:1.000; stroke:none;" />
 <path d="  M 369,312  L 369,311  L 368,311  L 368,312  Z  " style="fill:rgb(128, 128, 128); fill-opacity:1.000; stroke:none;" />
 <path d="  M 369,313  L 370,313  L 370,312  L 369,312  Z  " style="fill:rgb(128, 128, 128); fill-opacity:1.000; stroke:none;" />
 <path d="  M 370,357  L 370,358  L 371,358  L 371,357  Z  " style="fill:rgb(128, 128, 128); fill-opacity:1.000; stroke:none;" />
 <path d="  M 372,284  L 372,282  L 371,282  L 371,284  Z  " style="fill:rgb(128, 128, 128); fill-opacity:1.000; stroke:none;" />
 <path d="  M 373,278  L 373,277  L 372,277  L 372,278  Z  " style="fill:rgb(128, 128, 128); fill-opacity:1.000; stroke:none;" />
 <path d="  M 374,289  L 373,289  L 373,290  L 372,290  L 372,294  L 373,294  L 373,293  L 374,293  Z  " style="fill:rgb(128, 128, 128); fill-opacity:1.000; stroke:none;" />
 <path d="  M 373,278  L 373,279  L 374,279  L 374,278  Z  " style="fill:rgb(128, 128, 128); fill-opacity:1.000; stroke:none;" />
 <path d="  M 375,274  L 375,273  L 374,273  L 374,274  Z  " style="fill:rgb(128, 128, 128); fill-opacity:1.000; stroke:none;" />
 <path d="  M 374,309  L 375,309  L 375,308  L 374,308  Z  " style="fill:rgb(128, 128, 128); fill-opacity:1.000; stroke:none;" />
 <path d="  M 375,274  L 375,275  L 376,275  L 376,274  Z  " style="fill:rgb(128, 128, 128); fill-opacity:1.000; stroke:none;" />
 <path d="  M 376,310  L 376,309  L 375,309  L 375,310  Z  " style="fill:rgb(128, 128, 128); fill-opacity:1.000; stroke:none;" />
 <path d="  M 377,272  L 377,271  L 376,271  L 376,272  Z  " style="fill:rgb(128, 128, 128); fill-opacity:1.000; stroke:none;" />
 <path d="  M 377,299  L 376,299  L 376,300  L 377,300  Z  " style="fill:rgb(128, 128, 128); fill-opacity:1.000; stroke:none;" />
 <path d="  M 377,273  L 378,273  L 378,272  L 377,272  Z  " style="fill:rgb(128, 128, 128); fill-opacity:1.000; stroke:none;" />
 <path d="  M 378,299  L 378,298  L 377,298  L 377,299  Z  " style="fill:rgb(128, 128, 128); fill-opacity:1.000; stroke:none;" />
 <path d="  M 378,270  L 378,271  L 379,271  L 379,270  Z  " style="fill:rgb(128, 128, 128); fill-opacity:1.000; stroke:none;" />
 <path d="  M 380,356  L 380,355  L 378,355  L 378,356  L 379,356  L 379,357  L 381,357  L 381,356  Z  " style="fill:rgb(128, 128, 128); fill-opacity:1.000; stroke:none;" />
 <path d="  M 379,272  L 380,272  L 380,271  L 379,271  Z  " style="fill:rgb(128, 128, 128); fill-opacity:1.000; stroke:none;" />
 <path d="  M 379,305  L 380,305  L 380,306  L 381,306  L 381,302  L 380,302  L 380,303  L 379,303  Z  " style="fill:rgb(128, 128, 128); fill-opacity:1.000; stroke:none;" />
 <path d="  M 382,269  L 381,269  L 381,270  L 382,270  Z  " style="fill:rgb(128, 128, 128); fill-opacity:1.000; stroke:none;" />
 <path d="  M 383,271  L 383,270  L 382,270  L 382,271  Z  " style="fill:rgb(128, 128, 128); fill-opacity:1.000; stroke:none;" />
 <path d="  M 386,356  L 386,355  L 385,355  L 385,354  L 382,354  L 382,355  L 383,355  L 383,356  Z  " style="fill:rgb(128, 128, 128); fill-opacity:1.000; stroke:none;" />
 <path d="  M 384,268  L 384,269  L 385,269  L 385,270  L 392,270  L 392,269  L 393,269  L 393,268  Z  " style="fill:rgb(128, 128, 128); fill-opacity:1.000; stroke:none;" />
 <path d="  M 391,353  L 388,353  L 388,354  L 389,354  L 389,355  L 392,355  L 392,354  L 391,354  Z  " style="fill:rgb(128, 128, 128); fill-opacity:1.000; stroke:none;" />
 <path d="  M 396,270  L 395,270  L 395,271  L 396,271  Z  " style="fill:rgb(128, 128, 128); fill-opacity:1.000; stroke:none;" />
 <path d="  M 396,269  L 396,270  L 397,270  L 397,269  Z  " style="fill:rgb(128, 128, 128); fill-opacity:1.000; stroke:none;" />
 <path d="  M 405,278  L 405,277  L 404,277  L 404,278  Z  " style="fill:rgb(128, 128, 128); fill-opacity:1.000; stroke:none;" />
 <path d="  M 406,277  L 406,276  L 405,276  L 405,277  Z  " style="fill:rgb(128, 128, 128); fill-opacity:1.000; stroke:none;" />
 <path d="  M 408,284  L 408,285  L 409,285  L 409,284  Z  " style="fill:rgb(128, 128, 128); fill-opacity:1.000; stroke:none;" />
 <path d="  M 408,355  L 410,355  L 410,354  L 411,354  L 411,353  L 409,353  L 409,354  L 408,354  Z  " style="fill:rgb(128, 128, 128); fill-opacity:1.000; stroke:none;" />
 <path d="  M 409,283  L 409,284  L 410,284  L 410,283  Z  " style="fill:rgb(128, 128, 128); fill-opacity:1.000; stroke:none;" />
 <path d="  M 411,287  L 410,287  L 410,288  L 411,288  Z  " style="fill:rgb(128, 128, 128); fill-opacity:1.000; stroke:none;" />
 <path d="  M 412,286  L 411,286  L 411,287  L 412,287  Z  " style="fill:rgb(128, 128, 128); fill-opacity:1.000; stroke:none;" />
 <path d="  M 411,290  L 411,293  L 412,293  L 412,292  L 413,292  L 413,289  L 412,289  L 412,290  Z  " style="fill:rgb(128, 128, 128); fill-opacity:1.000; stroke:none;" />
 <path d="  M 412,295  L 412,296  L 413,296  L 413,295  Z  " style="fill:rgb(128, 128, 128); fill-opacity:1.000; stroke:none;" />
 <path d="  M 416,354  L 413,354  L 413,355  L 412,355  L 412,356  L 415,356  L 415,355  L 416,355  Z  " style="fill:rgb(128, 128, 128); fill-opacity:1.000; stroke:none;" />
 <path d="  M 414,294  L 413,294  L 413,295  L 414,295  Z  " style="fill:rgb(128, 128, 128); fill-opacity:1.000; stroke:none;" />
 <path d="  M 422,307  L 422,308  L 423,308  L 423,307  Z  " style="fill:rgb(128, 128, 128); fill-opacity:1.000; stroke:none;" />
 <path d="  M 423,307  L 424,307  L 424,306  L 423,306  Z  " style="fill:rgb(128, 128, 128); fill-opacity:1.000; stroke:none;" />
 <path d="  M 432,355  L 432,356  L 438,356  L 438,355  L 439,355  L 439,354  L 423,354  L 423,355  L 424,355  L 424,356  L 429,356  L 429,355  Z  " style="fill:rgb(128, 128, 128); fill-opacity:1.000; stroke:none;" />
 <path d="  M 436,321  L 436,322  L 437,322  L 437,321  Z  " style="fill:rgb(128, 128, 128); fill-opacity:1.000; stroke:none;" />
 <path d="  M 437,320  L 437,321  L 438,321  L 438,320  Z  " style="fill:rgb(128, 128, 128); fill-opacity:1.000; stroke:none;" />
 <path d="  M 440,329  L 441,329  L 441,328  L 440,328  Z  " style="fill:rgb(128, 128, 128); fill-opacity:1.000; stroke:none;" />
 <path d="  M 442,327  L 441,327  L 441,328  L 442,328  Z  " style="fill:rgb(128, 128, 128); fill-opacity:1.000; stroke:none;" />
 <path d="  M 442,330  L 442,331  L 441,331  L 441,333  L 442,333  L 442,332  L 443,332  L 443,330  Z  " style="fill:rgb(128, 128, 128); fill-opacity:1.000; stroke:none;" />
 <path d="  M 443,338  L 443,337  L 444,337  L 444,334  L 443,334  L 443,335  L 442,335  L 442,338  Z  " style="fill:rgb(128, 128, 128); fill-opacity:1.000; stroke:none;" />
 <path d="  M 445,340  L 444,340  L 444,341  L 443,341  L 443,343  L 444,343  L 444,342  L 445,342  Z  " style="fill:rgb(128, 128, 128); fill-opacity:1.000; stroke:none;" />
 <path d="  M 444,348  L 445,348  L 445,347  L 446,347  L 446,344  L 445,344  L 445,345  L 444,345  Z  " style="fill:rgb(128, 128, 128); fill-opacity:1.000; stroke:none;" />
 <path d="  M 446,352  L 446,351  L 447,351  L 447,349  L 446,349  L 446,350  L 445,350  L 445,352  Z  " style="fill:rgb(128, 128, 128); fill-opacity:1.000; stroke:none;" />
 <path d="  M 1,44  L 1,43  L 0,43  L 0,44  Z  " style="fill:rgb(191, 191, 191); fill-opacity:1.000; stroke:none;" />
 <path d="  M 1,2  L 1,3  L 2,3  L 2,2  Z  " style="fill:rgb(191, 191, 191); fill-opacity:1.000; stroke:none;" />
 <path d="  M 3,6  L 3,5  L 2,5  L 2,6  Z  " style="fill:rgb(191, 191, 191); fill-opacity:1.000; stroke:none;" />
 <path d="  M 3,42  L 2,42  L 2,43  L 3,43  Z  " style="fill:rgb(191, 191, 191); fill-opacity:1.000; stroke:none;" />
 <path d="  M 3,45  L 3,44  L 2,44  L 2,45  Z  " style="fill:rgb(191, 191, 191); fill-opacity:1.000; stroke:none;" />
 <path d="  M 3,12  L 4,12  L 4,11  L 3,11  Z  " style="fill:rgb(191, 191, 191); fill-opacity:1.000; stroke:none;" />
 <path d="  M 4,41  L 3,41  L 3,42  L 4,42  Z  " style="fill:rgb(191, 191, 191); fill-opacity:1.000; stroke:none;" />
 <path d="  M 3,265  L 4,265  L 4,264  L 3,264  Z  " style="fill:rgb(191, 191, 191); fill-opacity:1.000; stroke:none;" />
 <path d="  M 4,5  L 4,6  L 5,6  L 5,5  Z  " style="fill:rgb(191, 191, 191); fill-opacity:1.000; stroke:none;" />
 <path d="  M 5,10  L 5,9  L 4,9  L 4,10  Z  " style="fill:rgb(191, 191, 191); fill-opacity:1.000; stroke:none;" />
 <path d="  M 4,13  L 5,13  L 5,12  L 4,12  Z  " style="fill:rgb(191, 191, 191); fill-opacity:1.000; stroke:none;" />
 <path d="  M 5,38  L 4,38  L 4,39  L 5,39  Z  " style="fill:rgb(191, 191, 191); fill-opacity:1.000; stroke:none;" />
 <path d="  M 5,266  L 6,266  L 6,265  L 5,265  Z  " style="fill:rgb(191, 191, 191); fill-opacity:1.000; stroke:none;" />
 <path d="  M 7,11  L 6,11  L 6,12  L 7,12  Z  " style="fill:rgb(191, 191, 191); fill-opacity:1.000; stroke:none;" />
 <path d="  M 7,15  L 7,14  L 6,14  L 6,15  Z  " style="fill:rgb(191, 191, 191); fill-opacity:1.000; stroke:none;" />
 <path d="  M 7,28  L 7,27  L 6,27  L 6,28  Z  " style="fill:rgb(191, 191, 191); fill-opacity:1.000; stroke:none;" />
 <path d="  M 7,38  L 7,37  L 6,37  L 6,38  Z  " style="fill:rgb(191, 191, 191); fill-opacity:1.000; stroke:none;" />
 <path d="  M 7,13  L 8,13  L 8,12  L 7,12  Z  " style="fill:rgb(191, 191, 191); fill-opacity:1.000; stroke:none;" />
 <path d="  M 7,22  L 7,23  L 8,23  L 8,22  Z  " style="fill:rgb(191, 191, 191); fill-opacity:1.000; stroke:none;" />
 <path d="  M 9,16  L 10,16  L 10,15  L 9,15  Z  " style="fill:rgb(191, 191, 191); fill-opacity:1.000; stroke:none;" />
 <path d="  M 10,21  L 9,21  L 9,22  L 10,22  Z  " style="fill:rgb(191, 191, 191); fill-opacity:1.000; stroke:none;" />
 <path d="  M 10,267  L 9,267  L 9,268  L 10,268  Z  " style="fill:rgb(191, 191, 191); fill-opacity:1.000; stroke:none;" />
 <path d="  M 10,269  L 9,269  L 9,270  L 10,270  Z  " style="fill:rgb(191, 191, 191); fill-opacity:1.000; stroke:none;" />
 <path d="  M 11,269  L 12,269  L 12,268  L 11,268  Z  " style="fill:rgb(191, 191, 191); fill-opacity:1.000; stroke:none;" />
 <path d="  M 12,357  L 11,357  L 11,358  L 12,358  Z  " style="fill:rgb(191, 191, 191); fill-opacity:1.000; stroke:none;" />
 <path d="  M 13,272  L 14,272  L 14,271  L 13,271  Z  " style="fill:rgb(191, 191, 191); fill-opacity:1.000; stroke:none;" />
 <path d="  M 15,357  L 15,356  L 14,356  L 14,357  Z  " style="fill:rgb(191, 191, 191); fill-opacity:1.000; stroke:none;" />
 <path d="  M 16,270  L 15,270  L 15,271  L 16,271  Z  " style="fill:rgb(191, 191, 191); fill-opacity:1.000; stroke:none;" />
 <path d="  M 17,271  L 16,271  L 16,272  L 17,272  Z  " style="fill:rgb(191, 191, 191); fill-opacity:1.000; stroke:none;" />
 <path d="  M 16,274  L 16,275  L 17,275  L 17,274  Z  " style="fill:rgb(191, 191, 191); fill-opacity:1.000; stroke:none;" />
 <path d="  M 18,276  L 17,276  L 17,277  L 18,277  Z  " style="fill:rgb(191, 191, 191); fill-opacity:1.000; stroke:none;" />
 <path d="  M 18,275  L 19,275  L 19,274  L 18,274  Z  " style="fill:rgb(191, 191, 191); fill-opacity:1.000; stroke:none;" />
 <path d="  M 18,278  L 19,278  L 19,277  L 18,277  Z  " style="fill:rgb(191, 191, 191); fill-opacity:1.000; stroke:none;" />
 <path d="  M 20,278  L 21,278  L 21,277  L 20,277  Z  " style="fill:rgb(191, 191, 191); fill-opacity:1.000; stroke:none;" />
 <path d="  M 21,280  L 20,280  L 20,281  L 21,281  Z  " style="fill:rgb(191, 191, 191); fill-opacity:1.000; stroke:none;" />
 <path d="  M 22,281  L 21,281  L 21,282  L 22,282  Z  " style="fill:rgb(191, 191, 191); fill-opacity:1.000; stroke:none;" />
 <path d="  M 22,358  L 21,358  L 21,359  L 22,359  Z  " style="fill:rgb(191, 191, 191); fill-opacity:1.000; stroke:none;" />
 <path d="  M 22,282  L 22,283  L 23,283  L 23,282  Z  " style="fill:rgb(191, 191, 191); fill-opacity:1.000; stroke:none;" />
 <path d="  M 24,283  L 23,283  L 23,284  L 24,284  Z  " style="fill:rgb(191, 191, 191); fill-opacity:1.000; stroke:none;" />
 <path d="  M 25,283  L 25,284  L 26,284  L 26,283  Z  " style="fill:rgb(191, 191, 191); fill-opacity:1.000; stroke:none;" />
 <path d="  M 25,288  L 26,288  L 26,287  L 25,287  Z  " style="fill:rgb(191, 191, 191); fill-opacity:1.000; stroke:none;" />
 <path d="  M 25,359  L 26,359  L 26,358  L 25,358  Z  " style="fill:rgb(191, 191, 191); fill-opacity:1.000; stroke:none;" />
 <path d="  M 27,287  L 27,288  L 28,288  L 28,287  Z  " style="fill:rgb(191, 191, 191); fill-opacity:1.000; stroke:none;" />
 <path d="  M 27,294  L 28,294  L 28,293  L 27,293  Z  " style="fill:rgb(191, 191, 191); fill-opacity:1.000; stroke:none;" />
 <path d="  M 29,291  L 29,290  L 28,290  L 28,291  Z  " style="fill:rgb(191, 191, 191); fill-opacity:1.000; stroke:none;" />
 <path d="  M 28,295  L 28,296  L 29,296  L 29,295  Z  " style="fill:rgb(191, 191, 191); fill-opacity:1.000; stroke:none;" />
 <path d="  M 29,293  L 29,294  L 30,294  L 30,293  Z  " style="fill:rgb(191, 191, 191); fill-opacity:1.000; stroke:none;" />
 <path d="  M 32,296  L 31,296  L 31,297  L 32,297  Z  " style="fill:rgb(191, 191, 191); fill-opacity:1.000; stroke:none;" />
 <path d="  M 31,298  L 31,299  L 32,299  L 32,298  Z  " style="fill:rgb(191, 191, 191); fill-opacity:1.000; stroke:none;" />
 <path d="  M 33,300  L 33,299  L 32,299  L 32,300  Z  " style="fill:rgb(191, 191, 191); fill-opacity:1.000; stroke:none;" />
 <path d="  M 34,298  L 34,299  L 35,299  L 35,298  Z  " style="fill:rgb(191, 191, 191); fill-opacity:1.000; stroke:none;" />
 <path d="  M 36,301  L 36,300  L 35,300  L 35,301  Z  " style="fill:rgb(191, 191, 191); fill-opacity:1.000; stroke:none;" />
 <path d="  M 39,299  L 38,299  L 38,300  L 39,300  Z  " style="fill:rgb(191, 191, 191); fill-opacity:1.000; stroke:none;" />
 <path d="  M 39,357  L 39,356  L 38,356  L 38,357  Z  " style="fill:rgb(191, 191, 191); fill-opacity:1.000; stroke:none;" />
 <path d="  M 47,358  L 47,357  L 46,357  L 46,358  Z  " style="fill:rgb(191, 191, 191); fill-opacity:1.000; stroke:none;" />
 <path d="  M 52,356  L 52,357  L 53,357  L 53,356  Z  " style="fill:rgb(191, 191, 191); fill-opacity:1.000; stroke:none;" />
 <path d="  M 60,301  L 59,301  L 59,302  L 60,302  Z  " style="fill:rgb(191, 191, 191); fill-opacity:1.000; stroke:none;" />
 <path d="  M 60,303  L 59,303  L 59,304  L 60,304  Z  " style="fill:rgb(191, 191, 191); fill-opacity:1.000; stroke:none;" />
 <path d="  M 59,356  L 59,357  L 60,357  L 60,356  Z  " style="fill:rgb(191, 191, 191); fill-opacity:1.000; stroke:none;" />
 <path d="  M 61,305  L 61,304  L 60,304  L 60,305  Z  " style="fill:rgb(191, 191, 191); fill-opacity:1.000; stroke:none;" />
 <path d="  M 64,304  L 63,304  L 63,305  L 64,305  Z  " style="fill:rgb(191, 191, 191); fill-opacity:1.000; stroke:none;" />
 <path d="  M 63,319  L 63,320  L 64,320  L 64,319  Z  " style="fill:rgb(191, 191, 191); fill-opacity:1.000; stroke:none;" />
 <path d="  M 64,332  L 63,332  L 63,333  L 64,333  Z  " style="fill:rgb(191, 191, 191); fill-opacity:1.000; stroke:none;" />
 <path d="  M 65,306  L 65,305  L 64,305  L 64,306  Z  " style="fill:rgb(191, 191, 191); fill-opacity:1.000; stroke:none;" />
 <path d="  M 64,316  L 64,317  L 65,317  L 65,316  Z  " style="fill:rgb(191, 191, 191); fill-opacity:1.000; stroke:none;" />
 <path d="  M 64,333  L 64,334  L 65,334  L 65,333  Z  " style="fill:rgb(191, 191, 191); fill-opacity:1.000; stroke:none;" />
 <path d="  M 66,307  L 65,307  L 65,308  L 66,308  Z  " style="fill:rgb(191, 191, 191); fill-opacity:1.000; stroke:none;" />
 <path d="  M 65,320  L 66,320  L 66,319  L 65,319  Z  " style="fill:rgb(191, 191, 191); fill-opacity:1.000; stroke:none;" />
 <path d="  M 66,335  L 66,334  L 65,334  L 65,335  Z  " style="fill:rgb(191, 191, 191); fill-opacity:1.000; stroke:none;" />
 <path d="  M 67,316  L 67,315  L 66,315  L 66,316  Z  " style="fill:rgb(191, 191, 191); fill-opacity:1.000; stroke:none;" />
 <path d="  M 66,337  L 66,338  L 67,338  L 67,337  Z  " style="fill:rgb(191, 191, 191); fill-opacity:1.000; stroke:none;" />
 <path d="  M 70,343  L 69,343  L 69,344  L 70,344  Z  " style="fill:rgb(191, 191, 191); fill-opacity:1.000; stroke:none;" />
 <path d="  M 70,350  L 70,349  L 69,349  L 69,350  Z  " style="fill:rgb(191, 191, 191); fill-opacity:1.000; stroke:none;" />
 <path d="  M 69,352  L 69,353  L 70,353  L 70,352  Z  " style="fill:rgb(191, 191, 191); fill-opacity:1.000; stroke:none;" />
 <path d="  M 70,356  L 69,356  L 69,357  L 70,357  Z  " style="fill:rgb(191, 191, 191); fill-opacity:1.000; stroke:none;" />
 <path d="  M 70,355  L 70,356  L 71,356  L 71,355  Z  " style="fill:rgb(191, 191, 191); fill-opacity:1.000; stroke:none;" />
 <path d="  M 351,347  L 352,347  L 352,346  L 351,346  Z  " style="fill:rgb(191, 191, 191); fill-opacity:1.000; stroke:none;" />
 <path d="  M 351,355  L 351,356  L 352,356  L 352,355  Z  " style="fill:rgb(191, 191, 191); fill-opacity:1.000; stroke:none;" />
 <path d="  M 352,344  L 352,345  L 353,345  L 353,344  Z  " style="fill:rgb(191, 191, 191); fill-opacity:1.000; stroke:none;" />
 <path d="  M 353,349  L 353,348  L 352,348  L 352,349  Z  " style="fill:rgb(191, 191, 191); fill-opacity:1.000; stroke:none;" />
 <path d="  M 354,343  L 354,342  L 353,342  L 353,343  Z  " style="fill:rgb(191, 191, 191); fill-opacity:1.000; stroke:none;" />
 <path d="  M 354,347  L 354,346  L 353,346  L 353,347  Z  " style="fill:rgb(191, 191, 191); fill-opacity:1.000; stroke:none;" />
 <path d="  M 354,357  L 354,356  L 353,356  L 353,357  Z  " style="fill:rgb(191, 191, 191); fill-opacity:1.000; stroke:none;" />
 <path d="  M 356,336  L 356,335  L 355,335  L 355,336  Z  " style="fill:rgb(191, 191, 191); fill-opacity:1.000; stroke:none;" />
 <path d="  M 357,334  L 357,335  L 358,335  L 358,334  Z  " style="fill:rgb(191, 191, 191); fill-opacity:1.000; stroke:none;" />
 <path d="  M 358,332  L 359,332  L 359,331  L 358,331  Z  " style="fill:rgb(191, 191, 191); fill-opacity:1.000; stroke:none;" />
 <path d="  M 360,324  L 360,323  L 359,323  L 359,324  Z  " style="fill:rgb(191, 191, 191); fill-opacity:1.000; stroke:none;" />
 <path d="  M 360,329  L 360,328  L 359,328  L 359,329  Z  " style="fill:rgb(191, 191, 191); fill-opacity:1.000; stroke:none;" />
 <path d="  M 361,325  L 360,325  L 360,326  L 361,326  Z  " style="fill:rgb(191, 191, 191); fill-opacity:1.000; stroke:none;" />
 <path d="  M 362,320  L 362,319  L 361,319  L 361,320  Z  " style="fill:rgb(191, 191, 191); fill-opacity:1.000; stroke:none;" />
 <path d="  M 362,322  L 363,322  L 363,321  L 362,321  Z  " style="fill:rgb(191, 191, 191); fill-opacity:1.000; stroke:none;" />
 <path d="  M 365,313  L 365,314  L 366,314  L 366,313  Z  " style="fill:rgb(191, 191, 191); fill-opacity:1.000; stroke:none;" />
 <path d="  M 365,317  L 366,317  L 366,316  L 365,316  Z  " style="fill:rgb(191, 191, 191); fill-opacity:1.000; stroke:none;" />
 <path d="  M 368,313  L 368,314  L 369,314  L 369,313  Z  " style="fill:rgb(191, 191, 191); fill-opacity:1.000; stroke:none;" />
 <path d="  M 370,357  L 369,357  L 369,358  L 370,358  Z  " style="fill:rgb(191, 191, 191); fill-opacity:1.000; stroke:none;" />
 <path d="  M 372,310  L 372,309  L 371,309  L 371,310  Z  " style="fill:rgb(191, 191, 191); fill-opacity:1.000; stroke:none;" />
 <path d="  M 372,312  L 372,311  L 371,311  L 371,312  Z  " style="fill:rgb(191, 191, 191); fill-opacity:1.000; stroke:none;" />
 <path d="  M 371,358  L 372,358  L 372,357  L 371,357  Z  " style="fill:rgb(191, 191, 191); fill-opacity:1.000; stroke:none;" />
 <path d="  M 372,276  L 372,277  L 373,277  L 373,276  Z  " style="fill:rgb(191, 191, 191); fill-opacity:1.000; stroke:none;" />
 <path d="  M 374,275  L 374,274  L 373,274  L 373,275  Z  " style="fill:rgb(191, 191, 191); fill-opacity:1.000; stroke:none;" />
 <path d="  M 374,288  L 373,288  L 373,289  L 374,289  Z  " style="fill:rgb(191, 191, 191); fill-opacity:1.000; stroke:none;" />
 <path d="  M 373,309  L 374,309  L 374,308  L 373,308  Z  " style="fill:rgb(191, 191, 191); fill-opacity:1.000; stroke:none;" />
 <path d="  M 374,310  L 373,310  L 373,311  L 374,311  Z  " style="fill:rgb(191, 191, 191); fill-opacity:1.000; stroke:none;" />
 <path d="  M 375,276  L 374,276  L 374,277  L 375,277  Z  " style="fill:rgb(191, 191, 191); fill-opacity:1.000; stroke:none;" />
 <path d="  M 375,295  L 374,295  L 374,296  L 375,296  Z  " style="fill:rgb(191, 191, 191); fill-opacity:1.000; stroke:none;" />
 <path d="  M 376,296  L 375,296  L 375,297  L 376,297  Z  " style="fill:rgb(191, 191, 191); fill-opacity:1.000; stroke:none;" />
 <path d="  M 375,308  L 376,308  L 376,307  L 375,307  Z  " style="fill:rgb(191, 191, 191); fill-opacity:1.000; stroke:none;" />
 <path d="  M 376,274  L 377,274  L 377,273  L 376,273  Z  " style="fill:rgb(191, 191, 191); fill-opacity:1.000; stroke:none;" />
 <path d="  M 377,298  L 377,297  L 376,297  L 376,298  Z  " style="fill:rgb(191, 191, 191); fill-opacity:1.000; stroke:none;" />
 <path d="  M 378,301  L 378,300  L 377,300  L 377,301  Z  " style="fill:rgb(191, 191, 191); fill-opacity:1.000; stroke:none;" />
 <path d="  M 378,306  L 377,306  L 377,307  L 378,307  Z  " style="fill:rgb(191, 191, 191); fill-opacity:1.000; stroke:none;" />
 <path d="  M 377,308  L 377,309  L 378,309  L 378,308  Z  " style="fill:rgb(191, 191, 191); fill-opacity:1.000; stroke:none;" />
 <path d="  M 378,355  L 377,355  L 377,356  L 378,356  Z  " style="fill:rgb(191, 191, 191); fill-opacity:1.000; stroke:none;" />
 <path d="  M 378,305  L 378,306  L 379,306  L 379,305  Z  " style="fill:rgb(191, 191, 191); fill-opacity:1.000; stroke:none;" />
 <path d="  M 380,301  L 380,300  L 379,300  L 379,301  Z  " style="fill:rgb(191, 191, 191); fill-opacity:1.000; stroke:none;" />
 <path d="  M 380,269  L 380,270  L 381,270  L 381,269  Z  " style="fill:rgb(191, 191, 191); fill-opacity:1.000; stroke:none;" />
 <path d="  M 380,301  L 380,302  L 381,302  L 381,301  Z  " style="fill:rgb(191, 191, 191); fill-opacity:1.000; stroke:none;" />
 <path d="  M 382,356  L 381,356  L 381,357  L 382,357  Z  " style="fill:rgb(191, 191, 191); fill-opacity:1.000; stroke:none;" />
 <path d="  M 383,268  L 383,269  L 384,269  L 384,268  Z  " style="fill:rgb(191, 191, 191); fill-opacity:1.000; stroke:none;" />
 <path d="  M 395,271  L 395,270  L 394,270  L 394,271  Z  " style="fill:rgb(191, 191, 191); fill-opacity:1.000; stroke:none;" />
 <path d="  M 398,270  L 398,269  L 397,269  L 397,270  Z  " style="fill:rgb(191, 191, 191); fill-opacity:1.000; stroke:none;" />
 <path d="  M 397,271  L 397,272  L 398,272  L 398,271  Z  " style="fill:rgb(191, 191, 191); fill-opacity:1.000; stroke:none;" />
 <path d="  M 401,271  L 400,271  L 400,272  L 401,272  Z  " style="fill:rgb(191, 191, 191); fill-opacity:1.000; stroke:none;" />
 <path d="  M 401,274  L 401,273  L 400,273  L 400,274  Z  " style="fill:rgb(191, 191, 191); fill-opacity:1.000; stroke:none;" />
 <path d="  M 401,274  L 401,275  L 402,275  L 402,274  Z  " style="fill:rgb(191, 191, 191); fill-opacity:1.000; stroke:none;" />
 <path d="  M 402,276  L 403,276  L 403,275  L 402,275  Z  " style="fill:rgb(191, 191, 191); fill-opacity:1.000; stroke:none;" />
 <path d="  M 403,276  L 403,277  L 404,277  L 404,276  Z  " style="fill:rgb(191, 191, 191); fill-opacity:1.000; stroke:none;" />
 <path d="  M 406,279  L 405,279  L 405,280  L 406,280  Z  " style="fill:rgb(191, 191, 191); fill-opacity:1.000; stroke:none;" />
 <path d="  M 406,278  L 407,278  L 407,277  L 406,277  Z  " style="fill:rgb(191, 191, 191); fill-opacity:1.000; stroke:none;" />
 <path d="  M 407,281  L 406,281  L 406,282  L 407,282  Z  " style="fill:rgb(191, 191, 191); fill-opacity:1.000; stroke:none;" />
 <path d="  M 408,279  L 407,279  L 407,280  L 408,280  Z  " style="fill:rgb(191, 191, 191); fill-opacity:1.000; stroke:none;" />
 <path d="  M 409,281  L 408,281  L 408,282  L 409,282  Z  " style="fill:rgb(191, 191, 191); fill-opacity:1.000; stroke:none;" />
 <path d="  M 409,286  L 409,287  L 410,287  L 410,286  Z  " style="fill:rgb(191, 191, 191); fill-opacity:1.000; stroke:none;" />
 <path d="  M 411,284  L 410,284  L 410,285  L 411,285  Z  " style="fill:rgb(191, 191, 191); fill-opacity:1.000; stroke:none;" />
 <path d="  M 412,289  L 413,289  L 413,288  L 412,288  Z  " style="fill:rgb(191, 191, 191); fill-opacity:1.000; stroke:none;" />
 <path d="  M 413,297  L 413,296  L 412,296  L 412,297  Z  " style="fill:rgb(191, 191, 191); fill-opacity:1.000; stroke:none;" />
 <path d="  M 414,297  L 415,297  L 415,296  L 414,296  Z  " style="fill:rgb(191, 191, 191); fill-opacity:1.000; stroke:none;" />
 <path d="  M 414,299  L 415,299  L 415,298  L 414,298  Z  " style="fill:rgb(191, 191, 191); fill-opacity:1.000; stroke:none;" />
 <path d="  M 415,298  L 416,298  L 416,297  L 415,297  Z  " style="fill:rgb(191, 191, 191); fill-opacity:1.000; stroke:none;" />
 <path d="  M 415,299  L 415,300  L 416,300  L 416,299  Z  " style="fill:rgb(191, 191, 191); fill-opacity:1.000; stroke:none;" />
 <path d="  M 417,354  L 416,354  L 416,355  L 417,355  Z  " style="fill:rgb(191, 191, 191); fill-opacity:1.000; stroke:none;" />
 <path d="  M 417,299  L 417,300  L 418,300  L 418,299  Z  " style="fill:rgb(191, 191, 191); fill-opacity:1.000; stroke:none;" />
 <path d="  M 418,301  L 419,301  L 419,300  L 418,300  Z  " style="fill:rgb(191, 191, 191); fill-opacity:1.000; stroke:none;" />
 <path d="  M 420,301  L 419,301  L 419,302  L 420,302  Z  " style="fill:rgb(191, 191, 191); fill-opacity:1.000; stroke:none;" />
 <path d="  M 420,303  L 421,303  L 421,302  L 420,302  Z  " style="fill:rgb(191, 191, 191); fill-opacity:1.000; stroke:none;" />
 <path d="  M 421,303  L 421,304  L 422,304  L 422,303  Z  " style="fill:rgb(191, 191, 191); fill-opacity:1.000; stroke:none;" />
 <path d="  M 423,304  L 422,304  L 422,305  L 423,305  Z  " style="fill:rgb(191, 191, 191); fill-opacity:1.000; stroke:none;" />
 <path d="  M 422,354  L 422,355  L 423,355  L 423,354  Z  " style="fill:rgb(191, 191, 191); fill-opacity:1.000; stroke:none;" />
 <path d="  M 424,308  L 425,308  L 425,307  L 424,307  Z  " style="fill:rgb(191, 191, 191); fill-opacity:1.000; stroke:none;" />
 <path d="  M 426,309  L 426,308  L 425,308  L 425,309  Z  " style="fill:rgb(191, 191, 191); fill-opacity:1.000; stroke:none;" />
 <path d="  M 426,311  L 426,310  L 425,310  L 425,311  Z  " style="fill:rgb(191, 191, 191); fill-opacity:1.000; stroke:none;" />
 <path d="  M 427,312  L 427,311  L 426,311  L 426,312  Z  " style="fill:rgb(191, 191, 191); fill-opacity:1.000; stroke:none;" />
 <path d="  M 428,310  L 428,311  L 429,311  L 429,310  Z  " style="fill:rgb(191, 191, 191); fill-opacity:1.000; stroke:none;" />
 <path d="  M 429,312  L 428,312  L 428,313  L 429,313  Z  " style="fill:rgb(191, 191, 191); fill-opacity:1.000; stroke:none;" />
 <path d="  M 432,312  L 431,312  L 431,313  L 432,313  Z  " style="fill:rgb(191, 191, 191); fill-opacity:1.000; stroke:none;" />
 <path d="  M 432,313  L 432,314  L 433,314  L 433,313  Z  " style="fill:rgb(191, 191, 191); fill-opacity:1.000; stroke:none;" />
 <path d="  M 432,316  L 432,317  L 433,317  L 433,316  Z  " style="fill:rgb(191, 191, 191); fill-opacity:1.000; stroke:none;" />
 <path d="  M 433,317  L 433,318  L 434,318  L 434,317  Z  " style="fill:rgb(191, 191, 191); fill-opacity:1.000; stroke:none;" />
 <path d="  M 434,319  L 435,319  L 435,318  L 434,318  Z  " style="fill:rgb(191, 191, 191); fill-opacity:1.000; stroke:none;" />
 <path d="  M 436,319  L 437,319  L 437,318  L 436,318  Z  " style="fill:rgb(191, 191, 191); fill-opacity:1.000; stroke:none;" />
 <path d="  M 438,324  L 438,323  L 437,323  L 437,324  Z  " style="fill:rgb(191, 191, 191); fill-opacity:1.000; stroke:none;" />
 <path d="  M 439,322  L 439,321  L 438,321  L 438,322  Z  " style="fill:rgb(191, 191, 191); fill-opacity:1.000; stroke:none;" />
 <path d="  M 438,325  L 438,326  L 439,326  L 439,325  Z  " style="fill:rgb(191, 191, 191); fill-opacity:1.000; stroke:none;" />
 <path d="  M 439,324  L 440,324  L 440,323  L 439,323  Z  " style="fill:rgb(191, 191, 191); fill-opacity:1.000; stroke:none;" />
 <path d="  M 440,328  L 440,327  L 439,327  L 439,328  Z  " style="fill:rgb(191, 191, 191); fill-opacity:1.000; stroke:none;" />
 <path d="  M 439,355  L 440,355  L 440,354  L 439,354  Z  " style="fill:rgb(191, 191, 191); fill-opacity:1.000; stroke:none;" />
 <path d="  M 440,326  L 441,326  L 441,325  L 440,325  Z  " style="fill:rgb(191, 191, 191); fill-opacity:1.000; stroke:none;" />
 <path d="  M 441,330  L 441,329  L 440,329  L 440,330  Z  " style="fill:rgb(191, 191, 191); fill-opacity:1.000; stroke:none;" />
 <path d="  M 442,338  L 442,339  L 443,339  L 443,338  Z  " style="fill:rgb(191, 191, 191); fill-opacity:1.000; stroke:none;" />
 <path d="  M 443,334  L 444,334  L 444,333  L 443,333  Z  " style="fill:rgb(191, 191, 191); fill-opacity:1.000; stroke:none;" />
 <path d="  M 445,340  L 445,339  L 444,339  L 444,340  Z  " style="fill:rgb(191, 191, 191); fill-opacity:1.000; stroke:none;" />
 <path d="  M 444,349  L 445,349  L 445,348  L 444,348  Z  " style="fill:rgb(191, 191, 191); fill-opacity:1.000; stroke:none;" />
 <path d="  M 445,355  L 445,354  L 444,354  L 444,355  Z  " style="fill:rgb(191, 191, 191); fill-opacity:1.000; stroke:none;" />
 <path d="  M 447,356  L 447,355  L 446,355  L 446,356  Z  " style="fill:rgb(191, 191, 191); fill-opacity:1.000; stroke:none;" />
 <path d="  M 1,45  L 1,44  L 0,44  L 0,45  Z  " style="fill:rgb(0, 0, 0); fill-opacity:1.000; stroke:none;" />
 <path d="  M 3,265  L 3,264  L 0,264  L 0,265  Z  " style="fill:rgb(0, 0, 0); fill-opacity:1.000; stroke:none;" />
 <path d="  M 3,359  L 3,358  L 0,358  L 0,359  Z  " style="fill:rgb(0, 0, 0); fill-opacity:1.000; stroke:none;" />
 <path d="  M 2,4  L 2,3  L 1,3  L 1,4  Z  " style="fill:rgb(0, 0, 0); fill-opacity:1.000; stroke:none;" />
 <path d="  M 1,44  L 3,44  L 3,43  L 1,43  Z  " style="fill:rgb(0, 0, 0); fill-opacity:1.000; stroke:none;" />
 <path d="  M 3,5  L 3,4  L 2,4  L 2,5  Z  " style="fill:rgb(0, 0, 0); fill-opacity:1.000; stroke:none;" />
 <path d="  M 3,6  L 4,6  L 4,5  L 3,5  Z  " style="fill:rgb(0, 0, 0); fill-opacity:1.000; stroke:none;" />
 <path d="  M 4,7  L 3,7  L 3,10  L 4,10  Z  " style="fill:rgb(0, 0, 0); fill-opacity:1.000; stroke:none;" />
 <path d="  M 4,42  L 3,42  L 3,43  L 4,43  Z  " style="fill:rgb(0, 0, 0); fill-opacity:1.000; stroke:none;" />
 <path d="  M 5,265  L 3,265  L 3,266  L 5,266  Z  " style="fill:rgb(0, 0, 0); fill-opacity:1.000; stroke:none;" />
 <path d="  M 5,12  L 5,11  L 4,11  L 4,12  Z  " style="fill:rgb(0, 0, 0); fill-opacity:1.000; stroke:none;" />
 <path d="  M 4,41  L 4,42  L 5,42  L 5,41  Z  " style="fill:rgb(0, 0, 0); fill-opacity:1.000; stroke:none;" />
 <path d="  M 6,39  L 6,37  L 5,37  L 5,39  Z  " style="fill:rgb(0, 0, 0); fill-opacity:1.000; stroke:none;" />
 <path d="  M 7,267  L 7,266  L 5,266  L 5,267  Z  " style="fill:rgb(0, 0, 0); fill-opacity:1.000; stroke:none;" />
 <path d="  M 6,13  L 7,13  L 7,12  L 6,12  Z  " style="fill:rgb(0, 0, 0); fill-opacity:1.000; stroke:none;" />
 <path d="  M 6,35  L 7,35  L 7,30  L 6,30  Z  " style="fill:rgb(0, 0, 0); fill-opacity:1.000; stroke:none;" />
 <path d="  M 8,15  L 8,14  L 7,14  L 7,15  Z  " style="fill:rgb(0, 0, 0); fill-opacity:1.000; stroke:none;" />
 <path d="  M 8,28  L 8,25  L 7,25  L 7,28  Z  " style="fill:rgb(0, 0, 0); fill-opacity:1.000; stroke:none;" />
 <path d="  M 9,268  L 9,267  L 7,267  L 7,268  Z  " style="fill:rgb(0, 0, 0); fill-opacity:1.000; stroke:none;" />
 <path d="  M 7,359  L 12,359  L 12,358  L 7,358  Z  " style="fill:rgb(0, 0, 0); fill-opacity:1.000; stroke:none;" />
 <path d="  M 9,15  L 8,15  L 8,16  L 9,16  Z  " style="fill:rgb(0, 0, 0); fill-opacity:1.000; stroke:none;" />
 <path d="  M 8,21  L 8,23  L 9,23  L 9,21  Z  " style="fill:rgb(0, 0, 0); fill-opacity:1.000; stroke:none;" />
 <path d="  M 10,16  L 9,16  L 9,20  L 10,20  Z  " style="fill:rgb(0, 0, 0); fill-opacity:1.000; stroke:none;" />
 <path d="  M 10,269  L 10,268  L 9,268  L 9,269  Z  " style="fill:rgb(0, 0, 0); fill-opacity:1.000; stroke:none;" />
 <path d="  M 13,270  L 13,269  L 11,269  L 11,270  Z  " style="fill:rgb(0, 0, 0); fill-opacity:1.000; stroke:none;" />
 <path d="  M 13,270  L 13,271  L 14,271  L 14,270  Z  " style="fill:rgb(0, 0, 0); fill-opacity:1.000; stroke:none;" />
 <path d="  M 13,357  L 13,358  L 15,358  L 15,357  Z  " style="fill:rgb(0, 0, 0); fill-opacity:1.000; stroke:none;" />
 <path d="  M 16,271  L 15,271  L 15,272  L 16,272  Z  " style="fill:rgb(0, 0, 0); fill-opacity:1.000; stroke:none;" />
 <path d="  M 16,272  L 16,274  L 17,274  L 17,272  Z  " style="fill:rgb(0, 0, 0); fill-opacity:1.000; stroke:none;" />
 <path d="  M 18,274  L 17,274  L 17,275  L 18,275  Z  " style="fill:rgb(0, 0, 0); fill-opacity:1.000; stroke:none;" />
 <path d="  M 17,357  L 17,358  L 22,358  L 22,357  Z  " style="fill:rgb(0, 0, 0); fill-opacity:1.000; stroke:none;" />
 <path d="  M 19,277  L 19,276  L 18,276  L 18,277  Z  " style="fill:rgb(0, 0, 0); fill-opacity:1.000; stroke:none;" />
 <path d="  M 20,278  L 20,277  L 19,277  L 19,278  Z  " style="fill:rgb(0, 0, 0); fill-opacity:1.000; stroke:none;" />
 <path d="  M 21,280  L 21,278  L 20,278  L 20,280  Z  " style="fill:rgb(0, 0, 0); fill-opacity:1.000; stroke:none;" />
 <path d="  M 21,281  L 22,281  L 22,280  L 21,280  Z  " style="fill:rgb(0, 0, 0); fill-opacity:1.000; stroke:none;" />
 <path d="  M 22,282  L 23,282  L 23,281  L 22,281  Z  " style="fill:rgb(0, 0, 0); fill-opacity:1.000; stroke:none;" />
 <path d="  M 23,283  L 24,283  L 24,282  L 23,282  Z  " style="fill:rgb(0, 0, 0); fill-opacity:1.000; stroke:none;" />
 <path d="  M 24,283  L 24,284  L 25,284  L 25,283  Z  " style="fill:rgb(0, 0, 0); fill-opacity:1.000; stroke:none;" />
 <path d="  M 25,286  L 26,286  L 26,284  L 25,284  Z  " style="fill:rgb(0, 0, 0); fill-opacity:1.000; stroke:none;" />
 <path d="  M 25,358  L 26,358  L 26,357  L 25,357  Z  " style="fill:rgb(0, 0, 0); fill-opacity:1.000; stroke:none;" />
 <path d="  M 27,288  L 27,287  L 26,287  L 26,288  Z  " style="fill:rgb(0, 0, 0); fill-opacity:1.000; stroke:none;" />
 <path d="  M 26,356  L 26,357  L 29,357  L 29,356  Z  " style="fill:rgb(0, 0, 0); fill-opacity:1.000; stroke:none;" />
 <path d="  M 27,291  L 28,291  L 28,289  L 27,289  Z  " style="fill:rgb(0, 0, 0); fill-opacity:1.000; stroke:none;" />
 <path d="  M 29,293  L 28,293  L 28,294  L 29,294  Z  " style="fill:rgb(0, 0, 0); fill-opacity:1.000; stroke:none;" />
 <path d="  M 29,296  L 30,296  L 30,295  L 29,295  Z  " style="fill:rgb(0, 0, 0); fill-opacity:1.000; stroke:none;" />
 <path d="  M 31,297  L 31,296  L 30,296  L 30,297  Z  " style="fill:rgb(0, 0, 0); fill-opacity:1.000; stroke:none;" />
 <path d="  M 32,297  L 31,297  L 31,298  L 32,298  Z  " style="fill:rgb(0, 0, 0); fill-opacity:1.000; stroke:none;" />
 <path d="  M 33,299  L 33,298  L 32,298  L 32,299  Z  " style="fill:rgb(0, 0, 0); fill-opacity:1.000; stroke:none;" />
 <path d="  M 34,299  L 34,300  L 36,300  L 36,299  Z  " style="fill:rgb(0, 0, 0); fill-opacity:1.000; stroke:none;" />
 <path d="  M 50,301  L 50,300  L 38,300  L 38,301  Z  " style="fill:rgb(0, 0, 0); fill-opacity:1.000; stroke:none;" />
 <path d="  M 38,357  L 38,358  L 40,358  L 40,357  Z  " style="fill:rgb(0, 0, 0); fill-opacity:1.000; stroke:none;" />
 <path d="  M 45,357  L 42,357  L 42,358  L 45,358  Z  " style="fill:rgb(0, 0, 0); fill-opacity:1.000; stroke:none;" />
 <path d="  M 46,356  L 46,357  L 48,357  L 48,356  Z  " style="fill:rgb(0, 0, 0); fill-opacity:1.000; stroke:none;" />
 <path d="  M 53,356  L 53,355  L 49,355  L 49,356  Z  " style="fill:rgb(0, 0, 0); fill-opacity:1.000; stroke:none;" />
 <path d="  M 53,302  L 58,302  L 58,301  L 53,301  Z  " style="fill:rgb(0, 0, 0); fill-opacity:1.000; stroke:none;" />
 <path d="  M 53,357  L 56,357  L 56,356  L 53,356  Z  " style="fill:rgb(0, 0, 0); fill-opacity:1.000; stroke:none;" />
 <path d="  M 56,355  L 56,356  L 60,356  L 60,355  Z  " style="fill:rgb(0, 0, 0); fill-opacity:1.000; stroke:none;" />
 <path d="  M 60,302  L 59,302  L 59,303  L 60,303  Z  " style="fill:rgb(0, 0, 0); fill-opacity:1.000; stroke:none;" />
 <path d="  M 60,303  L 60,304  L 61,304  L 61,303  Z  " style="fill:rgb(0, 0, 0); fill-opacity:1.000; stroke:none;" />
 <path d="  M 61,304  L 61,305  L 63,305  L 63,304  Z  " style="fill:rgb(0, 0, 0); fill-opacity:1.000; stroke:none;" />
 <path d="  M 62,323  L 62,326  L 63,326  L 63,323  Z  " style="fill:rgb(0, 0, 0); fill-opacity:1.000; stroke:none;" />
 <path d="  M 62,327  L 62,330  L 63,330  L 63,327  Z  " style="fill:rgb(0, 0, 0); fill-opacity:1.000; stroke:none;" />
 <path d="  M 64,306  L 64,305  L 63,305  L 63,306  Z  " style="fill:rgb(0, 0, 0); fill-opacity:1.000; stroke:none;" />
 <path d="  M 63,323  L 64,323  L 64,321  L 63,321  Z  " style="fill:rgb(0, 0, 0); fill-opacity:1.000; stroke:none;" />
 <path d="  M 63,332  L 64,332  L 64,330  L 63,330  Z  " style="fill:rgb(0, 0, 0); fill-opacity:1.000; stroke:none;" />
 <path d="  M 66,357  L 66,356  L 63,356  L 63,357  Z  " style="fill:rgb(0, 0, 0); fill-opacity:1.000; stroke:none;" />
 <path d="  M 65,308  L 65,306  L 64,306  L 64,308  Z  " style="fill:rgb(0, 0, 0); fill-opacity:1.000; stroke:none;" />
 <path d="  M 64,320  L 65,320  L 65,319  L 64,319  Z  " style="fill:rgb(0, 0, 0); fill-opacity:1.000; stroke:none;" />
 <path d="  M 65,332  L 64,332  L 64,333  L 65,333  Z  " style="fill:rgb(0, 0, 0); fill-opacity:1.000; stroke:none;" />
 <path d="  M 65,309  L 65,312  L 66,312  L 66,309  Z  " style="fill:rgb(0, 0, 0); fill-opacity:1.000; stroke:none;" />
 <path d="  M 66,317  L 66,315  L 65,315  L 65,317  Z  " style="fill:rgb(0, 0, 0); fill-opacity:1.000; stroke:none;" />
 <path d="  M 66,333  L 65,333  L 65,334  L 66,334  Z  " style="fill:rgb(0, 0, 0); fill-opacity:1.000; stroke:none;" />
 <path d="  M 67,336  L 67,334  L 66,334  L 66,336  Z  " style="fill:rgb(0, 0, 0); fill-opacity:1.000; stroke:none;" />
 <path d="  M 67,337  L 67,339  L 68,339  L 68,337  Z  " style="fill:rgb(0, 0, 0); fill-opacity:1.000; stroke:none;" />
 <path d="  M 69,344  L 69,341  L 68,341  L 68,344  Z  " style="fill:rgb(0, 0, 0); fill-opacity:1.000; stroke:none;" />
 <path d="  M 70,349  L 70,344  L 69,344  L 69,349  Z  " style="fill:rgb(0, 0, 0); fill-opacity:1.000; stroke:none;" />
 <path d="  M 69,355  L 69,356  L 70,356  L 70,355  Z  " style="fill:rgb(0, 0, 0); fill-opacity:1.000; stroke:none;" />
 <path d="  M 71,349  L 70,349  L 70,353  L 71,353  Z  " style="fill:rgb(0, 0, 0); fill-opacity:1.000; stroke:none;" />
 <path d="  M 352,348  L 351,348  L 351,350  L 352,350  Z  " style="fill:rgb(0, 0, 0); fill-opacity:1.000; stroke:none;" />
 <path d="  M 351,353  L 351,355  L 352,355  L 352,353  Z  " style="fill:rgb(0, 0, 0); fill-opacity:1.000; stroke:none;" />
 <path d="  M 352,346  L 352,347  L 353,347  L 353,346  Z  " style="fill:rgb(0, 0, 0); fill-opacity:1.000; stroke:none;" />
 <path d="  M 352,355  L 352,356  L 354,356  L 354,355  Z  " style="fill:rgb(0, 0, 0); fill-opacity:1.000; stroke:none;" />
 <path d="  M 354,345  L 354,343  L 353,343  L 353,345  Z  " style="fill:rgb(0, 0, 0); fill-opacity:1.000; stroke:none;" />
 <path d="  M 354,343  L 355,343  L 355,341  L 354,341  Z  " style="fill:rgb(0, 0, 0); fill-opacity:1.000; stroke:none;" />
 <path d="  M 356,341  L 356,337  L 355,337  L 355,341  Z  " style="fill:rgb(0, 0, 0); fill-opacity:1.000; stroke:none;" />
 <path d="  M 356,336  L 357,336  L 357,334  L 356,334  Z  " style="fill:rgb(0, 0, 0); fill-opacity:1.000; stroke:none;" />
 <path d="  M 378,357  L 378,356  L 356,356  L 356,357  Z  " style="fill:rgb(0, 0, 0); fill-opacity:1.000; stroke:none;" />
 <path d="  M 357,333  L 358,333  L 358,331  L 357,331  Z  " style="fill:rgb(0, 0, 0); fill-opacity:1.000; stroke:none;" />
 <path d="  M 358,328  L 358,330  L 359,330  L 359,328  Z  " style="fill:rgb(0, 0, 0); fill-opacity:1.000; stroke:none;" />
 <path d="  M 359,325  L 359,327  L 360,327  L 360,325  Z  " style="fill:rgb(0, 0, 0); fill-opacity:1.000; stroke:none;" />
 <path d="  M 361,324  L 361,322  L 360,322  L 360,324  Z  " style="fill:rgb(0, 0, 0); fill-opacity:1.000; stroke:none;" />
 <path d="  M 361,322  L 362,322  L 362,321  L 361,321  Z  " style="fill:rgb(0, 0, 0); fill-opacity:1.000; stroke:none;" />
 <path d="  M 362,320  L 363,320  L 363,319  L 362,319  Z  " style="fill:rgb(0, 0, 0); fill-opacity:1.000; stroke:none;" />
 <path d="  M 364,317  L 363,317  L 363,319  L 364,319  Z  " style="fill:rgb(0, 0, 0); fill-opacity:1.000; stroke:none;" />
 <path d="  M 364,317  L 365,317  L 365,316  L 364,316  Z  " style="fill:rgb(0, 0, 0); fill-opacity:1.000; stroke:none;" />
 <path d="  M 366,314  L 365,314  L 365,316  L 366,316  Z  " style="fill:rgb(0, 0, 0); fill-opacity:1.000; stroke:none;" />
 <path d="  M 368,314  L 368,313  L 366,313  L 366,314  Z  " style="fill:rgb(0, 0, 0); fill-opacity:1.000; stroke:none;" />
 <path d="  M 369,312  L 368,312  L 368,313  L 369,313  Z  " style="fill:rgb(0, 0, 0); fill-opacity:1.000; stroke:none;" />
 <path d="  M 369,311  L 369,312  L 371,312  L 371,311  Z  " style="fill:rgb(0, 0, 0); fill-opacity:1.000; stroke:none;" />
 <path d="  M 371,310  L 371,311  L 372,311  L 372,310  Z  " style="fill:rgb(0, 0, 0); fill-opacity:1.000; stroke:none;" />
 <path d="  M 372,289  L 373,289  L 373,278  L 372,278  Z  " style="fill:rgb(0, 0, 0); fill-opacity:1.000; stroke:none;" />
 <path d="  M 373,276  L 373,277  L 374,277  L 374,276  Z  " style="fill:rgb(0, 0, 0); fill-opacity:1.000; stroke:none;" />
 <path d="  M 374,293  L 373,293  L 373,296  L 374,296  Z  " style="fill:rgb(0, 0, 0); fill-opacity:1.000; stroke:none;" />
 <path d="  M 373,309  L 373,310  L 374,310  L 374,309  Z  " style="fill:rgb(0, 0, 0); fill-opacity:1.000; stroke:none;" />
 <path d="  M 375,275  L 375,274  L 374,274  L 374,275  Z  " style="fill:rgb(0, 0, 0); fill-opacity:1.000; stroke:none;" />
 <path d="  M 374,297  L 375,297  L 375,296  L 374,296  Z  " style="fill:rgb(0, 0, 0); fill-opacity:1.000; stroke:none;" />
 <path d="  M 375,274  L 376,274  L 376,273  L 375,273  Z  " style="fill:rgb(0, 0, 0); fill-opacity:1.000; stroke:none;" />
 <path d="  M 375,298  L 376,298  L 376,297  L 375,297  Z  " style="fill:rgb(0, 0, 0); fill-opacity:1.000; stroke:none;" />
 <path d="  M 375,308  L 375,309  L 376,309  L 376,308  Z  " style="fill:rgb(0, 0, 0); fill-opacity:1.000; stroke:none;" />
 <path d="  M 377,272  L 376,272  L 376,273  L 377,273  Z  " style="fill:rgb(0, 0, 0); fill-opacity:1.000; stroke:none;" />
 <path d="  M 376,298  L 376,299  L 377,299  L 377,298  Z  " style="fill:rgb(0, 0, 0); fill-opacity:1.000; stroke:none;" />
 <path d="  M 377,271  L 377,272  L 379,272  L 379,271  Z  " style="fill:rgb(0, 0, 0); fill-opacity:1.000; stroke:none;" />
 <path d="  M 377,300  L 378,300  L 378,299  L 377,299  Z  " style="fill:rgb(0, 0, 0); fill-opacity:1.000; stroke:none;" />
 <path d="  M 377,308  L 378,308  L 378,307  L 377,307  Z  " style="fill:rgb(0, 0, 0); fill-opacity:1.000; stroke:none;" />
 <path d="  M 378,301  L 379,301  L 379,300  L 378,300  Z  " style="fill:rgb(0, 0, 0); fill-opacity:1.000; stroke:none;" />
 <path d="  M 379,307  L 379,306  L 378,306  L 378,307  Z  " style="fill:rgb(0, 0, 0); fill-opacity:1.000; stroke:none;" />
 <path d="  M 381,271  L 381,270  L 379,270  L 379,271  Z  " style="fill:rgb(0, 0, 0); fill-opacity:1.000; stroke:none;" />
 <path d="  M 379,302  L 380,302  L 380,301  L 379,301  Z  " style="fill:rgb(0, 0, 0); fill-opacity:1.000; stroke:none;" />
 <path d="  M 380,305  L 379,305  L 379,306  L 380,306  Z  " style="fill:rgb(0, 0, 0); fill-opacity:1.000; stroke:none;" />
 <path d="  M 381,356  L 383,356  L 383,355  L 381,355  Z  " style="fill:rgb(0, 0, 0); fill-opacity:1.000; stroke:none;" />
 <path d="  M 382,269  L 382,270  L 384,270  L 384,269  Z  " style="fill:rgb(0, 0, 0); fill-opacity:1.000; stroke:none;" />
 <path d="  M 385,355  L 389,355  L 389,354  L 385,354  Z  " style="fill:rgb(0, 0, 0); fill-opacity:1.000; stroke:none;" />
 <path d="  M 391,353  L 391,354  L 409,354  L 409,353  Z  " style="fill:rgb(0, 0, 0); fill-opacity:1.000; stroke:none;" />
 <path d="  M 395,270  L 395,269  L 392,269  L 392,270  Z  " style="fill:rgb(0, 0, 0); fill-opacity:1.000; stroke:none;" />
 <path d="  M 397,271  L 398,271  L 398,270  L 397,270  Z  " style="fill:rgb(0, 0, 0); fill-opacity:1.000; stroke:none;" />
 <path d="  M 400,271  L 398,271  L 398,272  L 400,272  Z  " style="fill:rgb(0, 0, 0); fill-opacity:1.000; stroke:none;" />
 <path d="  M 401,272  L 400,272  L 400,273  L 401,273  Z  " style="fill:rgb(0, 0, 0); fill-opacity:1.000; stroke:none;" />
 <path d="  M 401,274  L 402,274  L 402,273  L 401,273  Z  " style="fill:rgb(0, 0, 0); fill-opacity:1.000; stroke:none;" />
 <path d="  M 403,275  L 403,274  L 402,274  L 402,275  Z  " style="fill:rgb(0, 0, 0); fill-opacity:1.000; stroke:none;" />
 <path d="  M 404,275  L 403,275  L 403,276  L 404,276  Z  " style="fill:rgb(0, 0, 0); fill-opacity:1.000; stroke:none;" />
 <path d="  M 404,276  L 404,277  L 405,277  L 405,276  Z  " style="fill:rgb(0, 0, 0); fill-opacity:1.000; stroke:none;" />
 <path d="  M 406,277  L 405,277  L 405,278  L 406,278  Z  " style="fill:rgb(0, 0, 0); fill-opacity:1.000; stroke:none;" />
 <path d="  M 406,280  L 407,280  L 407,279  L 406,279  Z  " style="fill:rgb(0, 0, 0); fill-opacity:1.000; stroke:none;" />
 <path d="  M 408,282  L 408,281  L 407,281  L 407,282  Z  " style="fill:rgb(0, 0, 0); fill-opacity:1.000; stroke:none;" />
 <path d="  M 408,282  L 408,284  L 409,284  L 409,282  Z  " style="fill:rgb(0, 0, 0); fill-opacity:1.000; stroke:none;" />
 <path d="  M 410,284  L 409,284  L 409,285  L 410,285  Z  " style="fill:rgb(0, 0, 0); fill-opacity:1.000; stroke:none;" />
 <path d="  M 410,287  L 411,287  L 411,286  L 410,286  Z  " style="fill:rgb(0, 0, 0); fill-opacity:1.000; stroke:none;" />
 <path d="  M 410,354  L 410,355  L 413,355  L 413,354  Z  " style="fill:rgb(0, 0, 0); fill-opacity:1.000; stroke:none;" />
 <path d="  M 412,289  L 412,287  L 411,287  L 411,289  Z  " style="fill:rgb(0, 0, 0); fill-opacity:1.000; stroke:none;" />
 <path d="  M 412,295  L 413,295  L 413,292  L 412,292  Z  " style="fill:rgb(0, 0, 0); fill-opacity:1.000; stroke:none;" />
 <path d="  M 413,296  L 413,297  L 414,297  L 414,296  Z  " style="fill:rgb(0, 0, 0); fill-opacity:1.000; stroke:none;" />
 <path d="  M 414,298  L 415,298  L 415,297  L 414,297  Z  " style="fill:rgb(0, 0, 0); fill-opacity:1.000; stroke:none;" />
 <path d="  M 415,298  L 415,299  L 416,299  L 416,298  Z  " style="fill:rgb(0, 0, 0); fill-opacity:1.000; stroke:none;" />
 <path d="  M 417,300  L 417,299  L 416,299  L 416,300  Z  " style="fill:rgb(0, 0, 0); fill-opacity:1.000; stroke:none;" />
 <path d="  M 416,355  L 416,356  L 423,356  L 423,355  Z  " style="fill:rgb(0, 0, 0); fill-opacity:1.000; stroke:none;" />
 <path d="  M 417,301  L 418,301  L 418,300  L 417,300  Z  " style="fill:rgb(0, 0, 0); fill-opacity:1.000; stroke:none;" />
 <path d="  M 418,301  L 418,302  L 419,302  L 419,301  Z  " style="fill:rgb(0, 0, 0); fill-opacity:1.000; stroke:none;" />
 <path d="  M 419,303  L 420,303  L 420,302  L 419,302  Z  " style="fill:rgb(0, 0, 0); fill-opacity:1.000; stroke:none;" />
 <path d="  M 420,303  L 420,304  L 421,304  L 421,303  Z  " style="fill:rgb(0, 0, 0); fill-opacity:1.000; stroke:none;" />
 <path d="  M 422,304  L 421,304  L 421,305  L 422,305  Z  " style="fill:rgb(0, 0, 0); fill-opacity:1.000; stroke:none;" />
 <path d="  M 423,305  L 422,305  L 422,307  L 423,307  Z  " style="fill:rgb(0, 0, 0); fill-opacity:1.000; stroke:none;" />
 <path d="  M 423,308  L 424,308  L 424,307  L 423,307  Z  " style="fill:rgb(0, 0, 0); fill-opacity:1.000; stroke:none;" />
 <path d="  M 425,309  L 425,308  L 424,308  L 424,309  Z  " style="fill:rgb(0, 0, 0); fill-opacity:1.000; stroke:none;" />
 <path d="  M 425,309  L 425,310  L 426,310  L 426,309  Z  " style="fill:rgb(0, 0, 0); fill-opacity:1.000; stroke:none;" />
 <path d="  M 426,311  L 427,311  L 427,310  L 426,310  Z  " style="fill:rgb(0, 0, 0); fill-opacity:1.000; stroke:none;" />
 <path d="  M 428,312  L 429,312  L 429,311  L 428,311  Z  " style="fill:rgb(0, 0, 0); fill-opacity:1.000; stroke:none;" />
 <path d="  M 429,312  L 429,313  L 431,313  L 431,312  Z  " style="fill:rgb(0, 0, 0); fill-opacity:1.000; stroke:none;" />
 <path d="  M 431,355  L 430,355  L 430,356  L 431,356  Z  " style="fill:rgb(0, 0, 0); fill-opacity:1.000; stroke:none;" />
 <path d="  M 432,313  L 431,313  L 431,314  L 432,314  Z  " style="fill:rgb(0, 0, 0); fill-opacity:1.000; stroke:none;" />
 <path d="  M 432,316  L 433,316  L 433,314  L 432,314  Z  " style="fill:rgb(0, 0, 0); fill-opacity:1.000; stroke:none;" />
 <path d="  M 434,316  L 433,316  L 433,317  L 434,317  Z  " style="fill:rgb(0, 0, 0); fill-opacity:1.000; stroke:none;" />
 <path d="  M 434,317  L 434,318  L 435,318  L 435,317  Z  " style="fill:rgb(0, 0, 0); fill-opacity:1.000; stroke:none;" />
 <path d="  M 435,318  L 435,319  L 436,319  L 436,318  Z  " style="fill:rgb(0, 0, 0); fill-opacity:1.000; stroke:none;" />
 <path d="  M 437,319  L 436,319  L 436,321  L 437,321  Z  " style="fill:rgb(0, 0, 0); fill-opacity:1.000; stroke:none;" />
 <path d="  M 437,321  L 437,322  L 438,322  L 438,321  Z  " style="fill:rgb(0, 0, 0); fill-opacity:1.000; stroke:none;" />
 <path d="  M 439,323  L 438,323  L 438,324  L 439,324  Z  " style="fill:rgb(0, 0, 0); fill-opacity:1.000; stroke:none;" />
 <path d="  M 440,325  L 439,325  L 439,326  L 440,326  Z  " style="fill:rgb(0, 0, 0); fill-opacity:1.000; stroke:none;" />
 <path d="  M 439,355  L 439,356  L 445,356  L 445,355  Z  " style="fill:rgb(0, 0, 0); fill-opacity:1.000; stroke:none;" />
 <path d="  M 440,327  L 440,328  L 441,328  L 441,327  Z  " style="fill:rgb(0, 0, 0); fill-opacity:1.000; stroke:none;" />
 <path d="  M 441,331  L 442,331  L 442,329  L 441,329  Z  " style="fill:rgb(0, 0, 0); fill-opacity:1.000; stroke:none;" />
 <path d="  M 443,332  L 442,332  L 442,334  L 443,334  Z  " style="fill:rgb(0, 0, 0); fill-opacity:1.000; stroke:none;" />
 <path d="  M 443,338  L 443,340  L 444,340  L 444,338  Z  " style="fill:rgb(0, 0, 0); fill-opacity:1.000; stroke:none;" />
 <path d="  M 445,342  L 444,342  L 444,345  L 445,345  Z  " style="fill:rgb(0, 0, 0); fill-opacity:1.000; stroke:none;" />
 <path d="  M 446,348  L 445,348  L 445,350  L 446,350  Z  " style="fill:rgb(0, 0, 0); fill-opacity:1.000; stroke:none;" />
 <path d="  M 446,355  L 447,355  L 447,351  L 446,351  Z  " style="fill:rgb(0, 0, 0); fill-opacity:1.000; stroke:none;" />
 <path d="  M 3,266  L 3,265  L 2,265  L 2,266  Z  " style="fill:rgb(64, 64, 64); fill-opacity:1.000; stroke:none;" />
 <path d="  M 4,5  L 4,4  L 3,4  L 3,5  Z  " style="fill:rgb(64, 64, 64); fill-opacity:1.000; stroke:none;" />
 <path d="  M 3,7  L 4,7  L 4,6  L 3,6  Z  " style="fill:rgb(64, 64, 64); fill-opacity:1.000; stroke:none;" />
 <path d="  M 3,10  L 3,11  L 5,11  L 5,10  Z  " style="fill:rgb(64, 64, 64); fill-opacity:1.000; stroke:none;" />
 <path d="  M 4,44  L 4,43  L 3,43  L 3,44  Z  " style="fill:rgb(64, 64, 64); fill-opacity:1.000; stroke:none;" />
 <path d="  M 5,43  L 5,42  L 4,42  L 4,43  Z  " style="fill:rgb(64, 64, 64); fill-opacity:1.000; stroke:none;" />
 <path d="  M 5,267  L 5,266  L 4,266  L 4,267  Z  " style="fill:rgb(64, 64, 64); fill-opacity:1.000; stroke:none;" />
 <path d="  M 5,13  L 6,13  L 6,11  L 5,11  Z  " style="fill:rgb(64, 64, 64); fill-opacity:1.000; stroke:none;" />
 <path d="  M 6,36  L 5,36  L 5,37  L 6,37  Z  " style="fill:rgb(64, 64, 64); fill-opacity:1.000; stroke:none;" />
 <path d="  M 5,39  L 5,40  L 6,40  L 6,39  Z  " style="fill:rgb(64, 64, 64); fill-opacity:1.000; stroke:none;" />
 <path d="  M 6,14  L 8,14  L 8,13  L 6,13  Z  " style="fill:rgb(64, 64, 64); fill-opacity:1.000; stroke:none;" />
 <path d="  M 7,28  L 7,29  L 8,29  L 8,28  Z  " style="fill:rgb(64, 64, 64); fill-opacity:1.000; stroke:none;" />
 <path d="  M 8,17  L 9,17  L 9,16  L 8,16  Z  " style="fill:rgb(64, 64, 64); fill-opacity:1.000; stroke:none;" />
 <path d="  M 9,20  L 8,20  L 8,21  L 9,21  Z  " style="fill:rgb(64, 64, 64); fill-opacity:1.000; stroke:none;" />
 <path d="  M 9,24  L 9,23  L 8,23  L 8,24  Z  " style="fill:rgb(64, 64, 64); fill-opacity:1.000; stroke:none;" />
 <path d="  M 8,269  L 9,269  L 9,268  L 8,268  Z  " style="fill:rgb(64, 64, 64); fill-opacity:1.000; stroke:none;" />
 <path d="  M 11,270  L 11,268  L 10,268  L 10,270  Z  " style="fill:rgb(64, 64, 64); fill-opacity:1.000; stroke:none;" />
 <path d="  M 13,358  L 12,358  L 12,359  L 13,359  Z  " style="fill:rgb(64, 64, 64); fill-opacity:1.000; stroke:none;" />
 <path d="  M 15,270  L 14,270  L 14,272  L 15,272  Z  " style="fill:rgb(64, 64, 64); fill-opacity:1.000; stroke:none;" />
 <path d="  M 16,273  L 16,272  L 15,272  L 15,273  Z  " style="fill:rgb(64, 64, 64); fill-opacity:1.000; stroke:none;" />
 <path d="  M 15,358  L 16,358  L 16,357  L 15,357  Z  " style="fill:rgb(64, 64, 64); fill-opacity:1.000; stroke:none;" />
 <path d="  M 17,274  L 18,274  L 18,273  L 17,273  Z  " style="fill:rgb(64, 64, 64); fill-opacity:1.000; stroke:none;" />
 <path d="  M 19,275  L 17,275  L 17,276  L 19,276  Z  " style="fill:rgb(64, 64, 64); fill-opacity:1.000; stroke:none;" />
 <path d="  M 19,276  L 19,277  L 20,277  L 20,276  Z  " style="fill:rgb(64, 64, 64); fill-opacity:1.000; stroke:none;" />
 <path d="  M 19,278  L 19,279  L 20,279  L 20,278  Z  " style="fill:rgb(64, 64, 64); fill-opacity:1.000; stroke:none;" />
 <path d="  M 21,279  L 21,280  L 22,280  L 22,279  Z  " style="fill:rgb(64, 64, 64); fill-opacity:1.000; stroke:none;" />
 <path d="  M 23,280  L 22,280  L 22,281  L 23,281  Z  " style="fill:rgb(64, 64, 64); fill-opacity:1.000; stroke:none;" />
 <path d="  M 23,357  L 22,357  L 22,358  L 23,358  Z  " style="fill:rgb(64, 64, 64); fill-opacity:1.000; stroke:none;" />
 <path d="  M 24,282  L 24,281  L 23,281  L 23,282  Z  " style="fill:rgb(64, 64, 64); fill-opacity:1.000; stroke:none;" />
 <path d="  M 24,283  L 25,283  L 25,282  L 24,282  Z  " style="fill:rgb(64, 64, 64); fill-opacity:1.000; stroke:none;" />
 <path d="  M 25,285  L 25,284  L 24,284  L 24,285  Z  " style="fill:rgb(64, 64, 64); fill-opacity:1.000; stroke:none;" />
 <path d="  M 24,357  L 24,358  L 25,358  L 25,357  Z  " style="fill:rgb(64, 64, 64); fill-opacity:1.000; stroke:none;" />
 <path d="  M 26,287  L 27,287  L 27,286  L 26,286  Z  " style="fill:rgb(64, 64, 64); fill-opacity:1.000; stroke:none;" />
 <path d="  M 26,288  L 26,289  L 27,289  L 27,288  Z  " style="fill:rgb(64, 64, 64); fill-opacity:1.000; stroke:none;" />
 <path d="  M 27,292  L 28,292  L 28,291  L 27,291  Z  " style="fill:rgb(64, 64, 64); fill-opacity:1.000; stroke:none;" />
 <path d="  M 28,292  L 28,293  L 29,293  L 29,292  Z  " style="fill:rgb(64, 64, 64); fill-opacity:1.000; stroke:none;" />
 <path d="  M 28,294  L 28,295  L 30,295  L 30,294  Z  " style="fill:rgb(64, 64, 64); fill-opacity:1.000; stroke:none;" />
 <path d="  M 30,297  L 30,298  L 31,298  L 31,297  Z  " style="fill:rgb(64, 64, 64); fill-opacity:1.000; stroke:none;" />
 <path d="  M 32,297  L 32,298  L 33,298  L 33,297  Z  " style="fill:rgb(64, 64, 64); fill-opacity:1.000; stroke:none;" />
 <path d="  M 34,300  L 34,298  L 33,298  L 33,300  Z  " style="fill:rgb(64, 64, 64); fill-opacity:1.000; stroke:none;" />
 <path d="  M 36,300  L 37,300  L 37,299  L 36,299  Z  " style="fill:rgb(64, 64, 64); fill-opacity:1.000; stroke:none;" />
 <path d="  M 37,300  L 37,301  L 38,301  L 38,300  Z  " style="fill:rgb(64, 64, 64); fill-opacity:1.000; stroke:none;" />
 <path d="  M 38,358  L 38,357  L 37,357  L 37,358  Z  " style="fill:rgb(64, 64, 64); fill-opacity:1.000; stroke:none;" />
 <path d="  M 45,356  L 45,357  L 46,357  L 46,356  Z  " style="fill:rgb(64, 64, 64); fill-opacity:1.000; stroke:none;" />
 <path d="  M 54,356  L 54,355  L 53,355  L 53,356  Z  " style="fill:rgb(64, 64, 64); fill-opacity:1.000; stroke:none;" />
 <path d="  M 58,302  L 58,303  L 59,303  L 59,302  Z  " style="fill:rgb(64, 64, 64); fill-opacity:1.000; stroke:none;" />
 <path d="  M 60,303  L 61,303  L 61,302  L 60,302  Z  " style="fill:rgb(64, 64, 64); fill-opacity:1.000; stroke:none;" />
 <path d="  M 61,355  L 60,355  L 60,356  L 61,356  Z  " style="fill:rgb(64, 64, 64); fill-opacity:1.000; stroke:none;" />
 <path d="  M 62,304  L 62,303  L 61,303  L 61,304  Z  " style="fill:rgb(64, 64, 64); fill-opacity:1.000; stroke:none;" />
 <path d="  M 63,306  L 63,305  L 62,305  L 62,306  Z  " style="fill:rgb(64, 64, 64); fill-opacity:1.000; stroke:none;" />
 <path d="  M 63,307  L 64,307  L 64,306  L 63,306  Z  " style="fill:rgb(64, 64, 64); fill-opacity:1.000; stroke:none;" />
 <path d="  M 64,309  L 65,309  L 65,308  L 64,308  Z  " style="fill:rgb(64, 64, 64); fill-opacity:1.000; stroke:none;" />
 <path d="  M 64,318  L 64,319  L 65,319  L 65,318  Z  " style="fill:rgb(64, 64, 64); fill-opacity:1.000; stroke:none;" />
 <path d="  M 65,320  L 64,320  L 64,321  L 65,321  Z  " style="fill:rgb(64, 64, 64); fill-opacity:1.000; stroke:none;" />
 <path d="  M 64,332  L 65,332  L 65,331  L 64,331  Z  " style="fill:rgb(64, 64, 64); fill-opacity:1.000; stroke:none;" />
 <path d="  M 65,315  L 66,315  L 66,314  L 65,314  Z  " style="fill:rgb(64, 64, 64); fill-opacity:1.000; stroke:none;" />
 <path d="  M 66,318  L 66,317  L 65,317  L 65,318  Z  " style="fill:rgb(64, 64, 64); fill-opacity:1.000; stroke:none;" />
 <path d="  M 66,332  L 65,332  L 65,333  L 66,333  Z  " style="fill:rgb(64, 64, 64); fill-opacity:1.000; stroke:none;" />
 <path d="  M 67,334  L 67,333  L 66,333  L 66,334  Z  " style="fill:rgb(64, 64, 64); fill-opacity:1.000; stroke:none;" />
 <path d="  M 68,336  L 67,336  L 67,337  L 68,337  Z  " style="fill:rgb(64, 64, 64); fill-opacity:1.000; stroke:none;" />
 <path d="  M 68,344  L 68,345  L 69,345  L 69,344  Z  " style="fill:rgb(64, 64, 64); fill-opacity:1.000; stroke:none;" />
 <path d="  M 69,355  L 68,355  L 68,356  L 69,356  Z  " style="fill:rgb(64, 64, 64); fill-opacity:1.000; stroke:none;" />
 <path d="  M 69,355  L 70,355  L 70,354  L 69,354  Z  " style="fill:rgb(64, 64, 64); fill-opacity:1.000; stroke:none;" />
 <path d="  M 71,349  L 71,348  L 70,348  L 70,349  Z  " style="fill:rgb(64, 64, 64); fill-opacity:1.000; stroke:none;" />
 <path d="  M 70,353  L 70,354  L 71,354  L 71,353  Z  " style="fill:rgb(64, 64, 64); fill-opacity:1.000; stroke:none;" />
 <path d="  M 351,348  L 353,348  L 353,347  L 351,347  Z  " style="fill:rgb(64, 64, 64); fill-opacity:1.000; stroke:none;" />
 <path d="  M 352,346  L 354,346  L 354,345  L 352,345  Z  " style="fill:rgb(64, 64, 64); fill-opacity:1.000; stroke:none;" />
 <path d="  M 355,344  L 355,343  L 354,343  L 354,344  Z  " style="fill:rgb(64, 64, 64); fill-opacity:1.000; stroke:none;" />
 <path d="  M 354,356  L 355,356  L 355,355  L 354,355  Z  " style="fill:rgb(64, 64, 64); fill-opacity:1.000; stroke:none;" />
 <path d="  M 357,333  L 356,333  L 356,334  L 357,334  Z  " style="fill:rgb(64, 64, 64); fill-opacity:1.000; stroke:none;" />
 <path d="  M 357,337  L 357,336  L 356,336  L 356,337  Z  " style="fill:rgb(64, 64, 64); fill-opacity:1.000; stroke:none;" />
 <path d="  M 358,331  L 358,330  L 357,330  L 357,331  Z  " style="fill:rgb(64, 64, 64); fill-opacity:1.000; stroke:none;" />
 <path d="  M 359,328  L 359,327  L 358,327  L 358,328  Z  " style="fill:rgb(64, 64, 64); fill-opacity:1.000; stroke:none;" />
 <path d="  M 361,325  L 361,324  L 359,324  L 359,325  Z  " style="fill:rgb(64, 64, 64); fill-opacity:1.000; stroke:none;" />
 <path d="  M 361,320  L 361,321  L 363,321  L 363,320  Z  " style="fill:rgb(64, 64, 64); fill-opacity:1.000; stroke:none;" />
 <path d="  M 365,315  L 364,315  L 364,316  L 365,316  Z  " style="fill:rgb(64, 64, 64); fill-opacity:1.000; stroke:none;" />
 <path d="  M 366,315  L 367,315  L 367,314  L 366,314  Z  " style="fill:rgb(64, 64, 64); fill-opacity:1.000; stroke:none;" />
 <path d="  M 368,312  L 367,312  L 367,313  L 368,313  Z  " style="fill:rgb(64, 64, 64); fill-opacity:1.000; stroke:none;" />
 <path d="  M 371,311  L 371,310  L 370,310  L 370,311  Z  " style="fill:rgb(64, 64, 64); fill-opacity:1.000; stroke:none;" />
 <path d="  M 372,289  L 372,290  L 373,290  L 373,289  Z  " style="fill:rgb(64, 64, 64); fill-opacity:1.000; stroke:none;" />
 <path d="  M 373,309  L 372,309  L 372,311  L 373,311  Z  " style="fill:rgb(64, 64, 64); fill-opacity:1.000; stroke:none;" />
 <path d="  M 373,275  L 373,276  L 375,276  L 375,275  Z  " style="fill:rgb(64, 64, 64); fill-opacity:1.000; stroke:none;" />
 <path d="  M 373,278  L 374,278  L 374,277  L 373,277  Z  " style="fill:rgb(64, 64, 64); fill-opacity:1.000; stroke:none;" />
 <path d="  M 374,297  L 374,296  L 373,296  L 373,297  Z  " style="fill:rgb(64, 64, 64); fill-opacity:1.000; stroke:none;" />
 <path d="  M 375,297  L 374,297  L 374,298  L 375,298  Z  " style="fill:rgb(64, 64, 64); fill-opacity:1.000; stroke:none;" />
 <path d="  M 375,309  L 374,309  L 374,310  L 375,310  Z  " style="fill:rgb(64, 64, 64); fill-opacity:1.000; stroke:none;" />
 <path d="  M 375,273  L 376,273  L 376,272  L 375,272  Z  " style="fill:rgb(64, 64, 64); fill-opacity:1.000; stroke:none;" />
 <path d="  M 375,298  L 375,299  L 376,299  L 376,298  Z  " style="fill:rgb(64, 64, 64); fill-opacity:1.000; stroke:none;" />
 <path d="  M 377,307  L 376,307  L 376,309  L 377,309  Z  " style="fill:rgb(64, 64, 64); fill-opacity:1.000; stroke:none;" />
 <path d="  M 379,300  L 379,299  L 378,299  L 378,300  Z  " style="fill:rgb(64, 64, 64); fill-opacity:1.000; stroke:none;" />
 <path d="  M 379,301  L 378,301  L 378,302  L 379,302  Z  " style="fill:rgb(64, 64, 64); fill-opacity:1.000; stroke:none;" />
 <path d="  M 378,307  L 378,308  L 379,308  L 379,307  Z  " style="fill:rgb(64, 64, 64); fill-opacity:1.000; stroke:none;" />
 <path d="  M 378,357  L 379,357  L 379,356  L 378,356  Z  " style="fill:rgb(64, 64, 64); fill-opacity:1.000; stroke:none;" />
 <path d="  M 380,303  L 380,302  L 379,302  L 379,303  Z  " style="fill:rgb(64, 64, 64); fill-opacity:1.000; stroke:none;" />
 <path d="  M 379,307  L 380,307  L 380,306  L 379,306  Z  " style="fill:rgb(64, 64, 64); fill-opacity:1.000; stroke:none;" />
 <path d="  M 381,356  L 381,355  L 380,355  L 380,356  Z  " style="fill:rgb(64, 64, 64); fill-opacity:1.000; stroke:none;" />
 <path d="  M 382,270  L 381,270  L 381,271  L 382,271  Z  " style="fill:rgb(64, 64, 64); fill-opacity:1.000; stroke:none;" />
 <path d="  M 384,270  L 385,270  L 385,269  L 384,269  Z  " style="fill:rgb(64, 64, 64); fill-opacity:1.000; stroke:none;" />
 <path d="  M 396,269  L 395,269  L 395,270  L 396,270  Z  " style="fill:rgb(64, 64, 64); fill-opacity:1.000; stroke:none;" />
 <path d="  M 396,271  L 397,271  L 397,270  L 396,270  Z  " style="fill:rgb(64, 64, 64); fill-opacity:1.000; stroke:none;" />
 <path d="  M 398,270  L 398,271  L 399,271  L 399,270  Z  " style="fill:rgb(64, 64, 64); fill-opacity:1.000; stroke:none;" />
 <path d="  M 399,273  L 400,273  L 400,272  L 399,272  Z  " style="fill:rgb(64, 64, 64); fill-opacity:1.000; stroke:none;" />
 <path d="  M 401,272  L 401,273  L 402,273  L 402,272  Z  " style="fill:rgb(64, 64, 64); fill-opacity:1.000; stroke:none;" />
 <path d="  M 402,273  L 402,274  L 403,274  L 403,273  Z  " style="fill:rgb(64, 64, 64); fill-opacity:1.000; stroke:none;" />
 <path d="  M 404,274  L 403,274  L 403,275  L 404,275  Z  " style="fill:rgb(64, 64, 64); fill-opacity:1.000; stroke:none;" />
 <path d="  M 405,276  L 405,275  L 404,275  L 404,276  Z  " style="fill:rgb(64, 64, 64); fill-opacity:1.000; stroke:none;" />
 <path d="  M 405,278  L 405,279  L 407,279  L 407,278  Z  " style="fill:rgb(64, 64, 64); fill-opacity:1.000; stroke:none;" />
 <path d="  M 408,281  L 408,280  L 406,280  L 406,281  Z  " style="fill:rgb(64, 64, 64); fill-opacity:1.000; stroke:none;" />
 <path d="  M 408,282  L 407,282  L 407,283  L 408,283  Z  " style="fill:rgb(64, 64, 64); fill-opacity:1.000; stroke:none;" />
 <path d="  M 409,285  L 409,286  L 411,286  L 411,285  Z  " style="fill:rgb(64, 64, 64); fill-opacity:1.000; stroke:none;" />
 <path d="  M 412,290  L 412,289  L 411,289  L 411,290  Z  " style="fill:rgb(64, 64, 64); fill-opacity:1.000; stroke:none;" />
 <path d="  M 414,296  L 414,295  L 413,295  L 413,296  Z  " style="fill:rgb(64, 64, 64); fill-opacity:1.000; stroke:none;" />
 <path d="  M 413,297  L 413,298  L 414,298  L 414,297  Z  " style="fill:rgb(64, 64, 64); fill-opacity:1.000; stroke:none;" />
 <path d="  M 416,356  L 416,355  L 415,355  L 415,356  Z  " style="fill:rgb(64, 64, 64); fill-opacity:1.000; stroke:none;" />
 <path d="  M 416,298  L 416,299  L 417,299  L 417,298  Z  " style="fill:rgb(64, 64, 64); fill-opacity:1.000; stroke:none;" />
 <path d="  M 417,301  L 417,300  L 416,300  L 416,301  Z  " style="fill:rgb(64, 64, 64); fill-opacity:1.000; stroke:none;" />
 <path d="  M 418,301  L 417,301  L 417,302  L 418,302  Z  " style="fill:rgb(64, 64, 64); fill-opacity:1.000; stroke:none;" />
 <path d="  M 419,303  L 419,302  L 418,302  L 418,303  Z  " style="fill:rgb(64, 64, 64); fill-opacity:1.000; stroke:none;" />
 <path d="  M 420,303  L 419,303  L 419,304  L 420,304  Z  " style="fill:rgb(64, 64, 64); fill-opacity:1.000; stroke:none;" />
 <path d="  M 421,305  L 421,304  L 420,304  L 420,305  Z  " style="fill:rgb(64, 64, 64); fill-opacity:1.000; stroke:none;" />
 <path d="  M 422,305  L 421,305  L 421,306  L 422,306  Z  " style="fill:rgb(64, 64, 64); fill-opacity:1.000; stroke:none;" />
 <path d="  M 423,309  L 424,309  L 424,308  L 423,308  Z  " style="fill:rgb(64, 64, 64); fill-opacity:1.000; stroke:none;" />
 <path d="  M 423,355  L 423,356  L 424,356  L 424,355  Z  " style="fill:rgb(64, 64, 64); fill-opacity:1.000; stroke:none;" />
 <path d="  M 424,309  L 424,310  L 425,310  L 425,309  Z  " style="fill:rgb(64, 64, 64); fill-opacity:1.000; stroke:none;" />
 <path d="  M 426,310  L 427,310  L 427,309  L 426,309  Z  " style="fill:rgb(64, 64, 64); fill-opacity:1.000; stroke:none;" />
 <path d="  M 428,310  L 427,310  L 427,312  L 428,312  Z  " style="fill:rgb(64, 64, 64); fill-opacity:1.000; stroke:none;" />
 <path d="  M 430,312  L 430,311  L 429,311  L 429,312  Z  " style="fill:rgb(64, 64, 64); fill-opacity:1.000; stroke:none;" />
 <path d="  M 430,356  L 430,355  L 429,355  L 429,356  Z  " style="fill:rgb(64, 64, 64); fill-opacity:1.000; stroke:none;" />
 <path d="  M 431,313  L 430,313  L 430,314  L 431,314  Z  " style="fill:rgb(64, 64, 64); fill-opacity:1.000; stroke:none;" />
 <path d="  M 431,315  L 432,315  L 432,314  L 431,314  Z  " style="fill:rgb(64, 64, 64); fill-opacity:1.000; stroke:none;" />
 <path d="  M 432,355  L 431,355  L 431,356  L 432,356  Z  " style="fill:rgb(64, 64, 64); fill-opacity:1.000; stroke:none;" />
 <path d="  M 433,316  L 434,316  L 434,315  L 433,315  Z  " style="fill:rgb(64, 64, 64); fill-opacity:1.000; stroke:none;" />
 <path d="  M 434,317  L 435,317  L 435,316  L 434,316  Z  " style="fill:rgb(64, 64, 64); fill-opacity:1.000; stroke:none;" />
 <path d="  M 436,317  L 435,317  L 435,318  L 436,318  Z  " style="fill:rgb(64, 64, 64); fill-opacity:1.000; stroke:none;" />
 <path d="  M 436,319  L 435,319  L 435,320  L 436,320  Z  " style="fill:rgb(64, 64, 64); fill-opacity:1.000; stroke:none;" />
 <path d="  M 437,322  L 437,323  L 439,323  L 439,322  Z  " style="fill:rgb(64, 64, 64); fill-opacity:1.000; stroke:none;" />
 <path d="  M 438,325  L 440,325  L 440,324  L 438,324  Z  " style="fill:rgb(64, 64, 64); fill-opacity:1.000; stroke:none;" />
 <path d="  M 439,355  L 438,355  L 438,356  L 439,356  Z  " style="fill:rgb(64, 64, 64); fill-opacity:1.000; stroke:none;" />
 <path d="  M 441,327  L 441,326  L 439,326  L 439,327  Z  " style="fill:rgb(64, 64, 64); fill-opacity:1.000; stroke:none;" />
 <path d="  M 442,329  L 442,328  L 441,328  L 441,329  Z  " style="fill:rgb(64, 64, 64); fill-opacity:1.000; stroke:none;" />
 <path d="  M 443,334  L 442,334  L 442,335  L 443,335  Z  " style="fill:rgb(64, 64, 64); fill-opacity:1.000; stroke:none;" />
 <path d="  M 443,337  L 443,338  L 444,338  L 444,337  Z  " style="fill:rgb(64, 64, 64); fill-opacity:1.000; stroke:none;" />
 <path d="  M 443,341  L 444,341  L 444,340  L 443,340  Z  " style="fill:rgb(64, 64, 64); fill-opacity:1.000; stroke:none;" />
 <path d="  M 445,347  L 445,348  L 446,348  L 446,347  Z  " style="fill:rgb(64, 64, 64); fill-opacity:1.000; stroke:none;" />
 <path d="  M 446,354  L 445,354  L 445,356  L 446,356  Z  " style="fill:rgb(64, 64, 64); fill-opacity:1.000; stroke:none;" />
</svg>
