<?xml version="1.0" encoding="UTF-8" standalone="no"?>
<!DOCTYPE svg PUBLIC "-//W3C//DTD SVG 1.1//EN" 
  "http://www.w3.org/Graphics/SVG/1.1/DTD/svg11.dtd">
<svg width="640" height="360"
     xmlns="http://www.w3.org/2000/svg" version="1.1">
 <path d="  M 0,360  L 640,360  L 640,0  L 0,0  Z  M 386,303  L 387,303  L 387,308  L 388,308  L 388,320  L 387,320  L 387,327  L 386,327  L 386,345  L 385,345  L 385,348  L 384,348  L 384,351  L 383,351  L 383,353  L 382,353  L 382,356  L 380,356  L 380,357  L 378,357  L 378,358  L 373,358  L 373,359  L 316,359  L 316,358  L 288,358  L 288,357  L 278,357  L 278,356  L 274,356  L 274,355  L 271,355  L 271,354  L 270,354  L 270,353  L 269,353  L 269,352  L 267,352  L 267,350  L 266,350  L 266,349  L 265,349  L 265,347  L 264,347  L 264,346  L 263,346  L 263,341  L 264,341  L 264,338  L 265,338  L 265,335  L 266,335  L 266,331  L 267,331  L 267,328  L 268,328  L 268,325  L 269,325  L 269,322  L 270,322  L 270,307  L 271,307  L 271,303  L 272,303  L 272,296  L 273,296  L 273,293  L 274,293  L 274,290  L 275,290  L 275,288  L 276,288  L 276,286  L 277,286  L 277,284  L 278,284  L 278,282  L 279,282  L 279,280  L 280,280  L 280,278  L 281,278  L 281,275  L 282,275  L 282,274  L 283,274  L 283,272  L 284,272  L 284,270  L 285,270  L 285,269  L 286,269  L 286,267  L 287,267  L 287,266  L 288,266  L 288,264  L 289,264  L 289,263  L 290,263  L 290,262  L 291,262  L 291,260  L 292,260  L 292,259  L 293,259  L 293,258  L 294,258  L 294,257  L 295,257  L 295,256  L 296,256  L 296,255  L 298,255  L 298,254  L 299,254  L 299,253  L 300,253  L 300,252  L 302,252  L 302,251  L 304,251  L 304,250  L 307,250  L 307,249  L 309,249  L 309,248  L 310,248  L 310,247  L 312,247  L 312,246  L 314,246  L 314,245  L 315,245  L 315,244  L 317,244  L 317,243  L 319,243  L 319,242  L 322,242  L 322,241  L 324,241  L 324,240  L 326,240  L 326,239  L 328,239  L 328,238  L 330,238  L 330,237  L 333,237  L 333,236  L 336,236  L 336,235  L 340,235  L 340,234  L 347,234  L 347,233  L 354,233  L 354,234  L 358,234  L 358,235  L 363,235  L 363,236  L 366,236  L 366,237  L 367,237  L 367,238  L 368,238  L 368,239  L 369,239  L 369,240  L 370,240  L 370,242  L 371,242  L 371,244  L 372,244  L 372,245  L 373,245  L 373,246  L 375,246  L 375,247  L 376,247  L 376,248  L 377,248  L 377,249  L 378,249  L 378,251  L 379,251  L 379,252  L 380,252  L 380,253  L 381,253  L 381,254  L 382,254  L 382,256  L 383,256  L 383,257  L 384,257  L 384,258  L 385,258  L 385,260  L 386,260  L 386,269  L 385,269  L 385,290  L 386,290  Z  " style="fill:rgb(255, 255, 255); fill-opacity:0.000; stroke:none;" />
 <path d="  M 369,244  L 369,242  L 368,242  L 368,241  L 367,241  L 367,240  L 366,240  L 366,239  L 365,239  L 365,238  L 363,238  L 363,237  L 360,237  L 360,236  L 355,236  L 355,235  L 347,235  L 347,236  L 340,236  L 340,237  L 336,237  L 336,238  L 333,238  L 333,239  L 331,239  L 331,240  L 329,240  L 329,241  L 327,241  L 327,242  L 325,242  L 325,243  L 322,243  L 322,244  L 320,244  L 320,245  L 318,245  L 318,246  L 316,246  L 316,247  L 314,247  L 314,248  L 313,248  L 313,249  L 311,249  L 311,250  L 309,250  L 309,251  L 307,251  L 307,252  L 305,252  L 305,253  L 303,253  L 303,254  L 301,254  L 301,255  L 300,255  L 300,256  L 299,256  L 299,257  L 297,257  L 297,258  L 296,258  L 296,259  L 295,259  L 295,260  L 294,260  L 294,261  L 293,261  L 293,262  L 292,262  L 292,264  L 291,264  L 291,265  L 290,265  L 290,267  L 289,267  L 289,268  L 288,268  L 288,270  L 287,270  L 287,271  L 286,271  L 286,273  L 285,273  L 285,274  L 284,274  L 284,276  L 283,276  L 283,278  L 282,278  L 282,280  L 281,280  L 281,283  L 280,283  L 280,285  L 279,285  L 279,287  L 278,287  L 278,289  L 277,289  L 277,291  L 276,291  L 276,293  L 275,293  L 275,295  L 274,295  L 274,299  L 273,299  L 273,307  L 272,307  L 272,311  L 271,311  L 271,316  L 272,316  L 272,323  L 271,323  L 271,325  L 270,325  L 270,328  L 269,328  L 269,331  L 268,331  L 268,336  L 267,336  L 267,338  L 266,338  L 266,341  L 265,341  L 265,345  L 266,345  L 266,346  L 267,346  L 267,348  L 268,348  L 268,350  L 270,350  L 270,351  L 271,351  L 271,352  L 272,352  L 272,353  L 274,353  L 274,354  L 277,354  L 277,355  L 283,355  L 283,356  L 301,356  L 301,357  L 335,357  L 335,358  L 366,358  L 366,357  L 375,357  L 375,356  L 378,356  L 378,355  L 380,355  L 380,353  L 381,353  L 381,351  L 382,351  L 382,348  L 383,348  L 383,345  L 384,345  L 384,332  L 385,332  L 385,320  L 386,320  L 386,307  L 385,307  L 385,299  L 384,299  L 384,278  L 383,278  L 383,269  L 384,269  L 384,266  L 385,266  L 385,263  L 384,263  L 384,260  L 383,260  L 383,259  L 382,259  L 382,258  L 381,258  L 381,257  L 380,257  L 380,255  L 379,255  L 379,254  L 378,254  L 378,253  L 377,253  L 377,252  L 376,252  L 376,250  L 375,250  L 375,249  L 374,249  L 374,248  L 372,248  L 372,247  L 371,247  L 371,246  L 370,246  L 370,244  Z  " style="fill:rgb(255, 255, 255); fill-opacity:0.000; stroke:none;" />
 <path d="  M 265,344  L 265,342  L 264,342  L 264,341  L 263,341  L 263,345  L 264,345  L 264,344  Z  " style="fill:rgb(128, 128, 128); fill-opacity:1.000; stroke:none;" />
 <path d="  M 264,338  L 264,339  L 265,339  L 265,338  Z  " style="fill:rgb(128, 128, 128); fill-opacity:1.000; stroke:none;" />
 <path d="  M 266,336  L 265,336  L 265,337  L 266,337  Z  " style="fill:rgb(128, 128, 128); fill-opacity:1.000; stroke:none;" />
 <path d="  M 265,339  L 265,340  L 266,340  L 266,339  Z  " style="fill:rgb(128, 128, 128); fill-opacity:1.000; stroke:none;" />
 <path d="  M 268,333  L 267,333  L 267,332  L 266,332  L 266,334  L 267,334  L 267,335  L 268,335  Z  " style="fill:rgb(128, 128, 128); fill-opacity:1.000; stroke:none;" />
 <path d="  M 266,338  L 267,338  L 267,337  L 266,337  Z  " style="fill:rgb(128, 128, 128); fill-opacity:1.000; stroke:none;" />
 <path d="  M 267,349  L 266,349  L 266,350  L 267,350  Z  " style="fill:rgb(128, 128, 128); fill-opacity:1.000; stroke:none;" />
 <path d="  M 267,328  L 267,329  L 268,329  L 268,328  Z  " style="fill:rgb(128, 128, 128); fill-opacity:1.000; stroke:none;" />
 <path d="  M 267,349  L 268,349  L 268,348  L 267,348  Z  " style="fill:rgb(128, 128, 128); fill-opacity:1.000; stroke:none;" />
 <path d="  M 269,326  L 269,325  L 268,325  L 268,326  Z  " style="fill:rgb(128, 128, 128); fill-opacity:1.000; stroke:none;" />
 <path d="  M 268,329  L 268,330  L 269,330  L 269,329  Z  " style="fill:rgb(128, 128, 128); fill-opacity:1.000; stroke:none;" />
 <path d="  M 269,323  L 269,324  L 270,324  L 270,323  Z  " style="fill:rgb(128, 128, 128); fill-opacity:1.000; stroke:none;" />
 <path d="  M 269,326  L 269,327  L 270,327  L 270,326  Z  " style="fill:rgb(128, 128, 128); fill-opacity:1.000; stroke:none;" />
 <path d="  M 271,309  L 271,308  L 270,308  L 270,310  L 271,310  L 271,311  L 272,311  L 272,309  Z  " style="fill:rgb(128, 128, 128); fill-opacity:1.000; stroke:none;" />
 <path d="  M 272,319  L 271,319  L 271,320  L 270,320  L 270,322  L 271,322  L 271,323  L 272,323  Z  " style="fill:rgb(128, 128, 128); fill-opacity:1.000; stroke:none;" />
 <path d="  M 270,324  L 270,325  L 271,325  L 271,324  Z  " style="fill:rgb(128, 128, 128); fill-opacity:1.000; stroke:none;" />
 <path d="  M 271,305  L 272,305  L 272,306  L 273,306  L 273,304  L 272,304  L 272,303  L 271,303  Z  " style="fill:rgb(128, 128, 128); fill-opacity:1.000; stroke:none;" />
 <path d="  M 272,316  L 271,316  L 271,318  L 272,318  Z  " style="fill:rgb(128, 128, 128); fill-opacity:1.000; stroke:none;" />
 <path d="  M 273,298  L 273,299  L 274,299  L 274,297  L 273,297  L 273,296  L 272,296  L 272,298  Z  " style="fill:rgb(128, 128, 128); fill-opacity:1.000; stroke:none;" />
 <path d="  M 274,294  L 274,293  L 273,293  L 273,294  Z  " style="fill:rgb(128, 128, 128); fill-opacity:1.000; stroke:none;" />
 <path d="  M 274,291  L 274,292  L 275,292  L 275,291  Z  " style="fill:rgb(128, 128, 128); fill-opacity:1.000; stroke:none;" />
 <path d="  M 274,295  L 275,295  L 275,294  L 274,294  Z  " style="fill:rgb(128, 128, 128); fill-opacity:1.000; stroke:none;" />
 <path d="  M 276,290  L 276,289  L 275,289  L 275,290  Z  " style="fill:rgb(128, 128, 128); fill-opacity:1.000; stroke:none;" />
 <path d="  M 275,292  L 275,293  L 276,293  L 276,292  Z  " style="fill:rgb(128, 128, 128); fill-opacity:1.000; stroke:none;" />
 <path d="  M 276,356  L 276,355  L 275,355  L 275,356  Z  " style="fill:rgb(128, 128, 128); fill-opacity:1.000; stroke:none;" />
 <path d="  M 276,291  L 277,291  L 277,290  L 276,290  Z  " style="fill:rgb(128, 128, 128); fill-opacity:1.000; stroke:none;" />
 <path d="  M 276,355  L 277,355  L 277,354  L 276,354  Z  " style="fill:rgb(128, 128, 128); fill-opacity:1.000; stroke:none;" />
 <path d="  M 279,356  L 278,356  L 278,357  L 281,357  L 281,356  L 282,356  L 282,355  L 279,355  Z  " style="fill:rgb(128, 128, 128); fill-opacity:1.000; stroke:none;" />
 <path d="  M 281,279  L 281,278  L 280,278  L 280,279  Z  " style="fill:rgb(128, 128, 128); fill-opacity:1.000; stroke:none;" />
 <path d="  M 281,276  L 281,277  L 282,277  L 282,276  Z  " style="fill:rgb(128, 128, 128); fill-opacity:1.000; stroke:none;" />
 <path d="  M 281,279  L 281,280  L 282,280  L 282,279  Z  " style="fill:rgb(128, 128, 128); fill-opacity:1.000; stroke:none;" />
 <path d="  M 283,275  L 283,274  L 282,274  L 282,275  Z  " style="fill:rgb(128, 128, 128); fill-opacity:1.000; stroke:none;" />
 <path d="  M 283,278  L 283,277  L 282,277  L 282,278  Z  " style="fill:rgb(128, 128, 128); fill-opacity:1.000; stroke:none;" />
 <path d="  M 283,276  L 284,276  L 284,275  L 283,275  Z  " style="fill:rgb(128, 128, 128); fill-opacity:1.000; stroke:none;" />
 <path d="  M 285,269  L 285,270  L 286,270  L 286,269  Z  " style="fill:rgb(128, 128, 128); fill-opacity:1.000; stroke:none;" />
 <path d="  M 286,271  L 287,271  L 287,270  L 286,270  Z  " style="fill:rgb(128, 128, 128); fill-opacity:1.000; stroke:none;" />
 <path d="  M 289,264  L 290,264  L 290,263  L 289,263  Z  " style="fill:rgb(128, 128, 128); fill-opacity:1.000; stroke:none;" />
 <path d="  M 300,358  L 300,357  L 301,357  L 301,356  L 291,356  L 291,357  L 289,357  L 289,358  Z  " style="fill:rgb(128, 128, 128); fill-opacity:1.000; stroke:none;" />
 <path d="  M 291,265  L 291,264  L 290,264  L 290,265  Z  " style="fill:rgb(128, 128, 128); fill-opacity:1.000; stroke:none;" />
 <path d="  M 305,250  L 305,251  L 306,251  L 306,250  Z  " style="fill:rgb(128, 128, 128); fill-opacity:1.000; stroke:none;" />
 <path d="  M 307,251  L 306,251  L 306,252  L 307,252  Z  " style="fill:rgb(128, 128, 128); fill-opacity:1.000; stroke:none;" />
 <path d="  M 307,250  L 308,250  L 308,249  L 307,249  Z  " style="fill:rgb(128, 128, 128); fill-opacity:1.000; stroke:none;" />
 <path d="  M 309,251  L 309,250  L 308,250  L 308,251  Z  " style="fill:rgb(128, 128, 128); fill-opacity:1.000; stroke:none;" />
 <path d="  M 324,359  L 324,358  L 323,358  L 323,357  L 317,357  L 317,358  L 316,358  L 316,359  Z  " style="fill:rgb(128, 128, 128); fill-opacity:1.000; stroke:none;" />
 <path d="  M 323,242  L 323,241  L 322,241  L 322,242  Z  " style="fill:rgb(128, 128, 128); fill-opacity:1.000; stroke:none;" />
 <path d="  M 324,243  L 324,242  L 323,242  L 323,243  Z  " style="fill:rgb(128, 128, 128); fill-opacity:1.000; stroke:none;" />
 <path d="  M 326,241  L 326,240  L 325,240  L 325,241  Z  " style="fill:rgb(128, 128, 128); fill-opacity:1.000; stroke:none;" />
 <path d="  M 326,242  L 327,242  L 327,241  L 326,241  Z  " style="fill:rgb(128, 128, 128); fill-opacity:1.000; stroke:none;" />
 <path d="  M 327,357  L 327,358  L 326,358  L 326,359  L 334,359  L 334,358  L 335,358  L 335,357  Z  " style="fill:rgb(128, 128, 128); fill-opacity:1.000; stroke:none;" />
 <path d="  M 333,237  L 334,237  L 334,236  L 333,236  Z  " style="fill:rgb(128, 128, 128); fill-opacity:1.000; stroke:none;" />
 <path d="  M 334,237  L 334,238  L 335,238  L 335,237  Z  " style="fill:rgb(128, 128, 128); fill-opacity:1.000; stroke:none;" />
 <path d="  M 338,236  L 338,235  L 336,235  L 336,236  L 337,236  L 337,237  L 339,237  L 339,236  Z  " style="fill:rgb(128, 128, 128); fill-opacity:1.000; stroke:none;" />
 <path d="  M 346,236  L 346,235  L 345,235  L 345,234  L 341,234  L 341,235  L 342,235  L 342,236  Z  " style="fill:rgb(128, 128, 128); fill-opacity:1.000; stroke:none;" />
 <path d="  M 352,234  L 353,234  L 353,233  L 348,233  L 348,234  L 349,234  L 349,235  L 352,235  Z  " style="fill:rgb(128, 128, 128); fill-opacity:1.000; stroke:none;" />
 <path d="  M 362,236  L 361,236  L 361,237  L 362,237  Z  " style="fill:rgb(128, 128, 128); fill-opacity:1.000; stroke:none;" />
 <path d="  M 362,236  L 363,236  L 363,235  L 362,235  Z  " style="fill:rgb(128, 128, 128); fill-opacity:1.000; stroke:none;" />
 <path d="  M 365,237  L 364,237  L 364,238  L 365,238  Z  " style="fill:rgb(128, 128, 128); fill-opacity:1.000; stroke:none;" />
 <path d="  M 366,236  L 365,236  L 365,237  L 366,237  Z  " style="fill:rgb(128, 128, 128); fill-opacity:1.000; stroke:none;" />
 <path d="  M 367,238  L 367,237  L 366,237  L 366,238  Z  " style="fill:rgb(128, 128, 128); fill-opacity:1.000; stroke:none;" />
 <path d="  M 367,240  L 367,241  L 368,241  L 368,240  Z  " style="fill:rgb(128, 128, 128); fill-opacity:1.000; stroke:none;" />
 <path d="  M 372,359  L 372,358  L 371,358  L 371,357  L 367,357  L 367,358  L 368,358  L 368,359  Z  " style="fill:rgb(128, 128, 128); fill-opacity:1.000; stroke:none;" />
 <path d="  M 368,239  L 368,240  L 369,240  L 369,239  Z  " style="fill:rgb(128, 128, 128); fill-opacity:1.000; stroke:none;" />
 <path d="  M 369,244  L 370,244  L 370,243  L 369,243  Z  " style="fill:rgb(128, 128, 128); fill-opacity:1.000; stroke:none;" />
 <path d="  M 371,242  L 370,242  L 370,243  L 371,243  Z  " style="fill:rgb(128, 128, 128); fill-opacity:1.000; stroke:none;" />
 <path d="  M 370,246  L 371,246  L 371,245  L 370,245  Z  " style="fill:rgb(128, 128, 128); fill-opacity:1.000; stroke:none;" />
 <path d="  M 371,244  L 371,245  L 372,245  L 372,244  Z  " style="fill:rgb(128, 128, 128); fill-opacity:1.000; stroke:none;" />
 <path d="  M 373,248  L 373,247  L 372,247  L 372,248  Z  " style="fill:rgb(128, 128, 128); fill-opacity:1.000; stroke:none;" />
 <path d="  M 373,247  L 374,247  L 374,246  L 373,246  Z  " style="fill:rgb(128, 128, 128); fill-opacity:1.000; stroke:none;" />
 <path d="  M 376,249  L 375,249  L 375,250  L 376,250  Z  " style="fill:rgb(128, 128, 128); fill-opacity:1.000; stroke:none;" />
 <path d="  M 376,357  L 376,356  L 375,356  L 375,357  Z  " style="fill:rgb(128, 128, 128); fill-opacity:1.000; stroke:none;" />
 <path d="  M 377,358  L 377,357  L 376,357  L 376,358  Z  " style="fill:rgb(128, 128, 128); fill-opacity:1.000; stroke:none;" />
 <path d="  M 379,355  L 378,355  L 378,356  L 379,356  Z  " style="fill:rgb(128, 128, 128); fill-opacity:1.000; stroke:none;" />
 <path d="  M 380,254  L 379,254  L 379,255  L 380,255  Z  " style="fill:rgb(128, 128, 128); fill-opacity:1.000; stroke:none;" />
 <path d="  M 380,356  L 379,356  L 379,357  L 380,357  Z  " style="fill:rgb(128, 128, 128); fill-opacity:1.000; stroke:none;" />
 <path d="  M 380,253  L 380,254  L 381,254  L 381,253  Z  " style="fill:rgb(128, 128, 128); fill-opacity:1.000; stroke:none;" />
 <path d="  M 381,351  L 381,352  L 382,352  L 382,351  Z  " style="fill:rgb(128, 128, 128); fill-opacity:1.000; stroke:none;" />
 <path d="  M 383,348  L 382,348  L 382,349  L 383,349  Z  " style="fill:rgb(128, 128, 128); fill-opacity:1.000; stroke:none;" />
 <path d="  M 383,352  L 382,352  L 382,353  L 383,353  Z  " style="fill:rgb(128, 128, 128); fill-opacity:1.000; stroke:none;" />
 <path d="  M 384,260  L 384,259  L 383,259  L 383,260  Z  " style="fill:rgb(128, 128, 128); fill-opacity:1.000; stroke:none;" />
 <path d="  M 385,271  L 384,271  L 384,270  L 383,270  L 383,278  L 384,278  L 384,277  L 385,277  Z  " style="fill:rgb(128, 128, 128); fill-opacity:1.000; stroke:none;" />
 <path d="  M 383,347  L 384,347  L 384,348  L 385,348  L 385,346  L 384,346  L 384,345  L 383,345  Z  " style="fill:rgb(128, 128, 128); fill-opacity:1.000; stroke:none;" />
 <path d="  M 383,350  L 384,350  L 384,349  L 383,349  Z  " style="fill:rgb(128, 128, 128); fill-opacity:1.000; stroke:none;" />
 <path d="  M 385,259  L 385,258  L 384,258  L 384,259  Z  " style="fill:rgb(128, 128, 128); fill-opacity:1.000; stroke:none;" />
 <path d="  M 384,262  L 385,262  L 385,261  L 384,261  Z  " style="fill:rgb(128, 128, 128); fill-opacity:1.000; stroke:none;" />
 <path d="  M 384,267  L 384,268  L 385,268  L 385,267  Z  " style="fill:rgb(128, 128, 128); fill-opacity:1.000; stroke:none;" />
 <path d="  M 386,291  L 385,291  L 385,292  L 384,292  L 384,298  L 385,298  L 385,297  L 386,297  Z  " style="fill:rgb(128, 128, 128); fill-opacity:1.000; stroke:none;" />
 <path d="  M 384,343  L 385,343  L 385,344  L 386,344  L 386,334  L 385,334  L 385,333  L 384,333  Z  " style="fill:rgb(128, 128, 128); fill-opacity:1.000; stroke:none;" />
 <path d="  M 386,261  L 386,260  L 385,260  L 385,261  Z  " style="fill:rgb(128, 128, 128); fill-opacity:1.000; stroke:none;" />
 <path d="  M 385,269  L 386,269  L 386,268  L 385,268  Z  " style="fill:rgb(128, 128, 128); fill-opacity:1.000; stroke:none;" />
 <path d="  M 386,305  L 387,305  L 387,303  L 386,303  L 386,304  L 385,304  L 385,306  L 386,306  Z  " style="fill:rgb(128, 128, 128); fill-opacity:1.000; stroke:none;" />
 <path d="  M 385,320  L 385,325  L 386,325  L 386,326  L 387,326  L 387,321  L 386,321  L 386,320  Z  " style="fill:rgb(128, 128, 128); fill-opacity:1.000; stroke:none;" />
 <path d="  M 388,309  L 387,309  L 387,310  L 386,310  L 386,318  L 387,318  L 387,319  L 388,319  Z  " style="fill:rgb(128, 128, 128); fill-opacity:1.000; stroke:none;" />
 <path d="  M 263,346  L 264,346  L 264,345  L 263,345  Z  " style="fill:rgb(191, 191, 191); fill-opacity:1.000; stroke:none;" />
 <path d="  M 264,347  L 265,347  L 265,346  L 264,346  Z  " style="fill:rgb(191, 191, 191); fill-opacity:1.000; stroke:none;" />
 <path d="  M 266,336  L 266,335  L 265,335  L 265,336  Z  " style="fill:rgb(191, 191, 191); fill-opacity:1.000; stroke:none;" />
 <path d="  M 265,340  L 265,341  L 266,341  L 266,340  Z  " style="fill:rgb(191, 191, 191); fill-opacity:1.000; stroke:none;" />
 <path d="  M 266,348  L 265,348  L 265,349  L 266,349  Z  " style="fill:rgb(191, 191, 191); fill-opacity:1.000; stroke:none;" />
 <path d="  M 267,331  L 266,331  L 266,332  L 267,332  Z  " style="fill:rgb(191, 191, 191); fill-opacity:1.000; stroke:none;" />
 <path d="  M 266,346  L 266,347  L 267,347  L 267,346  Z  " style="fill:rgb(191, 191, 191); fill-opacity:1.000; stroke:none;" />
 <path d="  M 267,336  L 268,336  L 268,335  L 267,335  Z  " style="fill:rgb(191, 191, 191); fill-opacity:1.000; stroke:none;" />
 <path d="  M 268,351  L 267,351  L 267,352  L 268,352  Z  " style="fill:rgb(191, 191, 191); fill-opacity:1.000; stroke:none;" />
 <path d="  M 269,331  L 269,330  L 268,330  L 268,331  Z  " style="fill:rgb(191, 191, 191); fill-opacity:1.000; stroke:none;" />
 <path d="  M 270,323  L 270,322  L 269,322  L 269,323  Z  " style="fill:rgb(191, 191, 191); fill-opacity:1.000; stroke:none;" />
 <path d="  M 270,328  L 270,327  L 269,327  L 269,328  Z  " style="fill:rgb(191, 191, 191); fill-opacity:1.000; stroke:none;" />
 <path d="  M 270,350  L 269,350  L 269,351  L 270,351  Z  " style="fill:rgb(191, 191, 191); fill-opacity:1.000; stroke:none;" />
 <path d="  M 270,308  L 271,308  L 271,307  L 270,307  Z  " style="fill:rgb(191, 191, 191); fill-opacity:1.000; stroke:none;" />
 <path d="  M 270,352  L 271,352  L 271,351  L 270,351  Z  " style="fill:rgb(191, 191, 191); fill-opacity:1.000; stroke:none;" />
 <path d="  M 272,319  L 272,318  L 271,318  L 271,319  Z  " style="fill:rgb(191, 191, 191); fill-opacity:1.000; stroke:none;" />
 <path d="  M 272,352  L 271,352  L 271,353  L 272,353  Z  " style="fill:rgb(191, 191, 191); fill-opacity:1.000; stroke:none;" />
 <path d="  M 271,355  L 272,355  L 272,354  L 271,354  Z  " style="fill:rgb(191, 191, 191); fill-opacity:1.000; stroke:none;" />
 <path d="  M 273,306  L 272,306  L 272,307  L 273,307  Z  " style="fill:rgb(191, 191, 191); fill-opacity:1.000; stroke:none;" />
 <path d="  M 274,353  L 273,353  L 273,354  L 274,354  Z  " style="fill:rgb(191, 191, 191); fill-opacity:1.000; stroke:none;" />
 <path d="  M 274,291  L 275,291  L 275,290  L 274,290  Z  " style="fill:rgb(191, 191, 191); fill-opacity:1.000; stroke:none;" />
 <path d="  M 274,356  L 275,356  L 275,355  L 274,355  Z  " style="fill:rgb(191, 191, 191); fill-opacity:1.000; stroke:none;" />
 <path d="  M 275,288  L 275,289  L 276,289  L 276,288  Z  " style="fill:rgb(191, 191, 191); fill-opacity:1.000; stroke:none;" />
 <path d="  M 276,286  L 276,287  L 277,287  L 277,286  Z  " style="fill:rgb(191, 191, 191); fill-opacity:1.000; stroke:none;" />
 <path d="  M 278,284  L 277,284  L 277,285  L 278,285  Z  " style="fill:rgb(191, 191, 191); fill-opacity:1.000; stroke:none;" />
 <path d="  M 278,288  L 277,288  L 277,289  L 278,289  Z  " style="fill:rgb(191, 191, 191); fill-opacity:1.000; stroke:none;" />
 <path d="  M 279,282  L 278,282  L 278,283  L 279,283  Z  " style="fill:rgb(191, 191, 191); fill-opacity:1.000; stroke:none;" />
 <path d="  M 279,287  L 279,286  L 278,286  L 278,287  Z  " style="fill:rgb(191, 191, 191); fill-opacity:1.000; stroke:none;" />
 <path d="  M 280,280  L 279,280  L 279,281  L 280,281  Z  " style="fill:rgb(191, 191, 191); fill-opacity:1.000; stroke:none;" />
 <path d="  M 279,285  L 280,285  L 280,284  L 279,284  Z  " style="fill:rgb(191, 191, 191); fill-opacity:1.000; stroke:none;" />
 <path d="  M 280,282  L 280,283  L 281,283  L 281,282  Z  " style="fill:rgb(191, 191, 191); fill-opacity:1.000; stroke:none;" />
 <path d="  M 282,275  L 281,275  L 281,276  L 282,276  Z  " style="fill:rgb(191, 191, 191); fill-opacity:1.000; stroke:none;" />
 <path d="  M 283,355  L 282,355  L 282,356  L 283,356  Z  " style="fill:rgb(191, 191, 191); fill-opacity:1.000; stroke:none;" />
 <path d="  M 284,272  L 283,272  L 283,273  L 284,273  Z  " style="fill:rgb(191, 191, 191); fill-opacity:1.000; stroke:none;" />
 <path d="  M 285,270  L 284,270  L 284,271  L 285,271  Z  " style="fill:rgb(191, 191, 191); fill-opacity:1.000; stroke:none;" />
 <path d="  M 285,272  L 285,273  L 286,273  L 286,272  Z  " style="fill:rgb(191, 191, 191); fill-opacity:1.000; stroke:none;" />
 <path d="  M 287,268  L 287,267  L 286,267  L 286,268  Z  " style="fill:rgb(191, 191, 191); fill-opacity:1.000; stroke:none;" />
 <path d="  M 287,270  L 288,270  L 288,269  L 287,269  Z  " style="fill:rgb(191, 191, 191); fill-opacity:1.000; stroke:none;" />
 <path d="  M 289,264  L 288,264  L 288,265  L 289,265  Z  " style="fill:rgb(191, 191, 191); fill-opacity:1.000; stroke:none;" />
 <path d="  M 289,268  L 289,267  L 288,267  L 288,268  Z  " style="fill:rgb(191, 191, 191); fill-opacity:1.000; stroke:none;" />
 <path d="  M 289,357  L 288,357  L 288,358  L 289,358  Z  " style="fill:rgb(191, 191, 191); fill-opacity:1.000; stroke:none;" />
 <path d="  M 290,267  L 290,266  L 289,266  L 289,267  Z  " style="fill:rgb(191, 191, 191); fill-opacity:1.000; stroke:none;" />
 <path d="  M 292,261  L 292,260  L 291,260  L 291,261  Z  " style="fill:rgb(191, 191, 191); fill-opacity:1.000; stroke:none;" />
 <path d="  M 291,264  L 292,264  L 292,263  L 291,263  Z  " style="fill:rgb(191, 191, 191); fill-opacity:1.000; stroke:none;" />
 <path d="  M 292,260  L 293,260  L 293,259  L 292,259  Z  " style="fill:rgb(191, 191, 191); fill-opacity:1.000; stroke:none;" />
 <path d="  M 294,258  L 293,258  L 293,259  L 294,259  Z  " style="fill:rgb(191, 191, 191); fill-opacity:1.000; stroke:none;" />
 <path d="  M 295,258  L 295,257  L 294,257  L 294,258  Z  " style="fill:rgb(191, 191, 191); fill-opacity:1.000; stroke:none;" />
 <path d="  M 296,257  L 296,256  L 295,256  L 295,257  Z  " style="fill:rgb(191, 191, 191); fill-opacity:1.000; stroke:none;" />
 <path d="  M 297,256  L 297,255  L 296,255  L 296,256  Z  " style="fill:rgb(191, 191, 191); fill-opacity:1.000; stroke:none;" />
 <path d="  M 298,257  L 299,257  L 299,256  L 298,256  Z  " style="fill:rgb(191, 191, 191); fill-opacity:1.000; stroke:none;" />
 <path d="  M 299,255  L 299,256  L 300,256  L 300,255  Z  " style="fill:rgb(191, 191, 191); fill-opacity:1.000; stroke:none;" />
 <path d="  M 300,253  L 301,253  L 301,252  L 300,252  Z  " style="fill:rgb(191, 191, 191); fill-opacity:1.000; stroke:none;" />
 <path d="  M 301,255  L 301,254  L 300,254  L 300,255  Z  " style="fill:rgb(191, 191, 191); fill-opacity:1.000; stroke:none;" />
 <path d="  M 302,252  L 303,252  L 303,251  L 302,251  Z  " style="fill:rgb(191, 191, 191); fill-opacity:1.000; stroke:none;" />
 <path d="  M 302,254  L 303,254  L 303,253  L 302,253  Z  " style="fill:rgb(191, 191, 191); fill-opacity:1.000; stroke:none;" />
 <path d="  M 305,251  L 305,250  L 304,250  L 304,251  Z  " style="fill:rgb(191, 191, 191); fill-opacity:1.000; stroke:none;" />
 <path d="  M 305,253  L 305,252  L 304,252  L 304,253  Z  " style="fill:rgb(191, 191, 191); fill-opacity:1.000; stroke:none;" />
 <path d="  M 311,248  L 311,247  L 310,247  L 310,248  Z  " style="fill:rgb(191, 191, 191); fill-opacity:1.000; stroke:none;" />
 <path d="  M 310,249  L 310,250  L 311,250  L 311,249  Z  " style="fill:rgb(191, 191, 191); fill-opacity:1.000; stroke:none;" />
 <path d="  M 313,246  L 312,246  L 312,247  L 313,247  Z  " style="fill:rgb(191, 191, 191); fill-opacity:1.000; stroke:none;" />
 <path d="  M 313,248  L 312,248  L 312,249  L 313,249  Z  " style="fill:rgb(191, 191, 191); fill-opacity:1.000; stroke:none;" />
 <path d="  M 315,244  L 315,245  L 316,245  L 316,244  Z  " style="fill:rgb(191, 191, 191); fill-opacity:1.000; stroke:none;" />
 <path d="  M 316,246  L 315,246  L 315,247  L 316,247  Z  " style="fill:rgb(191, 191, 191); fill-opacity:1.000; stroke:none;" />
 <path d="  M 318,243  L 317,243  L 317,244  L 318,244  Z  " style="fill:rgb(191, 191, 191); fill-opacity:1.000; stroke:none;" />
 <path d="  M 317,245  L 317,246  L 318,246  L 318,245  Z  " style="fill:rgb(191, 191, 191); fill-opacity:1.000; stroke:none;" />
 <path d="  M 319,242  L 319,243  L 320,243  L 320,242  Z  " style="fill:rgb(191, 191, 191); fill-opacity:1.000; stroke:none;" />
 <path d="  M 320,244  L 319,244  L 319,245  L 320,245  Z  " style="fill:rgb(191, 191, 191); fill-opacity:1.000; stroke:none;" />
 <path d="  M 322,243  L 321,243  L 321,244  L 322,244  Z  " style="fill:rgb(191, 191, 191); fill-opacity:1.000; stroke:none;" />
 <path d="  M 324,240  L 324,241  L 325,241  L 325,240  Z  " style="fill:rgb(191, 191, 191); fill-opacity:1.000; stroke:none;" />
 <path d="  M 324,242  L 324,243  L 325,243  L 325,242  Z  " style="fill:rgb(191, 191, 191); fill-opacity:1.000; stroke:none;" />
 <path d="  M 326,359  L 326,358  L 324,358  L 324,359  Z  " style="fill:rgb(191, 191, 191); fill-opacity:1.000; stroke:none;" />
 <path d="  M 327,240  L 327,239  L 326,239  L 326,240  Z  " style="fill:rgb(191, 191, 191); fill-opacity:1.000; stroke:none;" />
 <path d="  M 328,238  L 328,239  L 329,239  L 329,238  Z  " style="fill:rgb(191, 191, 191); fill-opacity:1.000; stroke:none;" />
 <path d="  M 328,241  L 329,241  L 329,240  L 328,240  Z  " style="fill:rgb(191, 191, 191); fill-opacity:1.000; stroke:none;" />
 <path d="  M 330,238  L 331,238  L 331,237  L 330,237  Z  " style="fill:rgb(191, 191, 191); fill-opacity:1.000; stroke:none;" />
 <path d="  M 331,240  L 331,239  L 330,239  L 330,240  Z  " style="fill:rgb(191, 191, 191); fill-opacity:1.000; stroke:none;" />
 <path d="  M 333,239  L 333,238  L 332,238  L 332,239  Z  " style="fill:rgb(191, 191, 191); fill-opacity:1.000; stroke:none;" />
 <path d="  M 336,237  L 335,237  L 335,238  L 336,238  Z  " style="fill:rgb(191, 191, 191); fill-opacity:1.000; stroke:none;" />
 <path d="  M 340,236  L 339,236  L 339,237  L 340,237  Z  " style="fill:rgb(191, 191, 191); fill-opacity:1.000; stroke:none;" />
 <path d="  M 341,235  L 341,234  L 340,234  L 340,235  Z  " style="fill:rgb(191, 191, 191); fill-opacity:1.000; stroke:none;" />
 <path d="  M 347,236  L 347,235  L 346,235  L 346,236  Z  " style="fill:rgb(191, 191, 191); fill-opacity:1.000; stroke:none;" />
 <path d="  M 347,234  L 348,234  L 348,233  L 347,233  Z  " style="fill:rgb(191, 191, 191); fill-opacity:1.000; stroke:none;" />
 <path d="  M 354,233  L 353,233  L 353,234  L 354,234  Z  " style="fill:rgb(191, 191, 191); fill-opacity:1.000; stroke:none;" />
 <path d="  M 356,236  L 356,235  L 355,235  L 355,236  Z  " style="fill:rgb(191, 191, 191); fill-opacity:1.000; stroke:none;" />
 <path d="  M 358,235  L 358,234  L 357,234  L 357,235  Z  " style="fill:rgb(191, 191, 191); fill-opacity:1.000; stroke:none;" />
 <path d="  M 361,237  L 361,236  L 360,236  L 360,237  Z  " style="fill:rgb(191, 191, 191); fill-opacity:1.000; stroke:none;" />
 <path d="  M 364,237  L 363,237  L 363,238  L 364,238  Z  " style="fill:rgb(191, 191, 191); fill-opacity:1.000; stroke:none;" />
 <path d="  M 366,239  L 366,238  L 365,238  L 365,239  Z  " style="fill:rgb(191, 191, 191); fill-opacity:1.000; stroke:none;" />
 <path d="  M 367,239  L 366,239  L 366,240  L 367,240  Z  " style="fill:rgb(191, 191, 191); fill-opacity:1.000; stroke:none;" />
 <path d="  M 366,357  L 366,358  L 367,358  L 367,357  Z  " style="fill:rgb(191, 191, 191); fill-opacity:1.000; stroke:none;" />
 <path d="  M 369,241  L 370,241  L 370,240  L 369,240  Z  " style="fill:rgb(191, 191, 191); fill-opacity:1.000; stroke:none;" />
 <path d="  M 372,246  L 373,246  L 373,245  L 372,245  Z  " style="fill:rgb(191, 191, 191); fill-opacity:1.000; stroke:none;" />
 <path d="  M 372,358  L 372,359  L 373,359  L 373,358  Z  " style="fill:rgb(191, 191, 191); fill-opacity:1.000; stroke:none;" />
 <path d="  M 375,246  L 374,246  L 374,247  L 375,247  Z  " style="fill:rgb(191, 191, 191); fill-opacity:1.000; stroke:none;" />
 <path d="  M 376,247  L 375,247  L 375,248  L 376,248  Z  " style="fill:rgb(191, 191, 191); fill-opacity:1.000; stroke:none;" />
 <path d="  M 377,248  L 376,248  L 376,249  L 377,249  Z  " style="fill:rgb(191, 191, 191); fill-opacity:1.000; stroke:none;" />
 <path d="  M 376,251  L 376,252  L 377,252  L 377,251  Z  " style="fill:rgb(191, 191, 191); fill-opacity:1.000; stroke:none;" />
 <path d="  M 378,249  L 377,249  L 377,250  L 378,250  Z  " style="fill:rgb(191, 191, 191); fill-opacity:1.000; stroke:none;" />
 <path d="  M 378,252  L 377,252  L 377,253  L 378,253  Z  " style="fill:rgb(191, 191, 191); fill-opacity:1.000; stroke:none;" />
 <path d="  M 378,358  L 378,357  L 377,357  L 377,358  Z  " style="fill:rgb(191, 191, 191); fill-opacity:1.000; stroke:none;" />
 <path d="  M 379,253  L 378,253  L 378,254  L 379,254  Z  " style="fill:rgb(191, 191, 191); fill-opacity:1.000; stroke:none;" />
 <path d="  M 380,256  L 380,257  L 381,257  L 381,256  Z  " style="fill:rgb(191, 191, 191); fill-opacity:1.000; stroke:none;" />
 <path d="  M 380,354  L 381,354  L 381,353  L 380,353  Z  " style="fill:rgb(191, 191, 191); fill-opacity:1.000; stroke:none;" />
 <path d="  M 382,255  L 382,254  L 381,254  L 381,255  Z  " style="fill:rgb(191, 191, 191); fill-opacity:1.000; stroke:none;" />
 <path d="  M 381,257  L 381,258  L 382,258  L 382,257  Z  " style="fill:rgb(191, 191, 191); fill-opacity:1.000; stroke:none;" />
 <path d="  M 381,356  L 382,356  L 382,355  L 381,355  Z  " style="fill:rgb(191, 191, 191); fill-opacity:1.000; stroke:none;" />
 <path d="  M 383,259  L 383,258  L 382,258  L 382,259  Z  " style="fill:rgb(191, 191, 191); fill-opacity:1.000; stroke:none;" />
 <path d="  M 384,270  L 384,269  L 383,269  L 383,270  Z  " style="fill:rgb(191, 191, 191); fill-opacity:1.000; stroke:none;" />
 <path d="  M 383,351  L 384,351  L 384,350  L 383,350  Z  " style="fill:rgb(191, 191, 191); fill-opacity:1.000; stroke:none;" />
 <path d="  M 384,262  L 384,263  L 385,263  L 385,262  Z  " style="fill:rgb(191, 191, 191); fill-opacity:1.000; stroke:none;" />
 <path d="  M 385,266  L 384,266  L 384,267  L 385,267  Z  " style="fill:rgb(191, 191, 191); fill-opacity:1.000; stroke:none;" />
 <path d="  M 384,299  L 385,299  L 385,298  L 384,298  Z  " style="fill:rgb(191, 191, 191); fill-opacity:1.000; stroke:none;" />
 <path d="  M 384,333  L 385,333  L 385,332  L 384,332  Z  " style="fill:rgb(191, 191, 191); fill-opacity:1.000; stroke:none;" />
 <path d="  M 385,291  L 386,291  L 386,290  L 385,290  Z  " style="fill:rgb(191, 191, 191); fill-opacity:1.000; stroke:none;" />
 <path d="  M 386,306  L 385,306  L 385,307  L 386,307  Z  " style="fill:rgb(191, 191, 191); fill-opacity:1.000; stroke:none;" />
 <path d="  M 385,345  L 386,345  L 386,344  L 385,344  Z  " style="fill:rgb(191, 191, 191); fill-opacity:1.000; stroke:none;" />
 <path d="  M 386,327  L 387,327  L 387,326  L 386,326  Z  " style="fill:rgb(191, 191, 191); fill-opacity:1.000; stroke:none;" />
 <path d="  M 387,308  L 387,309  L 388,309  L 388,308  Z  " style="fill:rgb(191, 191, 191); fill-opacity:1.000; stroke:none;" />
 <path d="  M 387,320  L 388,320  L 388,319  L 387,319  Z  " style="fill:rgb(191, 191, 191); fill-opacity:1.000; stroke:none;" />
 <path d="  M 264,340  L 265,340  L 265,339  L 264,339  Z  " style="fill:rgb(64, 64, 64); fill-opacity:1.000; stroke:none;" />
 <path d="  M 264,344  L 264,345  L 265,345  L 265,344  Z  " style="fill:rgb(64, 64, 64); fill-opacity:1.000; stroke:none;" />
 <path d="  M 266,345  L 265,345  L 265,346  L 266,346  Z  " style="fill:rgb(64, 64, 64); fill-opacity:1.000; stroke:none;" />
 <path d="  M 267,348  L 267,347  L 265,347  L 265,348  Z  " style="fill:rgb(64, 64, 64); fill-opacity:1.000; stroke:none;" />
 <path d="  M 266,335  L 267,335  L 267,334  L 266,334  Z  " style="fill:rgb(64, 64, 64); fill-opacity:1.000; stroke:none;" />
 <path d="  M 267,336  L 266,336  L 266,337  L 267,337  Z  " style="fill:rgb(64, 64, 64); fill-opacity:1.000; stroke:none;" />
 <path d="  M 268,330  L 268,329  L 267,329  L 267,330  Z  " style="fill:rgb(64, 64, 64); fill-opacity:1.000; stroke:none;" />
 <path d="  M 268,333  L 268,332  L 267,332  L 267,333  Z  " style="fill:rgb(64, 64, 64); fill-opacity:1.000; stroke:none;" />
 <path d="  M 269,326  L 268,326  L 268,327  L 269,327  Z  " style="fill:rgb(64, 64, 64); fill-opacity:1.000; stroke:none;" />
 <path d="  M 269,352  L 269,350  L 268,350  L 268,352  Z  " style="fill:rgb(64, 64, 64); fill-opacity:1.000; stroke:none;" />
 <path d="  M 269,353  L 270,353  L 270,352  L 269,352  Z  " style="fill:rgb(64, 64, 64); fill-opacity:1.000; stroke:none;" />
 <path d="  M 270,317  L 270,318  L 271,318  L 271,317  Z  " style="fill:rgb(64, 64, 64); fill-opacity:1.000; stroke:none;" />
 <path d="  M 271,323  L 270,323  L 270,324  L 271,324  Z  " style="fill:rgb(64, 64, 64); fill-opacity:1.000; stroke:none;" />
 <path d="  M 271,354  L 271,353  L 270,353  L 270,354  Z  " style="fill:rgb(64, 64, 64); fill-opacity:1.000; stroke:none;" />
 <path d="  M 271,306  L 272,306  L 272,305  L 271,305  Z  " style="fill:rgb(64, 64, 64); fill-opacity:1.000; stroke:none;" />
 <path d="  M 271,308  L 271,309  L 272,309  L 272,308  Z  " style="fill:rgb(64, 64, 64); fill-opacity:1.000; stroke:none;" />
 <path d="  M 273,353  L 272,353  L 272,355  L 273,355  Z  " style="fill:rgb(64, 64, 64); fill-opacity:1.000; stroke:none;" />
 <path d="  M 276,292  L 276,291  L 275,291  L 275,292  Z  " style="fill:rgb(64, 64, 64); fill-opacity:1.000; stroke:none;" />
 <path d="  M 275,354  L 275,355  L 276,355  L 276,354  Z  " style="fill:rgb(64, 64, 64); fill-opacity:1.000; stroke:none;" />
 <path d="  M 276,287  L 276,288  L 278,288  L 278,287  Z  " style="fill:rgb(64, 64, 64); fill-opacity:1.000; stroke:none;" />
 <path d="  M 276,289  L 276,290  L 277,290  L 277,289  Z  " style="fill:rgb(64, 64, 64); fill-opacity:1.000; stroke:none;" />
 <path d="  M 279,286  L 279,285  L 277,285  L 277,286  Z  " style="fill:rgb(64, 64, 64); fill-opacity:1.000; stroke:none;" />
 <path d="  M 278,283  L 278,284  L 280,284  L 280,283  Z  " style="fill:rgb(64, 64, 64); fill-opacity:1.000; stroke:none;" />
 <path d="  M 281,281  L 279,281  L 279,282  L 281,282  Z  " style="fill:rgb(64, 64, 64); fill-opacity:1.000; stroke:none;" />
 <path d="  M 282,357  L 282,356  L 281,356  L 281,357  Z  " style="fill:rgb(64, 64, 64); fill-opacity:1.000; stroke:none;" />
 <path d="  M 283,276  L 282,276  L 282,277  L 283,277  Z  " style="fill:rgb(64, 64, 64); fill-opacity:1.000; stroke:none;" />
 <path d="  M 284,271  L 284,272  L 286,272  L 286,271  Z  " style="fill:rgb(64, 64, 64); fill-opacity:1.000; stroke:none;" />
 <path d="  M 285,273  L 284,273  L 284,274  L 285,274  Z  " style="fill:rgb(64, 64, 64); fill-opacity:1.000; stroke:none;" />
 <path d="  M 288,268  L 286,268  L 286,269  L 288,269  Z  " style="fill:rgb(64, 64, 64); fill-opacity:1.000; stroke:none;" />
 <path d="  M 287,267  L 288,267  L 288,266  L 287,266  Z  " style="fill:rgb(64, 64, 64); fill-opacity:1.000; stroke:none;" />
 <path d="  M 288,265  L 288,266  L 290,266  L 290,265  Z  " style="fill:rgb(64, 64, 64); fill-opacity:1.000; stroke:none;" />
 <path d="  M 291,262  L 290,262  L 290,263  L 291,263  Z  " style="fill:rgb(64, 64, 64); fill-opacity:1.000; stroke:none;" />
 <path d="  M 290,357  L 291,357  L 291,356  L 290,356  Z  " style="fill:rgb(64, 64, 64); fill-opacity:1.000; stroke:none;" />
 <path d="  M 293,262  L 293,261  L 292,261  L 292,262  Z  " style="fill:rgb(64, 64, 64); fill-opacity:1.000; stroke:none;" />
 <path d="  M 294,260  L 293,260  L 293,261  L 294,261  Z  " style="fill:rgb(64, 64, 64); fill-opacity:1.000; stroke:none;" />
 <path d="  M 295,260  L 295,259  L 294,259  L 294,260  Z  " style="fill:rgb(64, 64, 64); fill-opacity:1.000; stroke:none;" />
 <path d="  M 295,258  L 295,259  L 296,259  L 296,258  Z  " style="fill:rgb(64, 64, 64); fill-opacity:1.000; stroke:none;" />
 <path d="  M 297,258  L 297,257  L 296,257  L 296,258  Z  " style="fill:rgb(64, 64, 64); fill-opacity:1.000; stroke:none;" />
 <path d="  M 298,255  L 297,255  L 297,257  L 298,257  Z  " style="fill:rgb(64, 64, 64); fill-opacity:1.000; stroke:none;" />
 <path d="  M 298,254  L 298,255  L 299,255  L 299,254  Z  " style="fill:rgb(64, 64, 64); fill-opacity:1.000; stroke:none;" />
 <path d="  M 299,253  L 299,254  L 300,254  L 300,253  Z  " style="fill:rgb(64, 64, 64); fill-opacity:1.000; stroke:none;" />
 <path d="  M 301,252  L 301,254  L 302,254  L 302,252  Z  " style="fill:rgb(64, 64, 64); fill-opacity:1.000; stroke:none;" />
 <path d="  M 304,253  L 304,251  L 303,251  L 303,253  Z  " style="fill:rgb(64, 64, 64); fill-opacity:1.000; stroke:none;" />
 <path d="  M 306,251  L 305,251  L 305,252  L 306,252  Z  " style="fill:rgb(64, 64, 64); fill-opacity:1.000; stroke:none;" />
 <path d="  M 309,248  L 309,249  L 310,249  L 310,248  Z  " style="fill:rgb(64, 64, 64); fill-opacity:1.000; stroke:none;" />
 <path d="  M 311,247  L 311,249  L 312,249  L 312,247  Z  " style="fill:rgb(64, 64, 64); fill-opacity:1.000; stroke:none;" />
 <path d="  M 314,248  L 314,247  L 313,247  L 313,248  Z  " style="fill:rgb(64, 64, 64); fill-opacity:1.000; stroke:none;" />
 <path d="  M 314,245  L 314,246  L 315,246  L 315,245  Z  " style="fill:rgb(64, 64, 64); fill-opacity:1.000; stroke:none;" />
 <path d="  M 316,246  L 317,246  L 317,244  L 316,244  Z  " style="fill:rgb(64, 64, 64); fill-opacity:1.000; stroke:none;" />
 <path d="  M 318,245  L 319,245  L 319,243  L 318,243  Z  " style="fill:rgb(64, 64, 64); fill-opacity:1.000; stroke:none;" />
 <path d="  M 321,242  L 320,242  L 320,244  L 321,244  Z  " style="fill:rgb(64, 64, 64); fill-opacity:1.000; stroke:none;" />
 <path d="  M 323,241  L 323,242  L 324,242  L 324,241  Z  " style="fill:rgb(64, 64, 64); fill-opacity:1.000; stroke:none;" />
 <path d="  M 324,357  L 323,357  L 323,358  L 324,358  Z  " style="fill:rgb(64, 64, 64); fill-opacity:1.000; stroke:none;" />
 <path d="  M 325,241  L 325,242  L 326,242  L 326,241  Z  " style="fill:rgb(64, 64, 64); fill-opacity:1.000; stroke:none;" />
 <path d="  M 326,358  L 327,358  L 327,357  L 326,357  Z  " style="fill:rgb(64, 64, 64); fill-opacity:1.000; stroke:none;" />
 <path d="  M 328,241  L 328,239  L 327,239  L 327,241  Z  " style="fill:rgb(64, 64, 64); fill-opacity:1.000; stroke:none;" />
 <path d="  M 329,240  L 330,240  L 330,238  L 329,238  Z  " style="fill:rgb(64, 64, 64); fill-opacity:1.000; stroke:none;" />
 <path d="  M 332,237  L 331,237  L 331,239  L 332,239  Z  " style="fill:rgb(64, 64, 64); fill-opacity:1.000; stroke:none;" />
 <path d="  M 335,237  L 335,236  L 334,236  L 334,237  Z  " style="fill:rgb(64, 64, 64); fill-opacity:1.000; stroke:none;" />
 <path d="  M 338,236  L 339,236  L 339,235  L 338,235  Z  " style="fill:rgb(64, 64, 64); fill-opacity:1.000; stroke:none;" />
 <path d="  M 341,235  L 341,236  L 342,236  L 342,235  Z  " style="fill:rgb(64, 64, 64); fill-opacity:1.000; stroke:none;" />
 <path d="  M 346,235  L 346,234  L 345,234  L 345,235  Z  " style="fill:rgb(64, 64, 64); fill-opacity:1.000; stroke:none;" />
 <path d="  M 349,234  L 348,234  L 348,235  L 349,235  Z  " style="fill:rgb(64, 64, 64); fill-opacity:1.000; stroke:none;" />
 <path d="  M 353,235  L 353,234  L 352,234  L 352,235  Z  " style="fill:rgb(64, 64, 64); fill-opacity:1.000; stroke:none;" />
 <path d="  M 357,236  L 357,234  L 356,234  L 356,236  Z  " style="fill:rgb(64, 64, 64); fill-opacity:1.000; stroke:none;" />
 <path d="  M 362,236  L 362,235  L 361,235  L 361,236  Z  " style="fill:rgb(64, 64, 64); fill-opacity:1.000; stroke:none;" />
 <path d="  M 365,237  L 365,236  L 364,236  L 364,237  Z  " style="fill:rgb(64, 64, 64); fill-opacity:1.000; stroke:none;" />
 <path d="  M 367,239  L 368,239  L 368,238  L 367,238  Z  " style="fill:rgb(64, 64, 64); fill-opacity:1.000; stroke:none;" />
 <path d="  M 367,358  L 367,359  L 368,359  L 368,358  Z  " style="fill:rgb(64, 64, 64); fill-opacity:1.000; stroke:none;" />
 <path d="  M 370,241  L 368,241  L 368,242  L 369,242  L 369,243  L 370,243  Z  " style="fill:rgb(64, 64, 64); fill-opacity:1.000; stroke:none;" />
 <path d="  M 372,247  L 372,245  L 371,245  L 371,247  Z  " style="fill:rgb(64, 64, 64); fill-opacity:1.000; stroke:none;" />
 <path d="  M 371,358  L 372,358  L 372,357  L 371,357  Z  " style="fill:rgb(64, 64, 64); fill-opacity:1.000; stroke:none;" />
 <path d="  M 373,247  L 373,248  L 374,248  L 374,247  Z  " style="fill:rgb(64, 64, 64); fill-opacity:1.000; stroke:none;" />
 <path d="  M 374,249  L 375,249  L 375,248  L 374,248  Z  " style="fill:rgb(64, 64, 64); fill-opacity:1.000; stroke:none;" />
 <path d="  M 378,250  L 376,250  L 376,251  L 378,251  Z  " style="fill:rgb(64, 64, 64); fill-opacity:1.000; stroke:none;" />
 <path d="  M 377,357  L 377,356  L 376,356  L 376,357  Z  " style="fill:rgb(64, 64, 64); fill-opacity:1.000; stroke:none;" />
 <path d="  M 378,251  L 378,252  L 379,252  L 379,251  Z  " style="fill:rgb(64, 64, 64); fill-opacity:1.000; stroke:none;" />
 <path d="  M 379,252  L 379,253  L 380,253  L 380,252  Z  " style="fill:rgb(64, 64, 64); fill-opacity:1.000; stroke:none;" />
 <path d="  M 382,255  L 380,255  L 380,256  L 382,256  Z  " style="fill:rgb(64, 64, 64); fill-opacity:1.000; stroke:none;" />
 <path d="  M 382,355  L 382,354  L 380,354  L 380,355  Z  " style="fill:rgb(64, 64, 64); fill-opacity:1.000; stroke:none;" />
 <path d="  M 384,258  L 384,257  L 383,257  L 383,256  L 382,256  L 382,258  Z  " style="fill:rgb(64, 64, 64); fill-opacity:1.000; stroke:none;" />
 <path d="  M 382,350  L 383,350  L 383,349  L 382,349  Z  " style="fill:rgb(64, 64, 64); fill-opacity:1.000; stroke:none;" />
 <path d="  M 385,271  L 385,270  L 384,270  L 384,271  Z  " style="fill:rgb(64, 64, 64); fill-opacity:1.000; stroke:none;" />
 <path d="  M 384,292  L 385,292  L 385,291  L 384,291  Z  " style="fill:rgb(64, 64, 64); fill-opacity:1.000; stroke:none;" />
 <path d="  M 384,343  L 384,344  L 385,344  L 385,343  Z  " style="fill:rgb(64, 64, 64); fill-opacity:1.000; stroke:none;" />
 <path d="  M 385,261  L 385,262  L 386,262  L 386,261  Z  " style="fill:rgb(64, 64, 64); fill-opacity:1.000; stroke:none;" />
 <path d="  M 386,267  L 385,267  L 385,268  L 386,268  Z  " style="fill:rgb(64, 64, 64); fill-opacity:1.000; stroke:none;" />
 <path d="  M 385,298  L 386,298  L 386,297  L 385,297  Z  " style="fill:rgb(64, 64, 64); fill-opacity:1.000; stroke:none;" />
 <path d="  M 385,325  L 385,326  L 386,326  L 386,325  Z  " style="fill:rgb(64, 64, 64); fill-opacity:1.000; stroke:none;" />
 <path d="  M 385,334  L 386,334  L 386,333  L 385,333  Z  " style="fill:rgb(64, 64, 64); fill-opacity:1.000; stroke:none;" />
 <path d="  M 387,306  L 387,305  L 386,305  L 386,306  Z  " style="fill:rgb(64, 64, 64); fill-opacity:1.000; stroke:none;" />
 <path d="  M 386,310  L 387,310  L 387,309  L 386,309  Z  " style="fill:rgb(64, 64, 64); fill-opacity:1.000; stroke:none;" />
 <path d="  M 386,318  L 386,319  L 387,319  L 387,318  Z  " style="fill:rgb(64, 64, 64); fill-opacity:1.000; stroke:none;" />
 <path d="  M 265,340  L 264,340  L 264,342  L 265,342  Z  " style="fill:rgb(0, 0, 0); fill-opacity:1.000; stroke:none;" />
 <path d="  M 265,345  L 264,345  L 264,346  L 265,346  Z  " style="fill:rgb(0, 0, 0); fill-opacity:1.000; stroke:none;" />
 <path d="  M 265,337  L 265,339  L 266,339  L 266,337  Z  " style="fill:rgb(0, 0, 0); fill-opacity:1.000; stroke:none;" />
 <path d="  M 266,347  L 266,346  L 265,346  L 265,347  Z  " style="fill:rgb(0, 0, 0); fill-opacity:1.000; stroke:none;" />
 <path d="  M 266,335  L 266,336  L 267,336  L 267,335  Z  " style="fill:rgb(0, 0, 0); fill-opacity:1.000; stroke:none;" />
 <path d="  M 267,348  L 266,348  L 266,349  L 267,349  Z  " style="fill:rgb(0, 0, 0); fill-opacity:1.000; stroke:none;" />
 <path d="  M 268,330  L 267,330  L 267,332  L 268,332  Z  " style="fill:rgb(0, 0, 0); fill-opacity:1.000; stroke:none;" />
 <path d="  M 267,351  L 268,351  L 268,349  L 267,349  Z  " style="fill:rgb(0, 0, 0); fill-opacity:1.000; stroke:none;" />
 <path d="  M 268,329  L 269,329  L 269,327  L 268,327  Z  " style="fill:rgb(0, 0, 0); fill-opacity:1.000; stroke:none;" />
 <path d="  M 270,326  L 270,324  L 269,324  L 269,326  Z  " style="fill:rgb(0, 0, 0); fill-opacity:1.000; stroke:none;" />
 <path d="  M 270,352  L 270,351  L 269,351  L 269,352  Z  " style="fill:rgb(0, 0, 0); fill-opacity:1.000; stroke:none;" />
 <path d="  M 270,317  L 271,317  L 271,310  L 270,310  Z  " style="fill:rgb(0, 0, 0); fill-opacity:1.000; stroke:none;" />
 <path d="  M 271,318  L 270,318  L 270,320  L 271,320  Z  " style="fill:rgb(0, 0, 0); fill-opacity:1.000; stroke:none;" />
 <path d="  M 270,323  L 271,323  L 271,322  L 270,322  Z  " style="fill:rgb(0, 0, 0); fill-opacity:1.000; stroke:none;" />
 <path d="  M 271,352  L 270,352  L 270,353  L 271,353  Z  " style="fill:rgb(0, 0, 0); fill-opacity:1.000; stroke:none;" />
 <path d="  M 272,308  L 272,306  L 271,306  L 271,308  Z  " style="fill:rgb(0, 0, 0); fill-opacity:1.000; stroke:none;" />
 <path d="  M 272,354  L 272,353  L 271,353  L 271,354  Z  " style="fill:rgb(0, 0, 0); fill-opacity:1.000; stroke:none;" />
 <path d="  M 272,304  L 273,304  L 273,298  L 272,298  Z  " style="fill:rgb(0, 0, 0); fill-opacity:1.000; stroke:none;" />
 <path d="  M 274,294  L 273,294  L 273,297  L 274,297  Z  " style="fill:rgb(0, 0, 0); fill-opacity:1.000; stroke:none;" />
 <path d="  M 275,355  L 275,354  L 273,354  L 273,355  Z  " style="fill:rgb(0, 0, 0); fill-opacity:1.000; stroke:none;" />
 <path d="  M 275,292  L 274,292  L 274,294  L 275,294  Z  " style="fill:rgb(0, 0, 0); fill-opacity:1.000; stroke:none;" />
 <path d="  M 275,290  L 275,291  L 276,291  L 276,290  Z  " style="fill:rgb(0, 0, 0); fill-opacity:1.000; stroke:none;" />
 <path d="  M 276,289  L 277,289  L 277,288  L 276,288  Z  " style="fill:rgb(0, 0, 0); fill-opacity:1.000; stroke:none;" />
 <path d="  M 279,355  L 276,355  L 276,356  L 279,356  Z  " style="fill:rgb(0, 0, 0); fill-opacity:1.000; stroke:none;" />
 <path d="  M 278,287  L 278,286  L 277,286  L 277,287  Z  " style="fill:rgb(0, 0, 0); fill-opacity:1.000; stroke:none;" />
 <path d="  M 278,284  L 278,285  L 279,285  L 279,284  Z  " style="fill:rgb(0, 0, 0); fill-opacity:1.000; stroke:none;" />
 <path d="  M 280,282  L 279,282  L 279,283  L 280,283  Z  " style="fill:rgb(0, 0, 0); fill-opacity:1.000; stroke:none;" />
 <path d="  M 280,279  L 280,281  L 281,281  L 281,279  Z  " style="fill:rgb(0, 0, 0); fill-opacity:1.000; stroke:none;" />
 <path d="  M 281,279  L 282,279  L 282,277  L 281,277  Z  " style="fill:rgb(0, 0, 0); fill-opacity:1.000; stroke:none;" />
 <path d="  M 283,275  L 282,275  L 282,276  L 283,276  Z  " style="fill:rgb(0, 0, 0); fill-opacity:1.000; stroke:none;" />
 <path d="  M 282,357  L 290,357  L 290,356  L 282,356  Z  " style="fill:rgb(0, 0, 0); fill-opacity:1.000; stroke:none;" />
 <path d="  M 283,275  L 284,275  L 284,273  L 283,273  Z  " style="fill:rgb(0, 0, 0); fill-opacity:1.000; stroke:none;" />
 <path d="  M 284,273  L 285,273  L 285,272  L 284,272  Z  " style="fill:rgb(0, 0, 0); fill-opacity:1.000; stroke:none;" />
 <path d="  M 286,270  L 285,270  L 285,271  L 286,271  Z  " style="fill:rgb(0, 0, 0); fill-opacity:1.000; stroke:none;" />
 <path d="  M 286,269  L 286,270  L 287,270  L 287,269  Z  " style="fill:rgb(0, 0, 0); fill-opacity:1.000; stroke:none;" />
 <path d="  M 287,267  L 287,268  L 288,268  L 288,267  Z  " style="fill:rgb(0, 0, 0); fill-opacity:1.000; stroke:none;" />
 <path d="  M 289,267  L 289,266  L 288,266  L 288,267  Z  " style="fill:rgb(0, 0, 0); fill-opacity:1.000; stroke:none;" />
 <path d="  M 290,265  L 290,264  L 289,264  L 289,265  Z  " style="fill:rgb(0, 0, 0); fill-opacity:1.000; stroke:none;" />
 <path d="  M 291,264  L 291,263  L 290,263  L 290,264  Z  " style="fill:rgb(0, 0, 0); fill-opacity:1.000; stroke:none;" />
 <path d="  M 291,263  L 292,263  L 292,261  L 291,261  Z  " style="fill:rgb(0, 0, 0); fill-opacity:1.000; stroke:none;" />
 <path d="  M 292,260  L 292,261  L 293,261  L 293,260  Z  " style="fill:rgb(0, 0, 0); fill-opacity:1.000; stroke:none;" />
 <path d="  M 293,259  L 293,260  L 294,260  L 294,259  Z  " style="fill:rgb(0, 0, 0); fill-opacity:1.000; stroke:none;" />
 <path d="  M 295,258  L 294,258  L 294,259  L 295,259  Z  " style="fill:rgb(0, 0, 0); fill-opacity:1.000; stroke:none;" />
 <path d="  M 295,257  L 295,258  L 296,258  L 296,257  Z  " style="fill:rgb(0, 0, 0); fill-opacity:1.000; stroke:none;" />
 <path d="  M 296,257  L 297,257  L 297,256  L 296,256  Z  " style="fill:rgb(0, 0, 0); fill-opacity:1.000; stroke:none;" />
 <path d="  M 299,255  L 298,255  L 298,256  L 299,256  Z  " style="fill:rgb(0, 0, 0); fill-opacity:1.000; stroke:none;" />
 <path d="  M 299,255  L 300,255  L 300,254  L 299,254  Z  " style="fill:rgb(0, 0, 0); fill-opacity:1.000; stroke:none;" />
 <path d="  M 301,253  L 300,253  L 300,254  L 301,254  Z  " style="fill:rgb(0, 0, 0); fill-opacity:1.000; stroke:none;" />
 <path d="  M 317,358  L 317,357  L 300,357  L 300,358  Z  " style="fill:rgb(0, 0, 0); fill-opacity:1.000; stroke:none;" />
 <path d="  M 302,252  L 302,253  L 303,253  L 303,252  Z  " style="fill:rgb(0, 0, 0); fill-opacity:1.000; stroke:none;" />
 <path d="  M 305,251  L 304,251  L 304,252  L 305,252  Z  " style="fill:rgb(0, 0, 0); fill-opacity:1.000; stroke:none;" />
 <path d="  M 306,250  L 306,251  L 308,251  L 308,250  Z  " style="fill:rgb(0, 0, 0); fill-opacity:1.000; stroke:none;" />
 <path d="  M 310,250  L 310,249  L 308,249  L 308,250  Z  " style="fill:rgb(0, 0, 0); fill-opacity:1.000; stroke:none;" />
 <path d="  M 311,249  L 311,248  L 310,248  L 310,249  Z  " style="fill:rgb(0, 0, 0); fill-opacity:1.000; stroke:none;" />
 <path d="  M 312,248  L 313,248  L 313,247  L 312,247  Z  " style="fill:rgb(0, 0, 0); fill-opacity:1.000; stroke:none;" />
 <path d="  M 313,246  L 313,247  L 315,247  L 315,246  Z  " style="fill:rgb(0, 0, 0); fill-opacity:1.000; stroke:none;" />
 <path d="  M 316,246  L 316,245  L 315,245  L 315,246  Z  " style="fill:rgb(0, 0, 0); fill-opacity:1.000; stroke:none;" />
 <path d="  M 318,245  L 318,244  L 317,244  L 317,245  Z  " style="fill:rgb(0, 0, 0); fill-opacity:1.000; stroke:none;" />
 <path d="  M 320,243  L 319,243  L 319,244  L 320,244  Z  " style="fill:rgb(0, 0, 0); fill-opacity:1.000; stroke:none;" />
 <path d="  M 321,242  L 321,243  L 323,243  L 323,242  Z  " style="fill:rgb(0, 0, 0); fill-opacity:1.000; stroke:none;" />
 <path d="  M 325,241  L 324,241  L 324,242  L 325,242  Z  " style="fill:rgb(0, 0, 0); fill-opacity:1.000; stroke:none;" />
 <path d="  M 326,358  L 326,357  L 324,357  L 324,358  Z  " style="fill:rgb(0, 0, 0); fill-opacity:1.000; stroke:none;" />
 <path d="  M 327,240  L 326,240  L 326,241  L 327,241  Z  " style="fill:rgb(0, 0, 0); fill-opacity:1.000; stroke:none;" />
 <path d="  M 329,240  L 329,239  L 328,239  L 328,240  Z  " style="fill:rgb(0, 0, 0); fill-opacity:1.000; stroke:none;" />
 <path d="  M 330,238  L 330,239  L 331,239  L 331,238  Z  " style="fill:rgb(0, 0, 0); fill-opacity:1.000; stroke:none;" />
 <path d="  M 332,237  L 332,238  L 334,238  L 334,237  Z  " style="fill:rgb(0, 0, 0); fill-opacity:1.000; stroke:none;" />
 <path d="  M 367,359  L 367,358  L 334,358  L 334,359  Z  " style="fill:rgb(0, 0, 0); fill-opacity:1.000; stroke:none;" />
 <path d="  M 337,237  L 337,236  L 335,236  L 335,237  Z  " style="fill:rgb(0, 0, 0); fill-opacity:1.000; stroke:none;" />
 <path d="  M 339,236  L 341,236  L 341,235  L 339,235  Z  " style="fill:rgb(0, 0, 0); fill-opacity:1.000; stroke:none;" />
 <path d="  M 346,234  L 346,235  L 348,235  L 348,234  Z  " style="fill:rgb(0, 0, 0); fill-opacity:1.000; stroke:none;" />
 <path d="  M 353,234  L 353,235  L 356,235  L 356,234  Z  " style="fill:rgb(0, 0, 0); fill-opacity:1.000; stroke:none;" />
 <path d="  M 357,235  L 357,236  L 361,236  L 361,235  Z  " style="fill:rgb(0, 0, 0); fill-opacity:1.000; stroke:none;" />
 <path d="  M 362,236  L 362,237  L 364,237  L 364,236  Z  " style="fill:rgb(0, 0, 0); fill-opacity:1.000; stroke:none;" />
 <path d="  M 365,237  L 365,238  L 366,238  L 366,237  Z  " style="fill:rgb(0, 0, 0); fill-opacity:1.000; stroke:none;" />
 <path d="  M 367,238  L 366,238  L 366,239  L 367,239  Z  " style="fill:rgb(0, 0, 0); fill-opacity:1.000; stroke:none;" />
 <path d="  M 367,240  L 368,240  L 368,239  L 367,239  Z  " style="fill:rgb(0, 0, 0); fill-opacity:1.000; stroke:none;" />
 <path d="  M 368,240  L 368,241  L 369,241  L 369,240  Z  " style="fill:rgb(0, 0, 0); fill-opacity:1.000; stroke:none;" />
 <path d="  M 370,245  L 371,245  L 371,243  L 370,243  Z  " style="fill:rgb(0, 0, 0); fill-opacity:1.000; stroke:none;" />
 <path d="  M 373,246  L 372,246  L 372,247  L 373,247  Z  " style="fill:rgb(0, 0, 0); fill-opacity:1.000; stroke:none;" />
 <path d="  M 376,358  L 376,357  L 372,357  L 372,358  Z  " style="fill:rgb(0, 0, 0); fill-opacity:1.000; stroke:none;" />
 <path d="  M 374,248  L 375,248  L 375,247  L 374,247  Z  " style="fill:rgb(0, 0, 0); fill-opacity:1.000; stroke:none;" />
 <path d="  M 376,249  L 376,248  L 375,248  L 375,249  Z  " style="fill:rgb(0, 0, 0); fill-opacity:1.000; stroke:none;" />
 <path d="  M 377,250  L 377,249  L 376,249  L 376,250  Z  " style="fill:rgb(0, 0, 0); fill-opacity:1.000; stroke:none;" />
 <path d="  M 377,251  L 377,252  L 378,252  L 378,251  Z  " style="fill:rgb(0, 0, 0); fill-opacity:1.000; stroke:none;" />
 <path d="  M 377,356  L 377,357  L 379,357  L 379,356  Z  " style="fill:rgb(0, 0, 0); fill-opacity:1.000; stroke:none;" />
 <path d="  M 379,253  L 379,252  L 378,252  L 378,253  Z  " style="fill:rgb(0, 0, 0); fill-opacity:1.000; stroke:none;" />
 <path d="  M 379,253  L 379,254  L 380,254  L 380,253  Z  " style="fill:rgb(0, 0, 0); fill-opacity:1.000; stroke:none;" />
 <path d="  M 379,355  L 379,356  L 381,356  L 381,355  Z  " style="fill:rgb(0, 0, 0); fill-opacity:1.000; stroke:none;" />
 <path d="  M 381,255  L 381,254  L 380,254  L 380,255  Z  " style="fill:rgb(0, 0, 0); fill-opacity:1.000; stroke:none;" />
 <path d="  M 382,257  L 382,256  L 381,256  L 381,257  Z  " style="fill:rgb(0, 0, 0); fill-opacity:1.000; stroke:none;" />
 <path d="  M 382,352  L 381,352  L 381,354  L 382,354  Z  " style="fill:rgb(0, 0, 0); fill-opacity:1.000; stroke:none;" />
 <path d="  M 383,350  L 382,350  L 382,352  L 383,352  Z  " style="fill:rgb(0, 0, 0); fill-opacity:1.000; stroke:none;" />
 <path d="  M 383,259  L 384,259  L 384,258  L 383,258  Z  " style="fill:rgb(0, 0, 0); fill-opacity:1.000; stroke:none;" />
 <path d="  M 383,349  L 384,349  L 384,347  L 383,347  Z  " style="fill:rgb(0, 0, 0); fill-opacity:1.000; stroke:none;" />
 <path d="  M 384,261  L 385,261  L 385,259  L 384,259  Z  " style="fill:rgb(0, 0, 0); fill-opacity:1.000; stroke:none;" />
 <path d="  M 385,268  L 384,268  L 384,270  L 385,270  Z  " style="fill:rgb(0, 0, 0); fill-opacity:1.000; stroke:none;" />
 <path d="  M 385,277  L 384,277  L 384,291  L 385,291  Z  " style="fill:rgb(0, 0, 0); fill-opacity:1.000; stroke:none;" />
 <path d="  M 385,346  L 385,344  L 384,344  L 384,346  Z  " style="fill:rgb(0, 0, 0); fill-opacity:1.000; stroke:none;" />
 <path d="  M 386,262  L 385,262  L 385,267  L 386,267  Z  " style="fill:rgb(0, 0, 0); fill-opacity:1.000; stroke:none;" />
 <path d="  M 385,298  L 385,304  L 386,304  L 386,298  Z  " style="fill:rgb(0, 0, 0); fill-opacity:1.000; stroke:none;" />
 <path d="  M 386,326  L 385,326  L 385,333  L 386,333  Z  " style="fill:rgb(0, 0, 0); fill-opacity:1.000; stroke:none;" />
 <path d="  M 387,306  L 386,306  L 386,309  L 387,309  Z  " style="fill:rgb(0, 0, 0); fill-opacity:1.000; stroke:none;" />
 <path d="  M 387,319  L 386,319  L 386,321  L 387,321  Z  " style="fill:rgb(0, 0, 0); fill-opacity:1.000; stroke:none;" />
</svg>
