<svg xmlns="http://www.w3.org/2000/svg" version="1.1">
<path d="M 359.0,373.73298429319374 L 358.203125,374.0 L 358.0,374.203125 L 357.59842519685037,375.0 L 357.59842519685037,376.0 L 357.59842519685037,377.0 L 357.203125,378.0 L 357.0,378.203125 L 356.8,379.0 L 356.8,380.0 L 356.8,381.0 L 356.8,382.0 L 356.73298429319374,383.0 L 356.0,383.73298429319374 L 355.0,383.8 L 354.203125,384.0 L 354.0,384.203125 L 353.796875,384.0 L 353.0,383.59842519685037 L 352.40157480314963,383.0 L 352.2,382.0 L 352.0,381.203125 L 351.796875,381.0 L 351.26701570680626,380.0 L 351.2,379.0 L 351.0,378.59842519685037 L 350.40157480314963,378.0 L 350.26701570680626,377.0 L 350.2,376.0 L 350.0,375.73298429319374 L 349.26701570680626,375.0 L 349.0,374.203125 L 348.796875,374.0 L 348.0,373.59842519685037 L 347.0,373.59842519685037 L 346.0,373.59842519685037 L 345.0,373.73298429319374 L 344.203125,374.0 L 344.0,374.203125 L 343.0,374.59842519685037 L 342.0,374.73298429319374 L 341.0,374.8 L 340.0,374.8 L 339.0,374.8 L 338.0,374.8 L 337.0,374.8 L 336.203125,375.0 L 336.0,375.203125 L 335.0,375.59842519685037 L 334.0,375.59842519685037 L 333.0,375.59842519685037 L 332.0,375.8 L 331.0,375.8 L 330.59842519685037,376.0 L 330.0,376.59842519685037 L 329.0,376.73298429319374 L 328.0,376.8 L 327.0,376.73298429319374 L 326.0,376.203125 L 325.796875,376.0 L 325.0,375.203125 L 324.796875,375.0 L 324.2,374.0 L 324.0,373.59842519685037 L 323.40157480314963,373.0 L 323.2,372.0 L 323.0,371.203125 L 322.796875,371.0 L 322.40157480314963,370.0 L 322.26701570680626,369.0 L 322.2,368.0 L 322.2,367.0 L 322.2,366.0 L 322.0,365.59842519685037 L 321.40157480314963,365.0 L 321.40157480314963,364.0 L 321.2,363.0 L 321.2,362.0 L 321.0,361.203125 L 320.796875,361.0 L 320.40157480314963,360.0 L 320.2,359.0 L 320.0,358.203125 L 319.796875,358.0 L 319.40157480314963,357.0 L 319.2,356.0 L 319.2,355.0 L 319.2,354.0 L 319.2,353.0 L 319.0,352.203125 L 318.796875,352.0 L 318.2,351.0 L 318.2,350.0 L 318.0,349.59842519685037 L 317.40157480314963,349.0 L 317.40157480314963,348.0 L 317.26701570680626,347.0 L 317.2,346.0 L 317.2,345.0 L 317.0,344.203125 L 316.796875,344.0 L 316.40157480314963,343.0 L 316.2,342.0 L 316.2,341.0 L 316.2,340.0 L 316.2,339.0 L 316.2,338.0 L 316.2,337.0 L 316.2,336.0 L 316.2,335.0 L 316.0,334.59842519685037 L 315.40157480314963,334.0 L 315.0,333.203125 L 314.796875,333.0 L 314.0,332.203125 L 313.796875,332.0 L 313.0,331.8 L 312.203125,332.0 L 312.0,332.203125 L 311.0,332.59842519685037 L 310.0,332.73298429319374 L 309.203125,333.0 L 309.0,333.203125 L 308.0,333.59842519685037 L 307.0,333.73298429319374 L 306.203125,334.0 L 306.0,334.203125 L 305.0,334.59842519685037 L 304.0,334.8 L 303.59842519685037,335.0 L 303.0,335.59842519685037 L 302.0,335.59842519685037 L 301.0,335.59842519685037 L 300.0,335.8 L 299.203125,336.0 L 299.0,336.203125 L 298.0,336.59842519685037 L 297.0,336.59842519685037 L 296.0,336.59842519685037 L 295.0,336.8 L 294.0,336.8 L 293.0,336.8 L 292.203125,337.0 L 292.0,337.203125 L 291.0,337.59842519685037 L 290.0,337.59842519685037 L 289.0,337.59842519685037 L 288.0,337.59842519685037 L 287.0,337.59842519685037 L 286.0,337.73298429319374 L 285.0,337.8 L 284.0,337.8 L 283.0,337.8 L 282.203125,338.0 L 282.0,338.203125 L 281.0,338.59842519685037 L 280.0,338.59842519685037 L 279.0,338.59842519685037 L 278.0,338.59842519685037 L 277.0,338.73298429319374 L 276.0,338.8 L 275.0,338.8 L 274.0,338.8 L 273.203125,339.0 L 273.0,339.203125 L 272.0,339.59842519685037 L 271.0,339.59842519685037 L 270.0,339.59842519685037 L 269.40157480314963,339.0 L 269.0,338.8 L 268.0,338.8 L 267.0,338.73298429319374 L 266.0,338.59842519685037 L 265.0,338.8 L 264.0,338.8 L 263.0,338.8 L 262.59842519685037,339.0 L 262.0,339.59842519685037 L 261.0,339.59842519685037 L 260.0,339.59842519685037 L 259.0,339.59842519685037 L 258.0,339.73298429319374 L 257.0,339.8 L 256.0,339.8 L 255.203125,340.0 L 255.0,340.203125 L 254.0,340.59842519685037 L 253.0,340.59842519685037 L 252.0,340.59842519685037 L 251.0,340.59842519685037 L 250.0,340.8 L 249.0,340.8 L 248.0,340.8 L 247.5984251968504,341.0 L 247.0,341.59842519685037 L 246.0,341.59842519685037 L 245.0,341.59842519685037 L 244.0,341.59842519685037 L 243.0,341.59842519685037 L 242.0,341.8 L 241.0,341.8 L 240.0,341.8 L 239.0,341.8 L 238.0,341.8 L 237.0,341.8 L 236.0,341.8 L 235.0,341.8 L 234.0,341.8 L 233.0,341.8 L 232.0,341.8 L 231.0,341.8 L 230.0,341.59842519685037 L 229.0,341.59842519685037 L 228.0,341.59842519685037 L 227.0,341.203125 L 226.796875,341.0 L 226.0,340.8 L 225.0,340.8 L 224.0,340.59842519685037 L 223.0,340.59842519685037 L 222.0,340.203125 L 221.796875,340.0 L 221.0,339.8 L 220.0,339.73298429319374 L 219.0,339.59842519685037 L 218.0,339.203125 L 217.796875,339.0 L 217.0,338.73298429319374 L 216.0,338.59842519685037 L 215.4015748031496,338.0 L 215.0,337.73298429319374 L 214.0,337.203125 L 213.796875,337.0 L 213.0,336.59842519685037 L 212.4015748031496,336.0 L 212.0,335.73298429319374 L 211.0,335.203125 L 210.796875,335.0 L 210.0,334.73298429319374 L 209.0,334.203125 L 208.796875,334.0 L 208.0,333.59842519685037 L 207.4015748031496,333.0 L 207.0,332.73298429319374 L 206.2670157068063,332.0 L 206.0,331.8 L 205.0,331.203125 L 204.796875,331.0 L 204.0,330.203125 L 203.796875,330.0 L 203.0,329.203125 L 202.796875,329.0 L 202.2670157068063,328.0 L 202.0,327.203125 L 201.796875,327.0 L 201.2,326.0 L 201.0,325.73298429319374 L 200.2670157068063,325.0 L 200.0,324.73298429319374 L 199.2670157068063,324.0 L 199.0,323.203125 L 198.796875,323.0 L 198.0,322.203125 L 197.796875,322.0 L 197.2,321.0 L 197.0,320.73298429319374 L 196.2670157068063,320.0 L 196.0,319.203125 L 195.796875,319.0 L 195.0,318.203125 L 194.796875,318.0 L 194.2,317.0 L 194.0,316.59842519685037 L 193.4015748031496,316.0 L 193.0,315.203125 L 192.796875,315.0 L 192.4015748031496,314.0 L 192.2,313.0 L 192.0,312.59842519685037 L 191.4015748031496,312.0 L 191.4015748031496,311.0 L 191.2,310.0 L 191.2,309.0 L 191.2,308.0 L 191.0,307.203125 L 190.796875,307.0 L 190.4015748031496,306.0 L 190.4015748031496,305.0 L 190.4015748031496,304.0 L 190.4015748031496,303.0 L 190.4015748031496,302.0 L 191.0,301.40157480314963 L 191.2,301.0 L 191.2,300.0 L 191.2,299.0 L 191.4015748031496,298.0 L 191.4015748031496,297.0 L 192.0,296.40157480314963 L 192.2,296.0 L 192.4015748031496,295.0 L 192.796875,294.0 L 193.0,293.796875 L 193.2,293.0 L 193.4015748031496,292.0 L 193.796875,291.0 L 194.0,290.796875 L 194.2,290.0 L 194.2,289.0 L 194.4015748031496,288.0 L 194.4015748031496,287.0 L 194.4015748031496,286.0 L 194.4015748031496,285.0 L 195.0,284.40157480314963 L 195.2,284.0 L 195.2,283.0 L 195.2,282.0 L 195.2,281.0 L 195.2,280.0 L 195.0,279.203125 L 194.796875,279.0 L 194.4015748031496,278.0 L 194.4015748031496,277.0 L 194.4015748031496,276.0 L 194.796875,275.0 L 195.0,274.796875 L 195.2,274.0 L 195.4015748031496,273.0 L 195.4015748031496,272.0 L 195.4015748031496,271.0 L 195.796875,270.0 L 196.0,269.796875 L 196.2,269.0 L 196.2,268.0 L 196.2670157068063,267.0 L 196.796875,266.0 L 197.0,265.796875 L 197.2670157068063,265.0 L 197.796875,264.0 L 198.0,263.796875 L 198.2,263.0 L 198.2670157068063,262.0 L 198.796875,261.0 L 199.0,260.796875 L 199.2,260.0 L 199.2670157068063,259.0 L 199.796875,258.0 L 200.0,257.796875 L 200.2670157068063,257.0 L 200.796875,256.0 L 201.0,255.796875 L 201.2670157068063,255.0 L 202.0,254.2670157068063 L 202.2,254.0 L 202.796875,253.0 L 203.0,252.796875 L 203.2670157068063,252.0 L 204.0,251.2670157068063 L 204.2670157068063,251.0 L 205.0,250.2670157068063 L 205.796875,250.0 L 206.0,249.796875 L 206.796875,249.0 L 207.0,248.796875 L 208.0,248.2670157068063 L 208.4015748031496,248.0 L 209.0,247.4015748031496 L 209.796875,247.0 L 210.0,246.796875 L 211.0,246.2 L 211.2670157068063,246.0 L 212.0,245.2670157068063 L 212.796875,245.0 L 213.0,244.796875 L 213.796875,244.0 L 214.0,243.796875 L 215.0,243.2 L 215.2670157068063,243.0 L 216.0,242.2670157068063 L 216.2670157068063,242.0 L 217.0,241.2670157068063 L 217.4015748031496,241.0 L 218.0,240.4015748031496 L 219.0,240.2 L 219.2670157068063,240.0 L 220.0,239.2670157068063 L 220.796875,239.0 L 221.0,238.796875 L 222.0,238.2670157068063 L 222.796875,238.0 L 223.0,237.796875 L 224.0,237.4015748031496 L 225.0,237.2 L 225.4015748031496,237.0 L 226.0,236.4015748031496 L 227.0,236.2670157068063 L 228.0,236.2 L 228.4015748031496,236.0 L 229.0,235.4015748031496 L 230.0,235.2670157068063 L 231.0,235.2 L 231.4015748031496,235.0 L 232.0,234.4015748031496 L 233.0,234.2 L 233.2670157068063,234.0 L 234.0,233.2670157068063 L 234.2,233.0 L 234.2,232.0 L 234.2,231.0 L 234.2,230.0 L 234.2,229.0 L 234.0,228.5984251968504 L 233.4015748031496,228.0 L 233.4015748031496,227.0 L 233.2,226.0 L 233.0,225.203125 L 232.796875,225.0 L 232.2670157068063,224.0 L 232.0,223.7329842931937 L 231.0,223.5984251968504 L 230.4015748031496,223.0 L 230.0,222.8 L 229.0,222.8 L 228.0,222.8 L 227.0,222.5984251968504 L 226.0,222.5984251968504 L 225.0,222.203125 L 224.796875,222.0 L 224.0,221.7329842931937 L 223.0,221.5984251968504 L 222.0,221.5984251968504 L 221.4015748031496,221.0 L 221.0,220.8 L 220.0,220.8 L 219.0,220.5984251968504 L 218.0,220.5984251968504 L 217.4015748031496,220.0 L 217.0,219.7329842931937 L 216.0,219.203125 L 215.796875,219.0 L 215.2,218.0 L 215.0,217.7329842931937 L 214.2670157068063,217.0 L 214.2,216.0 L 214.0,215.5984251968504 L 213.4015748031496,215.0 L 213.4015748031496,214.0 L 213.4015748031496,213.0 L 213.2670157068063,212.0 L 213.2,211.0 L 213.0,210.7329842931937 L 212.2670157068063,210.0 L 212.0,209.7329842931937 L 211.2670157068063,209.0 L 211.0,208.7329842931937 L 210.2670157068063,208.0 L 210.0,207.203125 L 209.796875,207.0 L 209.2670157068063,206.0 L 209.0,205.203125 L 208.796875,205.0 L 208.4015748031496,204.0 L 208.2670157068063,203.0 L 208.0,202.203125 L 207.796875,202.0 L 207.0,201.203125 L 206.796875,201.0 L 206.0,200.203125 L 205.796875,200.0 L 205.2670157068063,199.0 L 205.2,198.0 L 205.0,197.5984251968504 L 204.4015748031496,197.0 L 204.4015748031496,196.0 L 204.4015748031496,195.0 L 204.4015748031496,194.0 L 204.4015748031496,193.0 L 204.796875,192.0 L 204.4015748031496,191.0 L 204.4015748031496,190.0 L 204.4015748031496,189.0 L 204.4015748031496,188.0 L 204.796875,187.0 L 205.0,186.796875 L 205.2,186.0 L 205.796875,185.0 L 206.0,184.796875 L 206.2670157068063,184.0 L 207.0,183.2670157068063 L 207.2,183.0 L 207.4015748031496,182.0 L 208.0,181.4015748031496 L 208.2,181.0 L 208.2670157068063,180.0 L 208.4015748031496,179.0 L 208.796875,178.0 L 209.0,177.796875 L 209.2,177.0 L 209.4015748031496,176.0 L 210.0,175.4015748031496 L 210.2,175.0 L 210.2670157068063,174.0 L 210.796875,173.0 L 211.0,172.796875 L 211.2670157068063,172.0 L 211.4015748031496,171.0 L 212.0,170.4015748031496 L 212.2,170.0 L 212.4015748031496,169.0 L 213.0,168.4015748031496 L 213.2,168.0 L 213.4015748031496,167.0 L 214.0,166.4015748031496 L 214.2,166.0 L 214.4015748031496,165.0 L 215.0,164.4015748031496 L 215.2,164.0 L 215.4015748031496,163.0 L 216.0,162.4015748031496 L 216.2670157068063,162.0 L 217.0,161.2670157068063 L 217.2,161.0 L 217.4015748031496,160.0 L 218.0,159.4015748031496 L 218.2670157068063,159.0 L 218.4015748031496,158.0 L 219.0,157.4015748031496 L 219.2,157.0 L 219.796875,156.0 L 220.0,155.796875 L 220.2670157068063,155.0 L 221.0,154.2670157068063 L 221.2,154.0 L 221.796875,153.0 L 222.0,152.796875 L 222.2670157068063,152.0 L 222.4015748031496,151.0 L 223.0,150.4015748031496 L 223.2,150.0 L 223.2,149.0 L 223.4015748031496,148.0 L 223.796875,147.0 L 224.0,146.796875 L 224.2670157068063,146.0 L 224.4015748031496,145.0 L 225.0,144.4015748031496 L 225.2670157068063,144.0 L 225.4015748031496,143.0 L 226.0,142.4015748031496 L 226.2,142.0 L 226.2,141.0 L 226.2670157068063,140.0 L 226.796875,139.0 L 227.0,138.796875 L 227.796875,138.0 L 228.0,137.796875 L 228.2670157068063,137.0 L 229.0,136.2670157068063 L 229.2670157068063,136.0 L 229.796875,135.0 L 230.0,134.796875 L 230.2670157068063,134.0 L 230.4015748031496,133.0 L 231.0,132.4015748031496 L 231.2670157068063,132.0 L 231.796875,131.0 L 232.0,130.796875 L 232.4015748031496,130.0 L 233.0,129.4015748031496 L 233.2,129.0 L 233.4015748031496,128.0 L 233.4015748031496,127.0 L 234.0,126.4015748031496 L 234.2,126.0 L 234.2,125.0 L 234.2670157068063,124.0 L 234.4015748031496,123.0 L 235.0,122.4015748031496 L 235.2,122.0 L 235.2670157068063,121.0 L 235.4015748031496,120.0 L 236.0,119.4015748031496 L 236.2,119.0 L 236.2,118.0 L 236.2,117.0 L 236.4015748031496,116.0 L 236.4015748031496,115.0 L 237.0,114.4015748031496 L 237.2,114.0 L 237.4015748031496,113.0 L 238.0,112.4015748031496 L 238.2,112.0 L 238.4015748031496,111.0 L 239.0,110.4015748031496 L 239.2,110.0 L 239.4015748031496,109.0 L 239.796875,108.0 L 240.0,107.796875 L 240.2,107.0 L 240.4015748031496,106.0 L 241.0,105.4015748031496 L 241.2670157068063,105.0 L 241.796875,104.0 L 242.0,103.796875 L 242.2670157068063,103.0 L 242.796875,102.0 L 243.0,101.796875 L 243.2670157068063,101.0 L 243.796875,100.0 L 244.0,99.796875 L 244.2,99.0 L 244.2670157068063,98.0 L 244.4015748031496,97.0 L 245.0,96.4015748031496 L 245.2,96.0 L 245.4015748031496,95.0 L 246.0,94.4015748031496 L 246.2,94.0 L 246.4015748031496,93.0 L 246.796875,92.0 L 247.0,91.796875 L 247.2670157068063,91.0 L 247.4015748031496,90.0 L 247.796875,89.0 L 248.0,88.796875 L 248.2670157068063,88.0 L 248.796875,87.0 L 249.0,86.796875 L 249.2670157068063,86.0 L 249.796875,85.0 L 250.0,84.796875 L 250.2670157068063,84.0 L 250.796875,83.0 L 251.0,82.796875 L 251.4015748031496,82.0 L 252.0,81.4015748031496 L 252.2,81.0 L 252.4015748031496,80.0 L 253.0,79.4015748031496 L 253.2,79.0 L 253.4015748031496,78.0 L 254.0,77.4015748031496 L 254.2,77.0 L 254.4015748031496,76.0 L 254.796875,75.0 L 255.0,74.796875 L 255.2670157068063,74.0 L 255.796875,73.0 L 256.0,72.796875 L 256.26701570680626,72.0 L 256.796875,71.0 L 257.0,70.796875 L 257.796875,70.0 L 258.0,69.796875 L 258.40157480314963,69.0 L 259.0,68.4015748031496 L 259.2,68.0 L 259.40157480314963,67.0 L 260.0,66.4015748031496 L 260.2,66.0 L 260.40157480314963,65.0 L 261.0,64.4015748031496 L 261.26701570680626,64.0 L 262.0,63.26701570680628 L 262.40157480314963,63.0 L 263.0,62.40157480314961 L 264.0,62.2 L 264.40157480314963,62.0 L 265.0,61.40157480314961 L 266.0,61.2 L 266.26701570680626,61.0 L 267.0,60.26701570680628 L 267.796875,60.0 L 268.0,59.796875 L 268.796875,59.0 L 269.0,58.796875 L 269.796875,58.0 L 270.0,57.796875 L 270.796875,57.0 L 271.0,56.796875 L 271.796875,56.0 L 272.0,55.796875 L 272.796875,55.0 L 273.0,54.796875 L 273.796875,54.0 L 274.0,53.796875 L 274.796875,53.0 L 275.0,52.796875 L 275.796875,52.0 L 276.0,51.796875 L 276.796875,51.0 L 277.0,50.796875 L 277.40157480314963,50.0 L 278.0,49.40157480314961 L 278.26701570680626,49.0 L 279.0,48.26701570680628 L 279.2,48.0 L 279.796875,47.0 L 280.0,46.796875 L 280.26701570680626,46.0 L 280.796875,45.0 L 281.0,44.796875 L 281.2,44.0 L 281.40157480314963,43.0 L 282.0,42.40157480314961 L 282.26701570680626,42.0 L 282.796875,41.0 L 283.0,40.796875 L 283.796875,40.0 L 284.0,39.796875 L 284.796875,39.0 L 285.0,38.796875 L 285.796875,38.0 L 286.0,37.796875 L 287.0,37.2 L 287.26701570680626,37.0 L 288.0,36.26701570680628 L 288.26701570680626,36.0 L 289.0,35.26701570680628 L 289.26701570680626,35.0 L 290.0,34.26701570680628 L 290.26701570680626,34.0 L 291.0,33.26701570680628 L 291.26701570680626,33.0 L 292.0,32.26701570680628 L 292.26701570680626,32.0 L 293.0,31.267015706806284 L 293.2,31.0 L 293.796875,30.0 L 294.0,29.796875 L 294.796875,29.0 L 295.0,28.796875 L 295.40157480314963,28.0 L 296.0,27.401574803149607 L 296.26701570680626,27.0 L 297.0,26.267015706806284 L 297.26701570680626,26.0 L 298.0,25.267015706806284 L 298.26701570680626,25.0 L 299.0,24.267015706806284 L 299.26701570680626,24.0 L 300.0,23.267015706806284 L 300.2,23.0 L 300.796875,22.0 L 301.0,21.796875 L 301.796875,21.0 L 302.0,20.796875 L 303.0,20.2 L 303.26701570680626,20.0 L 304.0,19.267015706806284 L 304.796875,19.0 L 305.0,18.796875 L 305.796875,18.0 L 306.0,17.796875 L 306.796875,17.0 L 307.0,16.796875 L 307.26701570680626,16.0 L 308.0,15.267015706806284 L 308.2,15.0 L 308.40157480314963,14.0 L 309.0,13.401574803149606 L 309.2,13.0 L 309.796875,12.0 L 310.0,11.796875 L 310.796875,11.0 L 311.0,10.796875 L 312.0,10.267015706806284 L 312.796875,10.0 L 313.0,9.796875 L 314.0,9.2 L 314.796875,9.0 L 315.0,8.796875 L 316.0,8.2 L 316.40157480314963,8.0 L 317.0,7.4015748031496065 L 318.0,7.2 L 318.40157480314963,7.0 L 319.0,6.4015748031496065 L 320.0,6.267015706806283 L 321.0,6.2 L 321.40157480314963,6.0 L 322.0,5.4015748031496065 L 323.0,5.267015706806283 L 324.0,5.2 L 324.40157480314963,5.0 L 325.0,4.4015748031496065 L 326.0,4.4015748031496065 L 327.0,4.4015748031496065 L 328.0,4.4015748031496065 L 329.0,4.267015706806283 L 330.0,4.2 L 330.26701570680626,4.0 L 331.0,3.2670157068062826 L 331.40157480314963,3.0 L 332.0,2.401574803149606 L 333.0,2.2 L 334.0,2.2 L 335.0,2.2 L 336.0,2.2670157068062826 L 337.0,2.796875 L 337.203125,3.0 L 338.0,3.401574803149606 L 338.59842519685037,4.0 L 339.0,4.267015706806283 L 339.73298429319374,5.0 L 340.0,5.796875 L 340.203125,6.0 L 340.73298429319374,7.0 L 341.0,7.796875 L 341.203125,8.0 L 342.0,8.796875 L 342.203125,9.0 L 343.0,9.2 L 344.0,9.267015706806284 L 344.73298429319374,10.0 L 345.0,10.2 L 346.0,10.796875 L 346.203125,11.0 L 347.0,11.796875 L 347.203125,12.0 L 347.73298429319374,13.0 L 348.0,13.401574803149606 L 349.0,13.401574803149606 L 350.0,13.401574803149606 L 351.0,13.401574803149606 L 352.0,13.401574803149606 L 352.59842519685037,14.0 L 353.0,14.2 L 354.0,14.796875 L 354.203125,15.0 L 354.8,16.0 L 355.0,16.796875 L 355.203125,17.0 L 355.59842519685037,18.0 L 355.59842519685037,19.0 L 355.59842519685037,20.0 L 355.59842519685037,21.0 L 355.8,22.0 L 355.8,23.0 L 355.59842519685037,24.0 L 355.59842519685037,25.0 L 355.203125,26.0 L 355.0,26.203125 L 354.8,27.0 L 354.59842519685037,28.0 L 354.59842519685037,29.0 L 354.59842519685037,30.0 L 354.59842519685037,31.0 L 354.0,31.598425196850393 L 353.8,32.0 L 353.8,33.0 L 354.0,33.796875 L 354.203125,34.0 L 354.59842519685037,35.0 L 355.0,35.796875 L 355.203125,36.0 L 355.59842519685037,37.0 L 355.73298429319374,38.0 L 355.8,39.0 L 355.8,40.0 L 355.8,41.0 L 355.73298429319374,42.0 L 355.59842519685037,43.0 L 355.59842519685037,44.0 L 355.59842519685037,45.0 L 355.59842519685037,46.0 L 355.0,46.59842519685039 L 354.8,47.0 L 354.8,48.0 L 354.8,49.0 L 354.8,50.0 L 354.8,51.0 L 354.8,52.0 L 354.8,53.0 L 354.8,54.0 L 354.8,55.0 L 355.0,55.40157480314961 L 355.59842519685037,56.0 L 355.59842519685037,57.0 L 355.59842519685037,58.0 L 355.59842519685037,59.0 L 355.59842519685037,60.0 L 355.59842519685037,61.0 L 355.59842519685037,62.0 L 355.8,63.0 L 355.8,64.0 L 355.8,65.0 L 355.8,66.0 L 355.8,67.0 L 355.8,68.0 L 355.59842519685037,69.0 L 355.8,70.0 L 355.8,71.0 L 356.0,71.4015748031496 L 356.59842519685037,72.0 L 356.59842519685037,73.0 L 356.59842519685037,74.0 L 356.59842519685037,75.0 L 356.59842519685037,76.0 L 356.59842519685037,77.0 L 356.73298429319374,78.0 L 356.8,79.0 L 356.8,80.0 L 356.8,81.0 L 356.8,82.0 L 356.59842519685037,83.0 L 356.59842519685037,84.0 L 356.59842519685037,85.0 L 356.59842519685037,86.0 L 356.73298429319374,87.0 L 356.8,88.0 L 357.0,88.796875 L 357.203125,89.0 L 357.73298429319374,90.0 L 358.0,90.2 L 359.0,90.796875" stroke="black" fill="none"/>
<path d="M 359.0,192.5984251968504 L 358.40157480314963,192.0 L 358.40157480314963,191.0 L 358.40157480314963,190.0 L 358.40157480314963,189.0 L 358.40157480314963,188.0 L 358.40157480314963,187.0 L 358.40157480314963,186.0 L 358.40157480314963,185.0 L 358.40157480314963,184.0 L 358.40157480314963,183.0 L 358.0,182.203125 L 357.796875,182.0 L 357.40157480314963,181.0 L 357.40157480314963,180.0 L 357.0,179.7329842931937 L 356.26701570680626,179.0 L 356.2,178.0 L 356.2,177.0 L 356.2,176.0 L 357.0,175.2 L 357.26701570680626,175.0 L 357.40157480314963,174.0 L 358.0,173.4015748031496 L 358.40157480314963,173.0 L 358.40157480314963,172.0 L 358.40157480314963,171.0 L 358.0,170.5984251968504 L 357.40157480314963,170.0 L 357.26701570680626,169.0 L 357.0,168.7329842931937 L 356.26701570680626,168.0 L 356.2,167.0 L 356.2,166.0 L 356.2,165.0 L 356.2,164.0 L 356.2,163.0 L 356.0,162.203125 L 355.796875,162.0 L 356.0,161.796875 L 356.2,161.0 L 356.40157480314963,160.0 L 356.2,159.0 L 356.0,158.203125 L 355.796875,158.0 L 356.0,157.796875 L 356.26701570680626,157.0 L 356.40157480314963,156.0 L 356.796875,155.0 L 356.796875,154.0 L 356.26701570680626,153.0 L 356.0,152.203125 L 355.796875,152.0 L 355.40157480314963,151.0 L 355.40157480314963,150.0 L 355.40157480314963,149.0 L 355.40157480314963,148.0 L 355.40157480314963,147.0 L 355.40157480314963,146.0 L 355.40157480314963,145.0 L 355.40157480314963,144.0 L 356.0,143.4015748031496 L 356.2,143.0 L 356.26701570680626,142.0 L 356.26701570680626,141.0 L 356.2,140.0 L 356.2,139.0 L 356.0,138.5984251968504 L 355.40157480314963,138.0 L 355.40157480314963,137.0 L 355.40157480314963,136.0 L 355.40157480314963,135.0 L 355.40157480314963,134.0 L 355.40157480314963,133.0 L 355.40157480314963,132.0 L 356.0,131.4015748031496 L 356.26701570680626,131.0 L 356.40157480314963,130.0 L 356.796875,129.0 L 357.0,128.796875 L 357.2,128.0 L 357.2,127.0 L 357.40157480314963,126.0 L 357.40157480314963,125.0 L 357.40157480314963,124.0 L 357.40157480314963,123.0 L 357.40157480314963,122.0 L 357.40157480314963,121.0 L 357.40157480314963,120.0 L 357.40157480314963,119.0 L 357.40157480314963,118.0 L 357.2,117.0 L 357.2,116.0 L 357.0,115.203125 L 356.796875,115.0 L 357.0,114.796875 L 357.2,114.0 L 357.2,113.0 L 357.2,112.0 L 357.2,111.0 L 357.2,110.0 L 357.40157480314963,109.0 L 357.40157480314963,108.0 L 357.40157480314963,107.0 L 357.2,106.0 L 357.2,105.0 L 357.2,104.0 L 357.2,103.0 L 357.2,102.0 L 357.2,101.0 L 357.40157480314963,100.0 L 357.40157480314963,99.0 L 357.40157480314963,98.0 L 357.40157480314963,97.0 L 357.40157480314963,96.0 L 357.40157480314963,95.0 L 357.40157480314963,94.0 L 357.40157480314963,93.0 L 357.26701570680626,92.0 L 357.0,91.8 L 356.0,91.203125 L 355.796875,91.0 L 355.26701570680626,90.0 L 355.2,89.0 L 355.0,88.203125 L 354.796875,88.0 L 354.40157480314963,87.0 L 354.40157480314963,86.0 L 354.40157480314963,85.0 L 354.40157480314963,84.0 L 354.40157480314963,83.0 L 354.40157480314963,82.0 L 355.0,81.4015748031496 L 355.2,81.0 L 355.2,80.0 L 355.0,79.203125 L 354.796875,79.0 L 354.40157480314963,78.0 L 354.40157480314963,77.0 L 354.40157480314963,76.0 L 354.40157480314963,75.0 L 354.40157480314963,74.0 L 354.40157480314963,73.0 L 354.2,72.0 L 354.2,71.0 L 354.0,70.5984251968504 L 353.40157480314963,70.0 L 353.40157480314963,69.0 L 353.40157480314963,68.0 L 354.0,67.4015748031496 L 354.2,67.0 L 354.2,66.0 L 354.2,65.0 L 354.2,64.0 L 354.0,63.59842519685039 L 353.40157480314963,63.0 L 353.40157480314963,62.0 L 353.40157480314963,61.0 L 353.40157480314963,60.0 L 353.40157480314963,59.0 L 353.40157480314963,58.0 L 353.40157480314963,57.0 L 353.2,56.0 L 353.2,55.0 L 353.2,54.0 L 353.2,53.0 L 353.2,52.0 L 353.2,51.0 L 353.2,50.0 L 353.2,49.0 L 353.2,48.0 L 353.2,47.0 L 353.2,46.0 L 353.40157480314963,45.0 L 353.2,44.0 L 353.2,43.0 L 353.40157480314963,42.0 L 353.40157480314963,41.0 L 353.40157480314963,40.0 L 353.40157480314963,39.0 L 353.40157480314963,38.0 L 353.26701570680626,37.0 L 353.0,36.59842519685039 L 352.40157480314963,36.0 L 352.26701570680626,35.0 L 352.2,34.0 L 352.2,33.0 L 352.2,32.0 L 352.2,31.0 L 352.2,30.0 L 352.2,29.0 L 352.40157480314963,28.0 L 352.40157480314963,27.0 L 353.0,26.401574803149607 L 353.2,26.0 L 353.26701570680626,25.0 L 353.40157480314963,24.0 L 353.40157480314963,23.0 L 353.40157480314963,22.0 L 353.2,21.0 L 353.2,20.0 L 353.26701570680626,19.0 L 353.26701570680626,18.0 L 353.2,17.0 L 353.0,16.732984293193716 L 352.26701570680626,16.0 L 352.0,15.8 L 351.0,15.598425196850394 L 350.0,15.598425196850394 L 349.0,15.598425196850394 L 348.0,15.598425196850394 L 347.0,15.203125 L 346.796875,15.0 L 346.0,14.203125 L 345.796875,14.0 L 345.26701570680626,13.0 L 345.0,12.598425196850394 L 344.40157480314963,12.0 L 344.0,11.8 L 343.0,11.203125 L 342.796875,11.0 L 342.0,10.8 L 341.0,10.732984293193716 L 340.26701570680626,10.0 L 340.0,9.732984293193716 L 339.26701570680626,9.0 L 339.0,8.203125 L 338.796875,8.0 L 338.26701570680626,7.0 L 338.2,6.0 L 338.0,5.8 L 337.0,5.5984251968503935 L 336.40157480314963,5.0 L 336.0,4.732984293193717 L 335.0,4.203125 L 334.796875,4.0 L 334.0,3.8 L 333.59842519685037,4.0 L 333.0,4.5984251968503935 L 332.203125,5.0 L 332.0,5.203125 L 331.0,5.8 L 330.203125,6.0 L 330.0,6.203125 L 329.0,6.5984251968503935 L 328.0,6.5984251968503935 L 327.0,6.5984251968503935 L 326.0,6.5984251968503935 L 325.0,6.8 L 324.203125,7.0 L 324.0,7.203125 L 323.0,7.5984251968503935 L 322.0,7.8 L 321.203125,8.0 L 321.0,8.203125 L 320.0,8.598425196850394 L 319.0,8.8 L 318.59842519685037,9.0 L 318.0,9.598425196850394 L 317.0,9.8 L 316.73298429319374,10.0 L 316.0,10.732984293193716 L 315.0,10.8 L 314.73298429319374,11.0 L 314.0,11.732984293193716 L 313.203125,12.0 L 313.0,12.203125 L 312.0,12.732984293193716 L 311.73298429319374,13.0 L 311.0,13.732984293193716 L 310.8,14.0 L 310.59842519685037,15.0 L 310.0,15.598425196850394 L 309.8,16.0 L 309.203125,17.0 L 309.0,17.203125 L 308.73298429319374,18.0 L 308.0,18.732984293193716 L 307.73298429319374,19.0 L 307.0,19.732984293193716 L 306.73298429319374,20.0 L 306.0,20.732984293193716 L 305.203125,21.0 L 305.0,21.203125 L 304.0,21.8 L 303.73298429319374,22.0 L 303.0,22.732984293193716 L 302.73298429319374,23.0 L 302.0,23.732984293193716 L 301.8,24.0 L 301.203125,25.0 L 301.0,25.203125 L 300.203125,26.0 L 300.0,26.203125 L 299.203125,27.0 L 299.0,27.203125 L 298.203125,28.0 L 298.0,28.203125 L 297.59842519685037,29.0 L 297.0,29.598425196850393 L 296.73298429319374,30.0 L 296.0,30.732984293193716 L 295.73298429319374,31.0 L 295.0,31.732984293193716 L 294.8,32.0 L 294.203125,33.0 L 294.0,33.203125 L 293.203125,34.0 L 293.0,34.203125 L 292.203125,35.0 L 292.0,35.203125 L 291.203125,36.0 L 291.0,36.203125 L 290.203125,37.0 L 290.0,37.203125 L 289.203125,38.0 L 289.0,38.203125 L 288.0,38.8 L 287.73298429319374,39.0 L 287.0,39.73298429319372 L 286.73298429319374,40.0 L 286.0,40.73298429319372 L 285.59842519685037,41.0 L 285.0,41.59842519685039 L 284.73298429319374,42.0 L 284.203125,43.0 L 284.0,43.203125 L 283.59842519685037,44.0 L 283.0,44.59842519685039 L 282.8,45.0 L 282.73298429319374,46.0 L 282.203125,47.0 L 282.0,47.203125 L 281.73298429319374,48.0 L 281.0,48.73298429319372 L 280.8,49.0 L 280.203125,50.0 L 280.0,50.203125 L 279.59842519685037,51.0 L 279.0,51.59842519685039 L 278.73298429319374,52.0 L 278.0,52.73298429319372 L 277.73298429319374,53.0 L 277.0,53.73298429319372 L 276.73298429319374,54.0 L 276.0,54.73298429319372 L 275.73298429319374,55.0 L 275.0,55.73298429319372 L 274.73298429319374,56.0 L 274.0,56.73298429319372 L 273.73298429319374,57.0 L 273.0,57.73298429319372 L 272.73298429319374,58.0 L 272.0,58.73298429319372 L 271.73298429319374,59.0 L 271.0,59.73298429319372 L 270.73298429319374,60.0 L 270.0,60.73298429319372 L 269.73298429319374,61.0 L 269.0,61.73298429319372 L 268.203125,62.0 L 268.0,62.203125 L 267.0,62.8 L 266.59842519685037,63.0 L 266.0,63.59842519685039 L 265.0,63.8 L 264.59842519685037,64.0 L 264.0,64.5984251968504 L 263.203125,65.0 L 263.0,65.203125 L 262.59842519685037,66.0 L 262.0,66.5984251968504 L 261.8,67.0 L 261.59842519685037,68.0 L 261.0,68.5984251968504 L 260.8,69.0 L 260.59842519685037,70.0 L 260.0,70.5984251968504 L 259.73298429319374,71.0 L 259.0,71.73298429319372 L 258.73298429319374,72.0 L 258.203125,73.0 L 258.0,73.203125 L 257.73298429319374,74.0 L 257.203125,75.0 L 257.0,75.203125 L 256.73298429319374,76.0 L 256.59842519685037,77.0 L 256.0,77.5984251968504 L 255.8,78.0 L 255.5984251968504,79.0 L 255.0,79.5984251968504 L 254.8,80.0 L 254.5984251968504,81.0 L 254.0,81.5984251968504 L 253.8,82.0 L 253.5984251968504,83.0 L 253.0,83.5984251968504 L 252.7329842931937,84.0 L 252.203125,85.0 L 252.0,85.203125 L 251.7329842931937,86.0 L 251.203125,87.0 L 251.0,87.203125 L 250.7329842931937,88.0 L 250.203125,89.0 L 250.0,89.203125 L 249.7329842931937,90.0 L 249.5984251968504,91.0 L 249.203125,92.0 L 249.0,92.203125 L 248.7329842931937,93.0 L 248.5984251968504,94.0 L 248.0,94.5984251968504 L 247.8,95.0 L 247.5984251968504,96.0 L 247.0,96.5984251968504 L 246.8,97.0 L 246.5984251968504,98.0 L 246.203125,99.0 L 246.0,99.203125 L 245.8,100.0 L 245.7329842931937,101.0 L 245.203125,102.0 L 245.0,102.203125 L 244.7329842931937,103.0 L 244.203125,104.0 L 244.0,104.203125 L 243.7329842931937,105.0 L 243.203125,106.0 L 243.0,106.203125 L 242.5984251968504,107.0 L 242.0,107.5984251968504 L 241.8,108.0 L 241.7329842931937,109.0 L 241.5984251968504,110.0 L 241.0,110.5984251968504 L 240.8,111.0 L 240.5984251968504,112.0 L 240.0,112.5984251968504 L 239.8,113.0 L 239.5984251968504,114.0 L 239.0,114.5984251968504 L 238.8,115.0 L 238.5984251968504,116.0 L 238.5984251968504,117.0 L 238.0,117.5984251968504 L 237.8,118.0 L 237.8,119.0 L 237.8,120.0 L 237.5984251968504,121.0 L 237.203125,122.0 L 237.0,122.203125 L 236.8,123.0 L 236.5984251968504,124.0 L 236.203125,125.0 L 236.0,125.203125 L 235.8,126.0 L 235.8,127.0 L 235.5984251968504,128.0 L 235.5984251968504,129.0 L 235.0,129.5984251968504 L 234.8,130.0 L 234.5984251968504,131.0 L 234.0,131.5984251968504 L 233.7329842931937,132.0 L 233.203125,133.0 L 233.0,133.203125 L 232.5984251968504,134.0 L 232.203125,135.0 L 232.0,135.203125 L 231.7329842931937,136.0 L 231.203125,137.0 L 231.0,137.203125 L 230.203125,138.0 L 230.0,138.203125 L 229.7329842931937,139.0 L 229.0,139.7329842931937 L 228.7329842931937,140.0 L 228.203125,141.0 L 228.0,141.203125 L 227.8,142.0 L 227.8,143.0 L 227.5984251968504,144.0 L 227.203125,145.0 L 227.0,145.203125 L 226.5984251968504,146.0 L 226.203125,147.0 L 226.0,147.203125 L 225.7329842931937,148.0 L 225.5984251968504,149.0 L 225.0,149.5984251968504 L 224.8,150.0 L 224.8,151.0 L 224.5984251968504,152.0 L 224.203125,153.0 L 224.0,153.203125 L 223.7329842931937,154.0 L 223.0,154.7329842931937 L 222.8,155.0 L 222.203125,156.0 L 222.0,156.203125 L 221.7329842931937,157.0 L 221.0,157.7329842931937 L 220.8,158.0 L 220.5984251968504,159.0 L 220.203125,160.0 L 220.0,160.203125 L 219.5984251968504,161.0 L 219.0,161.5984251968504 L 218.8,162.0 L 218.203125,163.0 L 218.0,163.203125 L 217.5984251968504,164.0 L 217.0,164.5984251968504 L 216.8,165.0 L 216.5984251968504,166.0 L 216.0,166.5984251968504 L 215.8,167.0 L 215.5984251968504,168.0 L 215.0,168.5984251968504 L 214.8,169.0 L 214.5984251968504,170.0 L 214.0,170.5984251968504 L 213.8,171.0 L 213.5984251968504,172.0 L 213.203125,173.0 L 213.0,173.203125 L 212.7329842931937,174.0 L 212.203125,175.0 L 212.0,175.203125 L 211.8,176.0 L 211.5984251968504,177.0 L 211.0,177.5984251968504 L 210.8,178.0 L 210.7329842931937,179.0 L 210.5984251968504,180.0 L 210.203125,181.0 L 210.0,181.203125 L 209.8,182.0 L 209.5984251968504,183.0 L 209.0,183.5984251968504 L 208.8,184.0 L 208.203125,185.0 L 208.0,185.203125 L 207.7329842931937,186.0 L 207.0,186.7329842931937 L 206.8,187.0 L 206.7329842931937,188.0 L 206.5984251968504,189.0 L 206.5984251968504,190.0 L 206.8,191.0 L 206.8,192.0 L 206.7329842931937,193.0 L 206.5984251968504,194.0 L 206.5984251968504,195.0 L 206.5984251968504,196.0 L 206.8,197.0 L 207.0,197.796875 L 207.203125,198.0 L 207.7329842931937,199.0 L 208.0,199.2670157068063 L 208.7329842931937,200.0 L 209.0,200.2670157068063 L 209.7329842931937,201.0 L 210.0,201.796875 L 210.203125,202.0 L 210.5984251968504,203.0 L 210.7329842931937,204.0 L 211.0,204.796875 L 211.203125,205.0 L 211.7329842931937,206.0 L 212.0,206.796875 L 212.203125,207.0 L 213.0,207.796875 L 213.203125,208.0 L 214.0,208.796875 L 214.203125,209.0 L 214.8,210.0 L 215.0,210.796875 L 215.203125,211.0 L 215.5984251968504,212.0 L 215.5984251968504,213.0 L 215.5984251968504,214.0 L 215.8,215.0 L 216.0,215.796875 L 216.203125,216.0 L 216.8,217.0 L 217.0,217.2670157068063 L 218.0,217.796875 L 218.203125,218.0 L 219.0,218.4015748031496 L 220.0,218.4015748031496 L 220.5984251968504,219.0 L 221.0,219.2 L 222.0,219.2 L 223.0,219.4015748031496 L 224.0,219.4015748031496 L 225.0,219.796875 L 225.203125,220.0 L 226.0,220.2670157068063 L 227.0,220.4015748031496 L 228.0,220.4015748031496 L 228.5984251968504,221.0 L 229.0,221.2 L 230.0,221.2 L 231.0,221.2 L 232.0,221.4015748031496 L 233.0,221.796875 L 233.203125,222.0 L 234.0,222.796875 L 234.203125,223.0 L 234.7329842931937,224.0 L 234.8,225.0 L 235.0,225.4015748031496 L 235.5984251968504,226.0 L 235.5984251968504,227.0 L 235.8,228.0 L 235.8,229.0 L 235.8,230.0 L 235.8,231.0 L 235.8,232.0 L 235.8,233.0 L 235.8,234.0 L 235.203125,235.0 L 235.0,235.203125 L 234.0,235.8 L 233.5984251968504,236.0 L 233.0,236.5984251968504 L 232.0,236.8 L 231.203125,237.0 L 231.0,237.203125 L 230.0,237.5984251968504 L 229.0,237.8 L 228.203125,238.0 L 228.0,238.203125 L 227.0,238.5984251968504 L 226.0,238.8 L 225.5984251968504,239.0 L 225.0,239.5984251968504 L 224.0,239.7329842931937 L 223.203125,240.0 L 223.0,240.203125 L 222.0,240.7329842931937 L 221.203125,241.0 L 221.0,241.203125 L 220.0,241.8 L 219.5984251968504,242.0 L 219.0,242.5984251968504 L 218.203125,243.0 L 218.0,243.203125 L 217.203125,244.0 L 217.0,244.203125 L 216.0,244.8 L 215.7329842931937,245.0 L 215.0,245.7329842931937 L 214.7329842931937,246.0 L 214.0,246.7329842931937 L 213.203125,247.0 L 213.0,247.203125 L 212.0,247.8 L 211.7329842931937,248.0 L 211.0,248.7329842931937 L 210.5984251968504,249.0 L 210.0,249.5984251968504 L 209.203125,250.0 L 209.0,250.203125 L 208.0,250.7329842931937 L 207.7329842931937,251.0 L 207.0,251.7329842931937 L 206.203125,252.0 L 206.0,252.203125 L 205.203125,253.0 L 205.0,253.203125 L 204.7329842931937,254.0 L 204.0,254.7329842931937 L 203.8,255.0 L 203.203125,256.0 L 203.0,256.203125 L 202.7329842931937,257.0 L 202.203125,258.0 L 202.0,258.203125 L 201.7329842931937,259.0 L 201.203125,260.0 L 201.0,260.203125 L 200.8,261.0 L 200.7329842931937,262.0 L 200.203125,263.0 L 200.0,263.203125 L 199.8,264.0 L 199.7329842931937,265.0 L 199.203125,266.0 L 199.0,266.203125 L 198.7329842931937,267.0 L 198.203125,268.0 L 198.0,268.203125 L 197.8,269.0 L 197.8,270.0 L 197.7329842931937,271.0 L 197.5984251968504,272.0 L 197.5984251968504,273.0 L 197.5984251968504,274.0 L 197.0,274.59842519685037 L 196.8,275.0 L 196.7329842931937,276.0 L 196.5984251968504,277.0 L 196.7329842931937,278.0 L 196.8,279.0 L 196.8,280.0 L 196.8,281.0 L 196.8,282.0 L 196.8,283.0 L 196.8,284.0 L 196.8,285.0 L 196.5984251968504,286.0 L 196.5984251968504,287.0 L 196.5984251968504,288.0 L 196.5984251968504,289.0 L 196.0,289.59842519685037 L 195.8,290.0 L 195.8,291.0 L 195.7329842931937,292.0 L 195.5984251968504,293.0 L 195.0,293.59842519685037 L 194.8,294.0 L 194.7329842931937,295.0 L 194.5984251968504,296.0 L 194.0,296.59842519685037 L 193.8,297.0 L 193.5984251968504,298.0 L 193.5984251968504,299.0 L 193.0,299.59842519685037 L 192.8,300.0 L 192.8,301.0 L 192.8,302.0 L 192.5984251968504,303.0 L 192.5984251968504,304.0 L 192.5984251968504,305.0 L 192.7329842931937,306.0 L 192.8,307.0 L 192.8,308.0 L 192.8,309.0 L 193.0,309.40157480314963 L 193.5984251968504,310.0 L 193.5984251968504,311.0 L 193.8,312.0 L 194.0,312.40157480314963 L 194.5984251968504,313.0 L 194.7329842931937,314.0 L 195.0,314.40157480314963 L 195.5984251968504,315.0 L 195.8,316.0 L 196.0,316.26701570680626 L 196.7329842931937,317.0 L 197.0,317.26701570680626 L 197.7329842931937,318.0 L 198.0,318.796875 L 198.203125,319.0 L 198.8,320.0 L 199.0,320.26701570680626 L 199.7329842931937,321.0 L 200.0,321.26701570680626 L 200.7329842931937,322.0 L 201.0,322.796875 L 201.203125,323.0 L 202.0,323.796875 L 202.203125,324.0 L 202.8,325.0 L 203.0,325.26701570680626 L 203.7329842931937,326.0 L 204.0,326.796875 L 204.203125,327.0 L 204.7329842931937,328.0 L 205.0,328.26701570680626 L 205.7329842931937,329.0 L 206.0,329.26701570680626 L 206.7329842931937,330.0 L 207.0,330.2 L 208.0,330.796875 L 208.203125,331.0 L 209.0,331.40157480314963 L 209.5984251968504,332.0 L 210.0,332.26701570680626 L 211.0,332.796875 L 211.203125,333.0 L 212.0,333.26701570680626 L 213.0,333.796875 L 213.203125,334.0 L 214.0,334.40157480314963 L 214.5984251968504,335.0 L 215.0,335.26701570680626 L 216.0,335.796875 L 216.203125,336.0 L 217.0,336.40157480314963 L 218.0,336.796875 L 218.203125,337.0 L 219.0,337.26701570680626 L 220.0,337.40157480314963 L 221.0,337.796875 L 221.203125,338.0 L 222.0,338.2 L 223.0,338.26701570680626 L 224.0,338.40157480314963 L 225.0,338.40157480314963 L 225.5984251968504,339.0 L 226.0,339.2 L 227.0,339.2 L 228.0,339.26701570680626 L 229.0,339.40157480314963 L 230.0,339.40157480314963 L 231.0,339.40157480314963 L 231.5984251968504,340.0 L 232.0,340.2 L 233.0,340.2 L 234.0,340.2 L 235.0,340.2 L 236.0,340.2 L 237.0,340.2 L 238.0,340.2 L 239.0,340.2 L 240.0,340.2 L 241.0,340.2 L 241.4015748031496,340.0 L 242.0,339.40157480314963 L 243.0,339.40157480314963 L 244.0,339.40157480314963 L 245.0,339.40157480314963 L 246.0,339.40157480314963 L 247.0,339.2 L 248.0,339.2 L 249.0,339.2 L 249.4015748031496,339.0 L 250.0,338.40157480314963 L 251.0,338.40157480314963 L 252.0,338.40157480314963 L 253.0,338.40157480314963 L 254.0,338.26701570680626 L 255.0,338.2 L 256.0,338.2 L 256.796875,338.0 L 257.0,337.796875 L 258.0,337.40157480314963 L 259.0,337.40157480314963 L 260.0,337.40157480314963 L 261.0,337.40157480314963 L 262.0,337.2 L 263.0,337.2 L 264.0,337.2 L 264.40157480314963,337.0 L 265.0,336.40157480314963 L 266.0,336.40157480314963 L 267.0,336.40157480314963 L 268.0,336.796875 L 268.203125,337.0 L 269.0,337.2 L 270.0,337.2 L 271.0,337.40157480314963 L 272.0,337.26701570680626 L 273.0,337.2 L 274.0,337.2 L 275.0,337.2 L 275.796875,337.0 L 276.0,336.796875 L 277.0,336.40157480314963 L 278.0,336.40157480314963 L 279.0,336.40157480314963 L 280.0,336.40157480314963 L 281.0,336.26701570680626 L 282.0,336.2 L 283.0,336.2 L 284.0,336.2 L 284.796875,336.0 L 285.0,335.796875 L 286.0,335.40157480314963 L 287.0,335.40157480314963 L 288.0,335.40157480314963 L 289.0,335.40157480314963 L 290.0,335.40157480314963 L 291.0,335.26701570680626 L 292.0,335.2 L 293.0,335.2 L 294.0,335.2 L 294.40157480314963,335.0 L 295.0,334.40157480314963 L 296.0,334.40157480314963 L 297.0,334.40157480314963 L 298.0,334.26701570680626 L 299.0,334.2 L 299.40157480314963,334.0 L 300.0,333.40157480314963 L 301.0,333.40157480314963 L 302.0,333.40157480314963 L 303.0,333.2 L 303.40157480314963,333.0 L 304.0,332.40157480314963 L 305.0,332.26701570680626 L 305.796875,332.0 L 306.0,331.796875 L 307.0,331.40157480314963 L 308.0,331.26701570680626 L 308.796875,331.0 L 309.0,330.796875 L 310.0,330.40157480314963 L 311.0,330.26701570680626 L 312.0,330.2 L 313.0,330.2 L 314.0,330.2 L 315.0,330.26701570680626 L 315.73298429319374,331.0 L 316.0,331.26701570680626 L 316.73298429319374,332.0 L 317.0,332.40157480314963 L 317.59842519685037,333.0 L 317.8,334.0 L 317.8,335.0 L 317.8,336.0 L 317.8,337.0 L 317.8,338.0 L 317.8,339.0 L 317.8,340.0 L 317.8,341.0 L 318.0,341.40157480314963 L 318.59842519685037,342.0 L 318.73298429319374,343.0 L 318.8,344.0 L 318.8,345.0 L 319.0,345.796875 L 319.203125,346.0 L 319.59842519685037,347.0 L 319.59842519685037,348.0 L 319.8,349.0 L 319.8,350.0 L 320.0,350.26701570680626 L 320.73298429319374,351.0 L 320.8,352.0 L 320.8,353.0 L 320.8,354.0 L 320.8,355.0 L 321.0,355.40157480314963 L 321.59842519685037,356.0 L 321.73298429319374,357.0 L 321.8,358.0 L 322.0,358.40157480314963 L 322.59842519685037,359.0 L 322.73298429319374,360.0 L 322.8,361.0 L 322.8,362.0 L 323.0,362.40157480314963 L 323.59842519685037,363.0 L 323.59842519685037,364.0 L 323.8,365.0 L 323.8,366.0 L 323.8,367.0 L 324.0,367.796875 L 324.203125,368.0 L 324.59842519685037,369.0 L 324.73298429319374,370.0 L 324.8,371.0 L 325.0,371.40157480314963 L 325.59842519685037,372.0 L 325.8,373.0 L 326.0,373.26701570680626 L 326.73298429319374,374.0 L 327.0,374.26701570680626 L 328.0,374.40157480314963 L 329.0,374.40157480314963 L 330.0,374.2 L 331.0,374.2 L 331.40157480314963,374.0 L 332.0,373.40157480314963 L 333.0,373.40157480314963 L 334.0,373.40157480314963 L 335.0,373.26701570680626 L 336.0,373.2 L 337.0,373.2 L 338.0,373.2 L 339.0,373.2 L 340.0,373.2 L 340.796875,373.0 L 341.0,372.796875 L 342.0,372.40157480314963 L 343.0,372.26701570680626 L 343.796875,372.0 L 344.0,371.796875 L 345.0,371.40157480314963 L 346.0,371.40157480314963 L 347.0,371.40157480314963 L 348.0,371.40157480314963 L 349.0,371.40157480314963 L 349.59842519685037,372.0 L 350.0,372.26701570680626 L 350.73298429319374,373.0 L 351.0,373.796875 L 351.203125,374.0 L 351.8,375.0 L 352.0,375.796875 L 352.203125,376.0 L 352.59842519685037,377.0 L 352.8,378.0 L 353.0,378.796875 L 353.203125,379.0 L 353.73298429319374,380.0 L 353.8,381.0 L 354.0,381.40157480314963 L 355.0,381.796875 L 355.2,381.0 L 355.2,380.0 L 355.2,379.0 L 355.2,378.0 L 355.26701570680626,377.0 L 355.40157480314963,376.0 L 355.26701570680626,375.0 L 355.40157480314963,374.0 L 356.0,373.40157480314963 L 356.26701570680626,373.0 L 357.0,372.26701570680626 L 357.796875,372.0 L 358.0,371.796875 L 359.0,371.26701570680626" stroke="black" fill="none"/>
<path d="M 314.0,163.5984251968504 L 313.8,164.0 L 313.59842519685037,165.0 L 313.0,165.5984251968504 L 312.73298429319374,166.0 L 312.203125,167.0 L 312.0,167.203125 L 311.8,168.0 L 311.8,169.0 L 311.8,170.0 L 311.8,171.0 L 311.73298429319374,172.0 L 311.59842519685037,173.0 L 311.0,173.5984251968504 L 310.8,174.0 L 310.8,175.0 L 310.73298429319374,176.0 L 310.59842519685037,177.0 L 310.59842519685037,178.0 L 310.0,178.5984251968504 L 309.8,179.0 L 309.73298429319374,180.0 L 309.59842519685037,181.0 L 309.59842519685037,182.0 L 309.59842519685037,183.0 L 309.59842519685037,184.0 L 309.59842519685037,185.0 L 309.203125,186.0 L 309.0,186.203125 L 308.8,187.0 L 308.73298429319374,188.0 L 308.0,188.7329842931937 L 307.73298429319374,189.0 L 307.59842519685037,190.0 L 307.59842519685037,191.0 L 307.73298429319374,192.0 L 308.0,192.796875 L 308.203125,193.0 L 308.59842519685037,194.0 L 308.73298429319374,195.0 L 309.0,195.796875 L 309.203125,196.0 L 309.8,197.0 L 310.0,197.796875 L 310.203125,198.0 L 310.8,199.0 L 311.0,199.4015748031496 L 311.59842519685037,200.0 L 311.8,201.0 L 311.8,202.0 L 312.0,202.4015748031496 L 312.59842519685037,203.0 L 312.73298429319374,204.0 L 313.0,204.796875 L 313.203125,205.0 L 313.59842519685037,206.0 L 313.203125,207.0 L 313.0,207.203125 L 312.73298429319374,208.0 L 312.59842519685037,209.0 L 312.0,209.5984251968504 L 311.73298429319374,210.0 L 311.203125,211.0 L 311.0,211.203125 L 310.73298429319374,212.0 L 310.59842519685037,213.0 L 310.59842519685037,214.0 L 310.73298429319374,215.0 L 310.8,216.0 L 311.0,216.796875 L 311.203125,217.0 L 311.59842519685037,218.0 L 311.59842519685037,219.0 L 311.8,220.0 L 311.8,221.0 L 312.0,221.4015748031496 L 312.59842519685037,222.0 L 312.59842519685037,223.0 L 312.8,224.0 L 313.0,224.4015748031496 L 313.59842519685037,225.0 L 313.59842519685037,226.0 L 313.8,227.0 L 313.8,228.0 L 313.8,229.0 L 313.8,230.0 L 313.8,231.0 L 313.8,232.0 L 313.8,233.0 L 313.8,234.0 L 313.73298429319374,235.0 L 313.203125,236.0 L 313.0,236.203125 L 312.59842519685037,237.0 L 312.0,237.5984251968504 L 311.8,238.0 L 311.8,239.0 L 311.8,240.0 L 311.73298429319374,241.0 L 311.59842519685037,242.0 L 311.0,242.5984251968504 L 310.73298429319374,243.0 L 310.59842519685037,244.0 L 310.0,244.5984251968504 L 309.73298429319374,245.0 L 309.0,245.7329842931937 L 308.73298429319374,246.0 L 308.59842519685037,247.0 L 308.0,247.5984251968504 L 307.8,248.0 L 307.59842519685037,249.0 L 307.0,249.5984251968504 L 306.73298429319374,250.0 L 306.0,250.7329842931937 L 305.59842519685037,251.0 L 305.0,251.5984251968504 L 304.0,251.5984251968504 L 303.0,251.5984251968504 L 302.0,251.5984251968504 L 301.0,251.5984251968504 L 300.0,251.203125 L 299.796875,251.0 L 299.0,250.8 L 298.0,250.8 L 297.0,250.8 L 296.0,250.5984251968504 L 295.0,250.203125 L 294.796875,250.0 L 294.0,249.203125 L 293.796875,249.0 L 293.40157480314963,248.0 L 293.40157480314963,247.0 L 293.26701570680626,246.0 L 293.0,245.203125 L 292.796875,245.0 L 292.0,244.5984251968504 L 291.40157480314963,244.0 L 291.0,243.8 L 290.0,243.5984251968504 L 289.40157480314963,243.0 L 289.0,242.7329842931937 L 288.26701570680626,242.0 L 288.0,241.5984251968504 L 287.40157480314963,241.0 L 287.2,240.0 L 287.2,239.0 L 287.0,238.7329842931937 L 286.26701570680626,238.0 L 286.0,237.5984251968504 L 285.40157480314963,237.0 L 285.0,236.203125 L 284.796875,236.0 L 284.0,235.203125 L 283.796875,235.0 L 283.0,234.203125 L 282.796875,234.0 L 282.0,233.7329842931937 L 281.26701570680626,233.0 L 281.0,232.203125 L 280.796875,232.0 L 280.0,231.203125 L 279.796875,231.0 L 279.40157480314963,230.0 L 279.2,229.0 L 279.0,228.203125 L 278.796875,228.0 L 278.0,227.5984251968504 L 277.40157480314963,227.0 L 277.0,226.8 L 276.0,226.203125 L 275.796875,226.0 L 275.40157480314963,225.0 L 275.40157480314963,224.0 L 275.40157480314963,223.0 L 275.2,222.0 L 275.2,221.0 L 275.2,220.0 L 275.2,219.0 L 275.2,218.0 L 275.0,217.203125 L 274.796875,217.0 L 274.40157480314963,216.0 L 274.26701570680626,215.0 L 274.2,214.0 L 274.0,213.7329842931937 L 273.26701570680626,213.0 L 273.0,212.5984251968504 L 272.40157480314963,212.0 L 272.2,211.0 L 272.0,210.5984251968504 L 271.40157480314963,210.0 L 271.2,209.0 L 271.2,208.0 L 271.0,207.5984251968504 L 270.40157480314963,207.0 L 270.26701570680626,206.0 L 270.40157480314963,205.0 L 271.0,204.4015748031496 L 271.2,204.0 L 271.796875,203.0 L 272.0,202.796875 L 272.796875,202.0 L 273.0,201.796875 L 273.40157480314963,201.0 L 273.796875,200.0 L 274.0,199.796875 L 274.26701570680626,199.0 L 274.40157480314963,198.0 L 274.40157480314963,197.0 L 275.0,196.4015748031496 L 275.2,196.0 L 275.2,195.0 L 275.2,194.0 L 275.2,193.0 L 275.2,192.0 L 275.40157480314963,191.0 L 276.0,190.4015748031496 L 276.2,190.0 L 276.40157480314963,189.0 L 277.0,188.4015748031496 L 277.2,188.0 L 277.26701570680626,187.0 L 277.40157480314963,186.0 L 277.40157480314963,185.0 L 277.40157480314963,184.0 L 277.40157480314963,183.0 L 277.40157480314963,182.0 L 277.40157480314963,181.0 L 277.796875,180.0 L 278.0,179.796875 L 278.2,179.0 L 278.2,178.0 L 278.2,177.0 L 278.2,176.0 L 278.2,175.0 L 278.2,174.0 L 278.2,173.0 L 278.2,172.0 L 278.2,171.0 L 278.2,170.0 L 278.2,169.0 L 278.2,168.0 L 278.2,167.0 L 278.0,166.203125 L 277.796875,166.0 L 277.40157480314963,165.0 L 277.40157480314963,164.0 L 277.40157480314963,163.0 L 277.40157480314963,162.0 L 277.40157480314963,161.0 L 277.40157480314963,160.0 L 277.40157480314963,159.0 L 277.40157480314963,158.0 L 277.796875,157.0 L 278.0,156.796875 L 278.2,156.0 L 278.40157480314963,155.0 L 278.40157480314963,154.0 L 278.26701570680626,153.0 L 278.2,152.0 L 278.0,151.5984251968504 L 277.40157480314963,151.0 L 277.26701570680626,150.0 L 277.0,149.203125 L 276.796875,149.0 L 276.40157480314963,148.0 L 276.40157480314963,147.0 L 276.796875,146.0 L 277.0,145.796875 L 277.26701570680626,145.0 L 278.0,144.2670157068063 L 278.26701570680626,144.0 L 279.0,143.2670157068063 L 279.2,143.0 L 279.796875,142.0 L 280.0,141.796875 L 281.0,141.2 L 281.26701570680626,141.0 L 282.0,140.2670157068063 L 282.26701570680626,140.0 L 283.0,139.2670157068063 L 283.26701570680626,139.0 L 284.0,138.2670157068063 L 284.26701570680626,138.0 L 285.0,137.2670157068063 L 285.26701570680626,137.0 L 286.0,136.2670157068063 L 286.2,136.0 L 286.40157480314963,135.0 L 287.0,134.4015748031496 L 287.2,134.0 L 287.40157480314963,133.0 L 288.0,132.4015748031496 L 288.26701570680626,132.0 L 288.40157480314963,131.0 L 289.0,130.4015748031496 L 289.26701570680626,130.0 L 289.796875,129.0 L 290.0,128.796875 L 290.796875,128.0 L 291.0,127.796875 L 291.796875,127.0 L 292.0,126.796875 L 292.796875,126.0 L 293.0,125.796875 L 293.796875,125.0 L 294.0,124.796875 L 294.796875,124.0 L 295.0,123.796875 L 295.40157480314963,123.0 L 296.0,122.4015748031496 L 296.26701570680626,122.0 L 297.0,121.26701570680628 L 297.26701570680626,121.0 L 298.0,120.26701570680628 L 298.26701570680626,120.0 L 299.0,119.26701570680628 L 299.26701570680626,119.0 L 300.0,118.26701570680628 L 300.26701570680626,118.0 L 301.0,117.26701570680628 L 301.26701570680626,117.0 L 302.0,116.26701570680628 L 302.26701570680626,116.0 L 303.0,115.26701570680628 L 303.26701570680626,115.0 L 304.0,114.26701570680628 L 304.26701570680626,114.0 L 305.0,113.26701570680628 L 305.40157480314963,113.0 L 306.0,112.4015748031496 L 307.0,112.4015748031496 L 308.0,112.4015748031496 L 308.59842519685037,113.0 L 309.0,113.26701570680628 L 309.73298429319374,114.0 L 309.8,115.0 L 310.0,115.26701570680628 L 310.73298429319374,116.0 L 311.0,116.796875 L 311.203125,117.0 L 311.8,118.0 L 312.0,118.4015748031496 L 312.59842519685037,119.0 L 312.73298429319374,120.0 L 312.8,121.0 L 312.8,122.0 L 312.59842519685037,123.0 L 312.203125,124.0 L 312.0,124.203125 L 311.8,125.0 L 312.0,125.4015748031496 L 312.59842519685037,126.0 L 313.0,126.26701570680628 L 313.73298429319374,127.0 L 313.8,128.0 L 314.0,128.4015748031496 L 314.59842519685037,129.0 L 314.59842519685037,130.0 L 314.203125,131.0 L 314.0,131.203125 L 313.8,132.0 L 313.59842519685037,133.0 L 313.203125,134.0 L 313.0,134.203125 L 312.8,135.0 L 312.8,136.0 L 312.8,137.0 L 313.0,137.796875 L 313.203125,138.0 L 313.59842519685037,139.0 L 313.8,140.0 L 314.0,140.4015748031496 L 314.59842519685037,141.0 L 314.73298429319374,142.0 L 314.8,143.0 L 314.8,144.0 L 314.59842519685037,145.0 L 314.59842519685037,146.0 L 314.59842519685037,147.0 L 314.59842519685037,148.0 L 314.59842519685037,149.0 L 314.59842519685037,150.0 L 314.0,150.5984251968504 L 313.8,151.0 L 313.73298429319374,152.0 L 313.59842519685037,153.0 L 313.59842519685037,154.0 L 313.73298429319374,155.0 L 314.0,155.4015748031496 L 314.59842519685037,156.0 L 314.59842519685037,157.0 L 314.8,158.0 L 314.8,159.0 L 314.8,160.0 L 314.8,161.0 L 314.8,162.0 L 314.59842519685037,163.0 L 314.0,163.5984251968504" stroke="black" fill="none"/>
<path d="M 313.2,161.0 L 313.2,160.0 L 313.2,159.0 L 313.0,158.5984251968504 L 312.40157480314963,158.0 L 312.40157480314963,157.0 L 312.0,156.203125 L 311.796875,156.0 L 311.40157480314963,155.0 L 311.26701570680626,154.0 L 311.40157480314963,153.0 L 311.40157480314963,152.0 L 311.796875,151.0 L 312.0,150.796875 L 312.2,150.0 L 312.40157480314963,149.0 L 312.40157480314963,148.0 L 312.40157480314963,147.0 L 312.40157480314963,146.0 L 312.40157480314963,145.0 L 312.40157480314963,144.0 L 312.796875,143.0 L 312.40157480314963,142.0 L 312.2,141.0 L 312.0,140.5984251968504 L 311.40157480314963,140.0 L 311.26701570680626,139.0 L 311.2,138.0 L 311.2,137.0 L 311.2,136.0 L 311.2,135.0 L 311.2,134.0 L 311.26701570680626,133.0 L 311.40157480314963,132.0 L 312.0,131.4015748031496 L 312.2,131.0 L 312.26701570680626,130.0 L 312.2,129.0 L 312.0,128.203125 L 311.796875,128.0 L 311.0,127.203125 L 310.796875,127.0 L 310.2,126.0 L 310.2,125.0 L 310.2,124.0 L 310.26701570680626,123.0 L 310.40157480314963,122.0 L 310.796875,121.0 L 310.40157480314963,120.0 L 310.2,119.0 L 310.0,118.73298429319372 L 309.26701570680626,118.0 L 309.0,117.203125 L 308.796875,117.0 L 308.2,116.0 L 308.0,115.203125 L 307.796875,115.0 L 307.0,114.5984251968504 L 306.203125,115.0 L 306.0,115.203125 L 305.203125,116.0 L 305.0,116.203125 L 304.203125,117.0 L 304.0,117.203125 L 303.203125,118.0 L 303.0,118.203125 L 302.203125,119.0 L 302.0,119.203125 L 301.203125,120.0 L 301.0,120.203125 L 300.203125,121.0 L 300.0,121.203125 L 299.203125,122.0 L 299.0,122.203125 L 298.203125,123.0 L 298.0,123.203125 L 297.59842519685037,124.0 L 297.0,124.5984251968504 L 296.73298429319374,125.0 L 296.0,125.73298429319372 L 295.73298429319374,126.0 L 295.0,126.73298429319372 L 294.73298429319374,127.0 L 294.0,127.73298429319372 L 293.73298429319374,128.0 L 293.0,128.7329842931937 L 292.73298429319374,129.0 L 292.0,129.7329842931937 L 291.73298429319374,130.0 L 291.203125,131.0 L 291.0,131.203125 L 290.59842519685037,132.0 L 290.203125,133.0 L 290.0,133.203125 L 289.59842519685037,134.0 L 289.0,134.5984251968504 L 288.8,135.0 L 288.59842519685037,136.0 L 288.0,136.5984251968504 L 287.8,137.0 L 287.203125,138.0 L 287.0,138.203125 L 286.203125,139.0 L 286.0,139.203125 L 285.203125,140.0 L 285.0,140.203125 L 284.203125,141.0 L 284.0,141.203125 L 283.203125,142.0 L 283.0,142.203125 L 282.0,142.8 L 281.73298429319374,143.0 L 281.0,143.7329842931937 L 280.8,144.0 L 280.203125,145.0 L 280.0,145.203125 L 279.203125,146.0 L 279.0,146.203125 L 278.73298429319374,147.0 L 278.73298429319374,148.0 L 279.0,148.796875 L 279.203125,149.0 L 279.59842519685037,150.0 L 279.8,151.0 L 280.0,151.796875 L 280.203125,152.0 L 280.59842519685037,153.0 L 280.59842519685037,154.0 L 280.59842519685037,155.0 L 280.59842519685037,156.0 L 280.0,156.5984251968504 L 279.8,157.0 L 279.73298429319374,158.0 L 279.59842519685037,159.0 L 279.59842519685037,160.0 L 279.59842519685037,161.0 L 279.59842519685037,162.0 L 279.59842519685037,163.0 L 279.59842519685037,164.0 L 279.73298429319374,165.0 L 279.8,166.0 L 279.8,167.0 L 279.8,168.0 L 279.8,169.0 L 279.8,170.0 L 279.8,171.0 L 279.8,172.0 L 279.8,173.0 L 279.8,174.0 L 279.8,175.0 L 279.8,176.0 L 279.8,177.0 L 279.8,178.0 L 279.8,179.0 L 279.8,180.0 L 279.73298429319374,181.0 L 279.59842519685037,182.0 L 279.59842519685037,183.0 L 279.59842519685037,184.0 L 279.59842519685037,185.0 L 279.59842519685037,186.0 L 279.59842519685037,187.0 L 279.203125,188.0 L 279.0,188.203125 L 278.8,189.0 L 278.59842519685037,190.0 L 278.0,190.5984251968504 L 277.8,191.0 L 277.59842519685037,192.0 L 277.0,192.5984251968504 L 276.8,193.0 L 276.8,194.0 L 276.8,195.0 L 276.8,196.0 L 276.8,197.0 L 276.59842519685037,198.0 L 276.59842519685037,199.0 L 276.203125,200.0 L 276.0,200.203125 L 275.73298429319374,201.0 L 275.59842519685037,202.0 L 275.0,202.5984251968504 L 274.73298429319374,203.0 L 274.0,203.7329842931937 L 273.73298429319374,204.0 L 273.0,204.7329842931937 L 272.8,205.0 L 272.59842519685037,206.0 L 272.8,207.0 L 272.8,208.0 L 273.0,208.4015748031496 L 273.59842519685037,209.0 L 273.8,210.0 L 274.0,210.4015748031496 L 274.59842519685037,211.0 L 275.0,211.796875 L 275.203125,212.0 L 275.8,213.0 L 276.0,213.796875 L 276.203125,214.0 L 276.59842519685037,215.0 L 276.73298429319374,216.0 L 276.8,217.0 L 276.8,218.0 L 276.8,219.0 L 276.8,220.0 L 276.8,221.0 L 277.0,221.4015748031496 L 277.59842519685037,222.0 L 277.59842519685037,223.0 L 277.59842519685037,224.0 L 277.73298429319374,225.0 L 278.0,225.2 L 279.0,225.4015748031496 L 279.59842519685037,226.0 L 280.0,226.2670157068063 L 280.73298429319374,227.0 L 280.8,228.0 L 281.0,228.4015748031496 L 281.59842519685037,229.0 L 281.73298429319374,230.0 L 282.0,230.2670157068063 L 282.73298429319374,231.0 L 283.0,231.796875 L 283.203125,232.0 L 284.0,232.2670157068063 L 284.73298429319374,233.0 L 285.0,233.4015748031496 L 285.59842519685037,234.0 L 286.0,234.2670157068063 L 286.73298429319374,235.0 L 287.0,235.4015748031496 L 287.59842519685037,236.0 L 288.0,236.796875 L 288.203125,237.0 L 288.8,238.0 L 288.8,239.0 L 289.0,239.4015748031496 L 289.59842519685037,240.0 L 290.0,240.796875 L 290.203125,241.0 L 291.0,241.4015748031496 L 291.59842519685037,242.0 L 292.0,242.2 L 293.0,242.4015748031496 L 293.59842519685037,243.0 L 294.0,243.2670157068063 L 294.73298429319374,244.0 L 295.0,244.796875 L 295.203125,245.0 L 295.59842519685037,246.0 L 295.59842519685037,247.0 L 295.73298429319374,248.0 L 296.0,248.2670157068063 L 297.0,248.4015748031496 L 297.59842519685037,249.0 L 298.0,249.2 L 299.0,249.2 L 300.0,249.2 L 301.0,249.2670157068063 L 302.0,249.4015748031496 L 303.0,249.4015748031496 L 304.0,249.4015748031496 L 304.796875,249.0 L 305.0,248.796875 L 305.40157480314963,248.0 L 306.0,247.4015748031496 L 306.2,247.0 L 306.40157480314963,246.0 L 306.796875,245.0 L 307.0,244.796875 L 307.796875,244.0 L 308.0,243.796875 L 308.40157480314963,243.0 L 309.0,242.4015748031496 L 309.26701570680626,242.0 L 309.40157480314963,241.0 L 309.40157480314963,240.0 L 309.40157480314963,239.0 L 309.796875,238.0 L 310.0,237.796875 L 310.2,237.0 L 310.40157480314963,236.0 L 311.0,235.4015748031496 L 311.26701570680626,235.0 L 311.796875,234.0 L 312.0,233.796875 L 312.2,233.0 L 312.2,232.0 L 312.2,231.0 L 312.2,230.0 L 312.2,229.0 L 312.2,228.0 L 312.0,227.5984251968504 L 311.40157480314963,227.0 L 311.40157480314963,226.0 L 311.2,225.0 L 311.0,224.5984251968504 L 310.40157480314963,224.0 L 310.40157480314963,223.0 L 310.2,222.0 L 310.2,221.0 L 310.0,220.5984251968504 L 309.40157480314963,220.0 L 309.40157480314963,219.0 L 309.26701570680626,218.0 L 309.2,217.0 L 309.0,216.203125 L 308.796875,216.0 L 308.40157480314963,215.0 L 308.40157480314963,214.0 L 308.40157480314963,213.0 L 308.40157480314963,212.0 L 308.796875,211.0 L 309.0,210.796875 L 309.26701570680626,210.0 L 309.796875,209.0 L 310.0,208.796875 L 310.40157480314963,208.0 L 310.796875,207.0 L 311.0,206.796875 L 311.2,206.0 L 311.0,205.203125 L 310.796875,205.0 L 310.40157480314963,204.0 L 310.2,203.0 L 310.2,202.0 L 310.0,201.5984251968504 L 309.40157480314963,201.0 L 309.2,200.0 L 309.0,199.7329842931937 L 308.26701570680626,199.0 L 308.2,198.0 L 308.0,197.7329842931937 L 307.26701570680626,197.0 L 307.0,196.203125 L 306.796875,196.0 L 306.40157480314963,195.0 L 306.26701570680626,194.0 L 306.0,193.203125 L 305.796875,193.0 L 305.40157480314963,192.0 L 305.26701570680626,191.0 L 305.40157480314963,190.0 L 305.40157480314963,189.0 L 305.796875,188.0 L 306.0,187.796875 L 306.796875,187.0 L 307.0,186.796875 L 307.2,186.0 L 307.26701570680626,185.0 L 307.40157480314963,184.0 L 307.40157480314963,183.0 L 307.40157480314963,182.0 L 307.40157480314963,181.0 L 307.40157480314963,180.0 L 307.796875,179.0 L 308.0,178.796875 L 308.2,178.0 L 308.40157480314963,177.0 L 308.40157480314963,176.0 L 308.796875,175.0 L 309.0,174.796875 L 309.2,174.0 L 309.2,173.0 L 309.40157480314963,172.0 L 309.796875,171.0 L 310.0,170.796875 L 310.2,170.0 L 310.2,169.0 L 310.2,168.0 L 310.2,167.0 L 310.26701570680626,166.0 L 310.796875,165.0 L 311.0,164.796875 L 311.40157480314963,164.0 L 312.0,163.4015748031496 L 312.2,163.0 L 312.40157480314963,162.0 L 313.0,161.4015748031496 L 313.2,161.0" stroke="black" fill="none"/>
<path d="M 308.0,230.203125 L 307.8,231.0 L 307.59842519685037,232.0 L 307.0,232.5984251968504 L 306.73298429319374,233.0 L 306.203125,234.0 L 306.0,234.203125 L 305.203125,235.0 L 305.0,235.203125 L 304.59842519685037,236.0 L 304.0,236.5984251968504 L 303.59842519685037,237.0 L 303.0,237.5984251968504 L 302.0,237.5984251968504 L 301.0,237.5984251968504 L 300.0,237.5984251968504 L 299.40157480314963,237.0 L 299.0,236.7329842931937 L 298.26701570680626,236.0 L 298.0,235.7329842931937 L 297.0,235.203125 L 296.796875,235.0 L 296.0,234.8 L 295.0,234.8 L 294.203125,235.0 L 294.0,235.203125 L 293.796875,235.0 L 293.0,234.8 L 292.0,234.7329842931937 L 291.26701570680626,234.0 L 291.2,233.0 L 291.26701570680626,232.0 L 292.0,231.2670157068063 L 292.2,231.0 L 292.796875,230.0 L 293.0,229.796875 L 294.0,229.2 L 294.2,229.0 L 294.40157480314963,228.0 L 294.796875,227.0 L 295.0,226.796875 L 295.40157480314963,226.0 L 296.0,225.4015748031496 L 296.26701570680626,225.0 L 296.796875,224.0 L 297.0,223.796875 L 297.2,223.0 L 297.796875,222.0 L 298.0,221.796875 L 298.26701570680626,221.0 L 299.0,220.2670157068063 L 299.2,220.0 L 299.796875,219.0 L 300.0,218.796875 L 301.0,218.2670157068063 L 302.0,218.2 L 303.0,218.2 L 304.0,218.2670157068063 L 304.73298429319374,219.0 L 305.0,219.2670157068063 L 305.73298429319374,220.0 L 306.0,220.796875 L 306.203125,221.0 L 306.59842519685037,222.0 L 306.8,223.0 L 307.0,223.4015748031496 L 307.59842519685037,224.0 L 307.8,225.0 L 308.0,225.796875 L 308.203125,226.0 L 308.59842519685037,227.0 L 308.59842519685037,228.0 L 308.59842519685037,229.0 L 308.203125,230.0 L 308.0,230.203125" stroke="black" fill="none"/>
<path d="M 306.2,230.0 L 306.26701570680626,229.0 L 306.40157480314963,228.0 L 306.26701570680626,227.0 L 306.2,226.0 L 306.0,225.5984251968504 L 305.40157480314963,225.0 L 305.2,224.0 L 305.0,223.5984251968504 L 304.40157480314963,223.0 L 304.26701570680626,222.0 L 304.2,221.0 L 304.0,220.8 L 303.0,220.203125 L 302.0,220.203125 L 301.0,220.7329842931937 L 300.8,221.0 L 300.203125,222.0 L 300.0,222.203125 L 299.73298429319374,223.0 L 299.0,223.7329842931937 L 298.8,224.0 L 298.73298429319374,225.0 L 298.203125,226.0 L 298.0,226.203125 L 297.59842519685037,227.0 L 297.0,227.5984251968504 L 296.73298429319374,228.0 L 296.59842519685037,229.0 L 296.0,229.5984251968504 L 295.73298429319374,230.0 L 295.0,230.7329842931937 L 294.59842519685037,231.0 L 294.0,231.5984251968504 L 293.73298429319374,232.0 L 293.0,232.7329842931937 L 292.8,233.0 L 293.0,233.2 L 294.0,233.2 L 295.0,233.2 L 296.0,233.2 L 297.0,233.2 L 298.0,233.2670157068063 L 299.0,233.796875 L 299.203125,234.0 L 300.0,234.796875 L 300.203125,235.0 L 301.0,235.4015748031496 L 302.0,235.4015748031496 L 302.796875,235.0 L 303.0,234.796875 L 303.40157480314963,234.0 L 304.0,233.4015748031496 L 304.26701570680626,233.0 L 304.796875,232.0 L 305.0,231.796875 L 305.40157480314963,231.0 L 306.0,230.4015748031496 L 306.2,230.0" stroke="black" fill="none"/>
<path d="M 335.0,1.2031250000000002 L 334.0,1.2031250000000002 L 333.796875,1.0 L 334.0,0.7968749999999999 L 335.0,0.7968749999999999 L 335.203125,1.0 L 335.0,1.2031250000000002" stroke="black" fill="none"/>
<path d="M 359.0,265.203125 L 358.796875,265.0 L 358.40157480314963,264.0 L 358.40157480314963,263.0 L 358.40157480314963,262.0 L 358.40157480314963,261.0 L 358.40157480314963,260.0 L 358.40157480314963,259.0 L 358.40157480314963,258.0 L 358.40157480314963,257.0 L 358.40157480314963,256.0 L 358.40157480314963,255.0 L 358.40157480314963,254.0 L 358.40157480314963,253.0 L 358.40157480314963,252.0 L 358.0,251.203125 L 357.796875,251.0 L 357.40157480314963,250.0 L 357.40157480314963,249.0 L 357.26701570680626,248.0 L 357.0,247.5984251968504 L 356.40157480314963,247.0 L 356.40157480314963,246.0 L 356.40157480314963,245.0 L 357.0,244.4015748031496 L 357.26701570680626,244.0 L 357.796875,243.0 L 358.0,242.796875 L 358.40157480314963,242.0 L 358.40157480314963,241.0 L 358.40157480314963,240.0 L 358.40157480314963,239.0 L 358.40157480314963,238.0 L 358.40157480314963,237.0 L 358.40157480314963,236.0 L 358.40157480314963,235.0 L 358.796875,234.0 L 359.0,233.796875" stroke="black" fill="none"/>
<path d="M 359.0,366.59842519685037 L 358.40157480314963,366.0 L 358.40157480314963,365.0 L 358.40157480314963,364.0 L 358.40157480314963,363.0 L 358.40157480314963,362.0 L 358.40157480314963,361.0 L 358.40157480314963,360.0 L 358.40157480314963,359.0 L 358.40157480314963,358.0 L 358.40157480314963,357.0 L 358.40157480314963,356.0 L 358.40157480314963,355.0 L 358.40157480314963,354.0 L 358.40157480314963,353.0 L 358.40157480314963,352.0 L 358.40157480314963,351.0 L 358.40157480314963,350.0 L 358.0,349.203125 L 357.796875,349.0 L 357.40157480314963,348.0 L 357.40157480314963,347.0 L 357.40157480314963,346.0 L 357.0,345.203125 L 356.796875,345.0 L 356.40157480314963,344.0 L 356.2,343.0 L 356.2,342.0 L 356.2,341.0 L 356.2,340.0 L 356.26701570680626,339.0 L 356.2,338.0 L 356.2,337.0 L 356.2,336.0 L 356.2,335.0 L 356.2,334.0 L 356.2,333.0 L 356.40157480314963,332.0 L 357.0,331.40157480314963 L 357.26701570680626,331.0 L 357.40157480314963,330.0 L 357.796875,329.0 L 358.0,328.796875 L 358.40157480314963,328.0 L 358.40157480314963,327.0 L 358.40157480314963,326.0 L 358.40157480314963,325.0 L 358.40157480314963,324.0 L 359.0,323.40157480314963" stroke="black" fill="none"/>
<path d="M 359.0,127.5984251968504 L 358.8,128.0 L 358.8,129.0 L 358.8,130.0 L 358.73298429319374,131.0 L 358.0,131.7329842931937 L 357.73298429319374,132.0 L 357.59842519685037,133.0 L 357.59842519685037,134.0 L 357.59842519685037,135.0 L 357.59842519685037,136.0 L 357.59842519685037,137.0 L 357.8,138.0 L 357.8,139.0 L 358.0,139.796875 L 358.203125,140.0 L 358.59842519685037,141.0 L 358.59842519685037,142.0 L 358.203125,143.0 L 358.0,143.203125 L 357.8,144.0 L 357.59842519685037,145.0 L 357.59842519685037,146.0 L 357.59842519685037,147.0 L 357.59842519685037,148.0 L 357.59842519685037,149.0 L 357.59842519685037,150.0 L 357.73298429319374,151.0 L 358.0,151.796875 L 358.203125,152.0 L 358.73298429319374,153.0 L 358.8,154.0 L 358.8,155.0 L 358.8,156.0 L 358.73298429319374,157.0 L 358.203125,158.0 L 358.59842519685037,159.0 L 358.59842519685037,160.0 L 358.59842519685037,161.0 L 358.0,161.5984251968504 L 357.8,162.0 L 357.8,163.0 L 357.8,164.0 L 357.8,165.0 L 357.8,166.0 L 358.0,166.796875 L 358.203125,167.0 L 359.0,167.796875" stroke="black" fill="none"/>
<path d="M 359.0,176.203125 L 358.0,176.8 L 357.8,177.0 L 358.0,177.796875 L 358.203125,178.0 L 359.0,178.796875" stroke="black" fill="none"/>
<path d="M 359.0,332.203125 L 358.59842519685037,333.0 L 358.0,333.59842519685037 L 357.8,334.0 L 357.8,335.0 L 357.8,336.0 L 357.8,337.0 L 358.0,337.40157480314963 L 358.59842519685037,338.0 L 358.59842519685037,339.0 L 358.203125,340.0 L 358.0,340.203125 L 357.8,341.0 L 357.8,342.0 L 358.0,342.40157480314963 L 358.59842519685037,343.0 L 358.59842519685037,344.0 L 359.0,344.796875" stroke="black" fill="none"/>
<path d="M 359.0,101.5984251968504 L 358.8,102.0 L 358.8,103.0 L 358.8,104.0 L 358.8,105.0 L 359.0,105.4015748031496" stroke="black" fill="none"/>
<path d="M 359.0,112.5984251968504 L 358.8,113.0 L 358.8,114.0 L 358.8,115.0 L 358.8,116.0 L 359.0,116.4015748031496" stroke="black" fill="none"/>
<path d="M 359.0,245.203125 L 358.59842519685037,246.0 L 358.73298429319374,247.0 L 359.0,247.4015748031496" stroke="black" fill="none"/>
<path d="M 359.0,288.59842519685037 L 358.40157480314963,288.0 L 358.40157480314963,287.0 L 358.40157480314963,286.0 L 358.40157480314963,285.0 L 358.40157480314963,284.0 L 358.40157480314963,283.0 L 358.40157480314963,282.0 L 358.40157480314963,281.0 L 358.40157480314963,280.0 L 358.40157480314963,279.0 L 358.40157480314963,278.0 L 358.40157480314963,277.0 L 358.40157480314963,276.0 L 359.0,275.40157480314963" stroke="black" fill="none"/>
</svg>